STARTFONT 2.1
FONT -ADECW-Hei-Medium-R-Normal--16-160-75-75-M-160-DEC.DTSCS.1990-2
SIZE 16 75 75
FONTBOUNDINGBOX 16 16 0 -4

STARTPROPERTIES 26
FONTNAME_REGISTRY ""
FAMILY_NAME "Hei"
FOUNDRY "ADECW"
WEIGHT_NAME "Medium"
SLANT "R"
SETWIDTH_NAME "Normal"
ADD_STYLE_NAME ""
PIXEL_SIZE 16
POINT_SIZE 160
RESOLUTION_X 75
RESOLUTION_Y 75
SPACING "M"
AVERAGE_WIDTH 160
CHARSET_REGISTRY "DEC.DTSCS.1990"
CHARSET_ENCODING "2"
DEVICE_FONT_NAME "Hei-DEC.DTSCS.1990-2"
CHARSET_COLLECTIONS "DEC.DTSCS.1990 2"
FULL_NAME "Hei DEC.DTSCS.1990 2"
COPYRIGHT "Copyright (c) 1988 Digital Equipment Corporation FE."
CAP_HEIGHT 13
X_HEIGHT 9
WEIGHT 10
QUAD_WIDTH 16
DEFAULT_CHAR 58550
FONT_DESCENT 4
FONT_ASCENT 12
ENDPROPERTIES

CHARS 6320

STARTCHAR A1A1
ENCODING 41377
SWIDTH 960 0
DWIDTH 16 0
BBX 16 16 0 -4
BITMAP
0080
0080
0080
0080
0080
0080
0080
0080
0080
0080
0080
0080
0080
0080
0080
0080
ENDCHAR

STARTCHAR A1A2
ENCODING 41378
SWIDTH 960 0
DWIDTH 16 0
BBX 16 16 0 -4
BITMAP
0000
0000
0000
0400
0200
0100
0080
0040
0040
0020
0020
0020
0000
0000
0000
0000
ENDCHAR

STARTCHAR A1A3
ENCODING 41379
SWIDTH 960 0
DWIDTH 16 0
BBX 16 16 0 -4
BITMAP
0080
0080
0080
0080
0080
0080
0080
0080
0080
0080
0100
0100
0200
0400
0800
1000
ENDCHAR

STARTCHAR A1A4
ENCODING 41380
SWIDTH 960 0
DWIDTH 16 0
BBX 16 16 0 -4
BITMAP
0080
0080
0080
0080
0080
0080
0080
0080
0080
0080
0080
0080
0080
0080
0080
0780
ENDCHAR

STARTCHAR A1A5
ENCODING 41381
SWIDTH 960 0
DWIDTH 16 0
BBX 16 16 0 -4
BITMAP
0000
7FFF
0080
0080
0080
0080
0080
0080
0080
0080
0080
0080
0080
0080
0080
0080
ENDCHAR

STARTCHAR A1A6
ENCODING 41382
SWIDTH 960 0
DWIDTH 16 0
BBX 16 16 0 -4
BITMAP
0080
0080
0080
0080
0080
0080
0080
0080
0080
0080
0080
0080
0080
0080
7FFF
0000
ENDCHAR

STARTCHAR A1A7
ENCODING 41383
SWIDTH 960 0
DWIDTH 16 0
BBX 16 16 0 -4
BITMAP
0000
3FFE
2002
2002
2002
2002
2002
2002
2002
2002
2002
2002
2002
2002
2002
200C
ENDCHAR

STARTCHAR A1A8
ENCODING 41384
SWIDTH 960 0
DWIDTH 16 0
BBX 16 16 0 -4
BITMAP
0000
0000
0000
2000
3FFF
2001
4002
4004
0000
0000
0000
0000
0000
0000
0000
0000
ENDCHAR

STARTCHAR A1A9
ENCODING 41385
SWIDTH 960 0
DWIDTH 16 0
BBX 16 16 0 -4
BITMAP
0000
7FFF
2000
2000
2000
2000
2000
2000
2000
2000
2000
2000
2000
2000
1FFF
0000
ENDCHAR

STARTCHAR A1AA
ENCODING 41386
SWIDTH 960 0
DWIDTH 16 0
BBX 16 16 0 -4
BITMAP
0000
0FF8
0808
0808
0808
0808
0808
0808
0808
0808
08F0
0800
0800
0800
0800
0800
ENDCHAR

STARTCHAR A1AB
ENCODING 41387
SWIDTH 960 0
DWIDTH 16 0
BBX 16 16 0 -4
BITMAP
0000
0080
0100
0100
0200
0200
0400
0400
0808
1004
103E
23E2
7E01
0001
0000
0000
ENDCHAR

STARTCHAR A1AC
ENCODING 41388
SWIDTH 960 0
DWIDTH 16 0
BBX 16 16 0 -4
BITMAP
0080
0140
0220
0490
0888
1084
2082
4081
0080
0080
0080
0080
0080
0080
0080
0080
ENDCHAR

STARTCHAR A1AD
ENCODING 41389
SWIDTH 960 0
DWIDTH 16 0
BBX 16 16 0 -4
BITMAP
0400
0400
0800
0FFF
1040
2040
4040
0040
0040
0040
0040
0040
0040
0040
0040
03C0
ENDCHAR

STARTCHAR A1AE
ENCODING 41390
SWIDTH 960 0
DWIDTH 16 0
BBX 16 16 0 -4
BITMAP
0000
0104
1084
1044
0848
0808
0410
0210
0220
0140
0080
0140
0220
0418
1807
6000
ENDCHAR

STARTCHAR A1AF
ENCODING 41391
SWIDTH 960 0
DWIDTH 16 0
BBX 16 16 0 -4
BITMAP
0080
0100
0200
0400
07E0
0420
0420
0420
0420
0420
0420
0820
0822
1022
2022
401E
ENDCHAR

STARTCHAR A1B0
ENCODING 41392
SWIDTH 960 0
DWIDTH 16 0
BBX 16 16 0 -4
BITMAP
0410
0410
0410
0810
0820
1020
2040
3FC0
0080
0140
0240
0420
0810
1008
2004
4002
ENDCHAR

STARTCHAR A1B1
ENCODING 41393
SWIDTH 960 0
DWIDTH 16 0
BBX 16 16 0 -4
BITMAP
0000
1FFC
0000
0000
0000
7FFF
0200
0400
0800
0FFE
0002
0002
0002
0002
0004
0038
ENDCHAR

STARTCHAR A1B2
ENCODING 41394
SWIDTH 960 0
DWIDTH 16 0
BBX 16 16 0 -4
BITMAP
0000
0080
0080
0140
0140
0220
0220
0410
0808
1004
2002
4FF9
0000
0000
0000
0000
ENDCHAR

STARTCHAR A1B3
ENCODING 41395
SWIDTH 960 0
DWIDTH 16 0
BBX 16 16 0 -4
BITMAP
0040
4040
4040
4080
4080
4140
4120
4120
4210
4208
4408
4804
5002
4000
3FFF
0000
ENDCHAR

STARTCHAR A1B4
ENCODING 41396
SWIDTH 960 0
DWIDTH 16 0
BBX 16 16 0 -4
BITMAP
0100
4080
4040
4040
4040
40A0
40A0
4110
4210
4208
4408
4804
5002
4000
3FFF
0000
ENDCHAR

STARTCHAR A1B5
ENCODING 41397
SWIDTH 960 0
DWIDTH 16 0
BBX 16 16 0 -4
BITMAP
0080
0080
0080
0080
07F0
0410
0410
0410
0410
0410
0410
0810
0811
1011
200F
4000
ENDCHAR

STARTCHAR A1B6
ENCODING 41398
SWIDTH 960 0
DWIDTH 16 0
BBX 16 16 0 -4
BITMAP
0000
3FF8
0108
0108
0108
1108
0908
0508
0308
0108
02C8
0238
040F
0808
1010
6060
ENDCHAR

STARTCHAR A1B7
ENCODING 41399
SWIDTH 960 0
DWIDTH 16 0
BBX 16 16 0 -4
BITMAP
0810
0810
0810
7F90
0890
0890
0890
0890
0890
0890
1090
1090
1091
2091
4111
0E0F
ENDCHAR

STARTCHAR A1B8
ENCODING 41400
SWIDTH 960 0
DWIDTH 16 0
BBX 16 16 0 -4
BITMAP
0410
0410
0410
0410
0410
0410
0410
7FFF
0410
0410
0410
0410
0410
0410
0410
0410
ENDCHAR

STARTCHAR A1B9
ENCODING 41401
SWIDTH 960 0
DWIDTH 16 0
BBX 16 16 0 -4
BITMAP
0400
0400
0400
0FF8
0808
1408
2410
4210
0220
0140
0080
0140
0220
0410
080C
3003
ENDCHAR

STARTCHAR A1BA
ENCODING 41402
SWIDTH 960 0
DWIDTH 16 0
BBX 16 16 0 -4
BITMAP
0200
0200
4400
27F8
1808
0808
1410
2210
4220
0140
0080
0140
0220
0410
080C
3003
ENDCHAR

STARTCHAR A1BB
ENCODING 41403
SWIDTH 960 0
DWIDTH 16 0
BBX 16 16 0 -4
BITMAP
0200
0100
0080
2080
3FFF
2001
4001
4002
0000
0000
0000
0000
0000
0000
0000
0000
ENDCHAR

STARTCHAR A1BC
ENCODING 41404
SWIDTH 960 0
DWIDTH 16 0
BBX 16 16 0 -4
BITMAP
0000
0421
0842
0842
1084
1084
2108
4210
2108
2108
1084
1084
0842
0842
0000
0000
ENDCHAR

STARTCHAR A1BD
ENCODING 41405
SWIDTH 960 0
DWIDTH 16 0
BBX 16 16 0 -4
BITMAP
0000
0020
0040
0080
0104
0208
0410
1820
0640
0180
0110
0208
0404
08FA
3F82
0002
ENDCHAR

STARTCHAR A1BE
ENCODING 41406
SWIDTH 960 0
DWIDTH 16 0
BBX 16 16 0 -4
BITMAP
0080
0040
3FFF
2000
2000
2000
2000
2000
2000
2000
2000
2000
2000
4000
4000
0000
ENDCHAR

STARTCHAR A1BF
ENCODING 41407
SWIDTH 960 0
DWIDTH 16 0
BBX 16 16 0 -4
BITMAP
0000
7C00
0400
0800
0800
1000
3C00
0400
0400
4400
4800
2800
1000
2800
4600
01FF
ENDCHAR

STARTCHAR A1C0
ENCODING 41408
SWIDTH 960 0
DWIDTH 16 0
BBX 16 16 0 -4
BITMAP
0000
0000
1FF8
0008
0008
0008
0008
1FF8
0008
0008
0008
0008
0008
7FFF
0000
0000
ENDCHAR

STARTCHAR A1C1
ENCODING 41409
SWIDTH 960 0
DWIDTH 16 0
BBX 16 16 0 -4
BITMAP
0400
0400
0400
07F8
0808
0808
0808
0810
1010
1FD0
1020
0020
0020
0020
7FFF
0000
ENDCHAR

STARTCHAR A1C2
ENCODING 41410
SWIDTH 960 0
DWIDTH 16 0
BBX 16 16 0 -4
BITMAP
0000
0030
00C0
0700
3800
000C
0030
00C0
0700
3800
0003
000C
0030
01C0
0E00
7000
ENDCHAR

STARTCHAR A1C3
ENCODING 41411
SWIDTH 960 0
DWIDTH 16 0
BBX 16 16 0 -4
BITMAP
0000
07F0
0410
0420
0440
0480
0440
0420
0410
0410
0410
0410
0410
05E0
0400
0400
ENDCHAR

STARTCHAR A1C4
ENCODING 41412
SWIDTH 960 0
DWIDTH 16 0
BBX 16 16 0 -4
BITMAP
0048
0044
0044
0040
7FFF
0040
0840
0840
0440
0480
0280
0100
0280
0460
0818
3007
ENDCHAR

STARTCHAR A1C5
ENCODING 41413
SWIDTH 960 0
DWIDTH 16 0
BBX 16 16 0 -4
BITMAP
0820
0820
1020
1020
2220
4220
2420
1420
0820
1020
1220
2120
4F21
7121
0121
001F
ENDCHAR

STARTCHAR A1C6
ENCODING 41414
SWIDTH 960 0
DWIDTH 16 0
BBX 16 16 0 -4
BITMAP
0820
0820
0820
4920
4920
4920
4920
4920
4920
4920
4920
4920
7F21
4121
0021
001F
ENDCHAR

STARTCHAR A1C7
ENCODING 41415
SWIDTH 960 0
DWIDTH 16 0
BBX 16 16 0 -4
BITMAP
0100
0080
0080
7FFF
0410
0410
0410
0410
0410
0410
0410
0810
0810
1010
2010
4010
ENDCHAR

STARTCHAR A1C8
ENCODING 41416
SWIDTH 960 0
DWIDTH 16 0
BBX 16 16 0 -4
BITMAP
0080
0080
0080
3FFE
2082
2082
2082
2142
2222
2412
280A
2002
2002
2002
2002
201C
ENDCHAR

STARTCHAR A1C9
ENCODING 41417
SWIDTH 960 0
DWIDTH 16 0
BBX 16 16 0 -4
BITMAP
0800
0BFC
1084
1084
2084
3084
5088
5048
1048
1050
1020
1030
1048
1084
1103
1600
ENDCHAR

STARTCHAR A1CA
ENCODING 41418
SWIDTH 960 0
DWIDTH 16 0
BBX 16 16 0 -4
BITMAP
0400
0410
0810
0810
1020
1820
2820
4840
0840
0840
0884
0882
0902
091F
0BE1
0801
ENDCHAR

STARTCHAR A1CB
ENCODING 41419
SWIDTH 960 0
DWIDTH 16 0
BBX 16 16 0 -4
BITMAP
0408
0408
0408
0408
0810
0810
0810
0C28
1428
1228
1244
2244
2284
4082
4102
0201
ENDCHAR

STARTCHAR A1CC
ENCODING 41420
SWIDTH 960 0
DWIDTH 16 0
BBX 16 16 0 -4
BITMAP
0080
0080
0080
0140
0140
0220
0410
188C
6083
0080
0140
0120
0220
0410
080C
3003
ENDCHAR

STARTCHAR A1CD
ENCODING 41421
SWIDTH 960 0
DWIDTH 16 0
BBX 16 16 0 -4
BITMAP
0000
0FF8
0808
0808
0808
7FFF
0808
0808
0808
7FFF
0808
0808
0808
0808
0808
0838
ENDCHAR

STARTCHAR A1CE
ENCODING 41422
SWIDTH 960 0
DWIDTH 16 0
BBX 16 16 0 -4
BITMAP
0000
1FFC
1084
1084
1084
1084
1084
1084
1FFC
1004
1004
1004
1004
1004
1004
101C
ENDCHAR

STARTCHAR A1CF
ENCODING 41423
SWIDTH 960 0
DWIDTH 16 0
BBX 16 16 0 -4
BITMAP
2000
3FFF
2001
4001
4412
0410
0410
0410
0410
0410
0410
0811
0811
1011
201F
4000
ENDCHAR

STARTCHAR A1D0
ENCODING 41424
SWIDTH 960 0
DWIDTH 16 0
BBX 16 16 0 -4
BITMAP
0000
4000
27FF
1020
0020
0020
0820
0820
1020
1020
1020
2020
2020
4020
4020
00E0
ENDCHAR

STARTCHAR A1D1
ENCODING 41425
SWIDTH 960 0
DWIDTH 16 0
BBX 16 16 0 -4
BITMAP
0000
1FFC
1004
1004
17F4
1214
1214
1224
1124
1144
10C4
10A4
1125
2213
2409
4000
ENDCHAR

STARTCHAR A1D2
ENCODING 41426
SWIDTH 960 0
DWIDTH 16 0
BBX 16 16 0 -4
BITMAP
0000
3FF0
0210
0210
0210
0210
2218
1214
0A12
0411
0411
0810
0810
1010
2020
40C0
ENDCHAR

STARTCHAR A1D3
ENCODING 41427
SWIDTH 960 0
DWIDTH 16 0
BBX 16 16 0 -4
BITMAP
0200
0200
0200
0200
3FF8
0208
0208
120C
120A
2209
4409
0408
0808
1008
2010
4060
ENDCHAR

STARTCHAR A1D4
ENCODING 41428
SWIDTH 960 0
DWIDTH 16 0
BBX 16 16 0 -4
BITMAP
0020
0020
7E20
0220
02FF
0221
4421
2421
1821
0821
1421
1241
2241
2081
4102
021C
ENDCHAR

STARTCHAR A1D5
ENCODING 41429
SWIDTH 960 0
DWIDTH 16 0
BBX 16 16 0 -4
BITMAP
0800
0800
1FFF
1001
2101
4101
0101
0101
0281
0241
0441
0421
0811
1009
2002
001C
ENDCHAR

STARTCHAR A1D6
ENCODING 41430
SWIDTH 960 0
DWIDTH 16 0
BBX 16 16 0 -4
BITMAP
0800
0800
1FFF
1001
2001
4001
0701
00C1
0001
0001
0071
0381
1C01
0001
0002
001C
ENDCHAR

STARTCHAR A1D7
ENCODING 41431
SWIDTH 960 0
DWIDTH 16 0
BBX 16 16 0 -4
BITMAP
0000
7FFF
2000
2004
2408
2208
2110
20A0
2060
2090
2108
2204
2404
2000
1FFF
0000
ENDCHAR

STARTCHAR A1D8
ENCODING 41432
SWIDTH 960 0
DWIDTH 16 0
BBX 16 16 0 -4
BITMAP
1020
1020
1020
1020
7DFF
1021
1021
1021
1021
1021
1041
1041
1081
1101
1202
141C
ENDCHAR

STARTCHAR A1D9
ENCODING 41433
SWIDTH 960 0
DWIDTH 16 0
BBX 16 16 0 -4
BITMAP
0200
0200
7FF0
0210
0210
0410
0411
0811
108F
6080
0080
7FFF
0080
0080
0080
0080
ENDCHAR

STARTCHAR A1DA
ENCODING 41434
SWIDTH 960 0
DWIDTH 16 0
BBX 16 16 0 -4
BITMAP
0220
0220
0220
0220
0220
0220
7E3F
0220
0220
0220
0220
0220
0220
0220
0220
0220
ENDCHAR

STARTCHAR A1DB
ENCODING 41435
SWIDTH 960 0
DWIDTH 16 0
BBX 16 16 0 -4
BITMAP
0000
3FFF
2000
2080
2080
2080
2FFE
2082
2082
2082
2082
2102
2102
4202
4404
0878
ENDCHAR

STARTCHAR A1DC
ENCODING 41436
SWIDTH 960 0
DWIDTH 16 0
BBX 16 16 0 -4
BITMAP
0080
0080
0080
0080
7FFF
0080
0110
0110
0220
0220
0440
0444
0882
111E
23E3
4102
ENDCHAR

STARTCHAR A1DD
ENCODING 41437
SWIDTH 960 0
DWIDTH 16 0
BBX 16 16 0 -4
BITMAP
0200
0200
0400
0410
0808
10F4
3F02
1802
0200
0200
0400
0410
0808
10F4
3F02
1802
ENDCHAR

STARTCHAR A1DE
ENCODING 41438
SWIDTH 960 0
DWIDTH 16 0
BBX 16 16 0 -4
BITMAP
0000
7F7F
2121
2121
2121
2121
2122
1212
1212
1414
0808
1414
1214
2122
4042
0081
ENDCHAR

STARTCHAR A1DF
ENCODING 41439
SWIDTH 960 0
DWIDTH 16 0
BBX 16 16 0 -4
BITMAP
0000
1FFC
0808
0410
0220
01C0
0630
380E
0000
1FFC
0808
0410
0220
01C0
0630
380E
ENDCHAR

STARTCHAR A1E0
ENCODING 41440
SWIDTH 960 0
DWIDTH 16 0
BBX 16 16 0 -4
BITMAP
0400
04FE
4442
4442
4442
4442
4424
4424
4428
4418
7C10
0428
0424
0444
0482
0501
ENDCHAR

STARTCHAR A1E1
ENCODING 41441
SWIDTH 960 0
DWIDTH 16 0
BBX 16 16 0 -4
BITMAP
0080
0080
0080
0080
0080
1FFC
0080
0080
0090
0088
0084
0084
0080
0080
7FFF
0000
ENDCHAR

STARTCHAR A1E2
ENCODING 41442
SWIDTH 960 0
DWIDTH 16 0
BBX 16 16 0 -4
BITMAP
0080
0080
2082
2082
2082
2082
2082
2082
3FFE
2082
0080
0080
0080
0080
7FFF
0000
ENDCHAR

STARTCHAR A1E3
ENCODING 41443
SWIDTH 960 0
DWIDTH 16 0
BBX 16 16 0 -4
BITMAP
0000
7FFF
0080
0080
0080
3FFE
2082
2082
2082
2082
2082
2082
2082
209C
0080
0080
ENDCHAR

STARTCHAR A1E4
ENCODING 41444
SWIDTH 960 0
DWIDTH 16 0
BBX 16 16 0 -4
BITMAP
0048
0044
0040
7FFF
0040
0040
0040
0020
0020
0020
0010
7FD0
0009
0009
0005
0003
ENDCHAR

STARTCHAR A1E5
ENCODING 41445
SWIDTH 960 0
DWIDTH 16 0
BBX 16 16 0 -4
BITMAP
0080
0040
1040
1FFE
1002
1002
1002
1002
1FFE
1000
1000
1000
1000
2000
2000
4000
ENDCHAR

STARTCHAR A1E6
ENCODING 41446
SWIDTH 960 0
DWIDTH 16 0
BBX 16 16 0 -4
BITMAP
0000
3FFE
0000
0000
1FFE
1002
1002
1002
1002
1FFE
1000
1000
1000
2000
2000
4000
ENDCHAR

STARTCHAR A1E7
ENCODING 41447
SWIDTH 960 0
DWIDTH 16 0
BBX 16 16 0 -4
BITMAP
0080
0080
00FE
0080
0080
0080
1FF8
0008
0808
0410
0220
0140
00C0
0320
0C18
3007
ENDCHAR

STARTCHAR A1E8
ENCODING 41448
SWIDTH 960 0
DWIDTH 16 0
BBX 16 16 0 -4
BITMAP
0400
0400
0400
0FFE
0808
1408
2410
4210
0220
0140
0080
0140
0220
0410
080C
3003
ENDCHAR

STARTCHAR A1E9
ENCODING 41449
SWIDTH 960 0
DWIDTH 16 0
BBX 16 16 0 -4
BITMAP
0000
1FFC
0080
0080
0080
0080
7FFF
0100
0140
0240
0240
0441
0441
0841
103F
6000
ENDCHAR

STARTCHAR A1EA
ENCODING 41450
SWIDTH 960 0
DWIDTH 16 0
BBX 16 16 0 -4
BITMAP
0000
1FFC
1040
1040
2040
2040
3FFE
0040
1040
0C40
0340
00C0
0070
004C
0043
01C0
ENDCHAR

STARTCHAR A1EB
ENCODING 41451
SWIDTH 960 0
DWIDTH 16 0
BBX 16 16 0 -4
BITMAP
1000
1000
1FFE
1080
2080
2080
4080
0080
1FFC
0080
0080
0080
0080
0080
7FFF
0000
ENDCHAR

STARTCHAR A1EC
ENCODING 41452
SWIDTH 960 0
DWIDTH 16 0
BBX 16 16 0 -4
BITMAP
0080
0080
2082
2082
2082
2082
3FFE
2002
0000
0000
1FFC
0000
0000
0000
7FFF
0000
ENDCHAR

STARTCHAR A1ED
ENCODING 41453
SWIDTH 960 0
DWIDTH 16 0
BBX 16 16 0 -4
BITMAP
0800
0BFE
1020
1020
2020
3020
5020
57FF
1020
1020
1020
1020
1020
1020
1020
1020
ENDCHAR

STARTCHAR A1EE
ENCODING 41454
SWIDTH 960 0
DWIDTH 16 0
BBX 16 16 0 -4
BITMAP
0820
0820
1020
1020
2020
37FF
5020
5050
1050
1050
1088
1088
1104
1104
1202
1401
ENDCHAR

STARTCHAR A1EF
ENCODING 41455
SWIDTH 960 0
DWIDTH 16 0
BBX 16 16 0 -4
BITMAP
0800
09F8
1108
1108
2108
3108
5148
5148
1128
1128
1128
1108
1109
1209
1209
1407
ENDCHAR

STARTCHAR A1F0
ENCODING 41456
SWIDTH 960 0
DWIDTH 16 0
BBX 16 16 0 -4
BITMAP
0100
0100
01FE
0100
0100
0100
7FFF
0080
0080
0080
0140
0120
0220
0410
080C
3003
ENDCHAR

STARTCHAR A1F1
ENCODING 41457
SWIDTH 960 0
DWIDTH 16 0
BBX 16 16 0 -4
BITMAP
0800
0800
17FF
1088
2088
3088
5088
5088
1088
1088
1088
1088
1109
1109
1209
1407
ENDCHAR

STARTCHAR A1F2
ENCODING 41458
SWIDTH 960 0
DWIDTH 16 0
BBX 16 16 0 -4
BITMAP
0820
0820
1020
1020
2020
3128
5124
5124
1122
1222
1221
1221
1421
1020
1020
10E0
ENDCHAR

STARTCHAR A1F3
ENCODING 41459
SWIDTH 960 0
DWIDTH 16 0
BBX 16 16 0 -4
BITMAP
0820
0820
107E
1042
2082
3082
5142
5224
1414
1008
1008
1010
1020
1040
1180
1600
ENDCHAR

STARTCHAR A1F4
ENCODING 41460
SWIDTH 960 0
DWIDTH 16 0
BBX 16 16 0 -4
BITMAP
0840
0840
1044
1044
23FF
3084
5084
5084
1104
1108
13E8
1010
1028
1044
1182
1601
ENDCHAR

STARTCHAR A1F5
ENCODING 41461
SWIDTH 960 0
DWIDTH 16 0
BBX 16 16 0 -4
BITMAP
0080
0080
0140
0220
0410
080C
1063
6180
0618
1860
0180
060C
1830
00C0
0300
1C00
ENDCHAR

STARTCHAR A1F6
ENCODING 41462
SWIDTH 960 0
DWIDTH 16 0
BBX 16 16 0 -4
BITMAP
0300
0080
0140
0220
0410
0808
1006
2FF9
4080
0080
0080
0080
0080
0080
3FFE
0000
ENDCHAR

STARTCHAR A1F7
ENCODING 41463
SWIDTH 960 0
DWIDTH 16 0
BBX 16 16 0 -4
BITMAP
0000
3FFE
2002
2002
27F2
2412
2412
2412
27F2
2402
2402
2412
2412
23F2
2002
200E
ENDCHAR

STARTCHAR A1F8
ENCODING 41464
SWIDTH 960 0
DWIDTH 16 0
BBX 16 16 0 -4
BITMAP
0000
3FFE
2002
2002
2002
27F2
2412
2412
2412
2412
27F2
2412
2002
2002
2002
200E
ENDCHAR

STARTCHAR A1F9
ENCODING 41465
SWIDTH 960 0
DWIDTH 16 0
BBX 16 16 0 -4
BITMAP
0000
1F7C
1144
1144
1144
1144
1144
1144
7FFF
1144
1144
1144
1144
1144
1144
134C
ENDCHAR

STARTCHAR A1FA
ENCODING 41466
SWIDTH 960 0
DWIDTH 16 0
BBX 16 16 0 -4
BITMAP
2000
3FFF
2002
4404
0400
07FE
0400
0800
0800
1FFC
0804
0004
7FFF
0004
0008
0030
ENDCHAR

STARTCHAR A1FB
ENCODING 41467
SWIDTH 960 0
DWIDTH 16 0
BBX 16 16 0 -4
BITMAP
0000
3FFE
2002
2002
3FFE
2000
2000
23F0
2210
2210
2210
2210
2411
4411
4811
100F
ENDCHAR

STARTCHAR A1FC
ENCODING 41468
SWIDTH 960 0
DWIDTH 16 0
BBX 16 16 0 -4
BITMAP
1000
1000
11FF
1011
7C11
1011
1011
1011
1021
1021
1021
1E41
7041
0082
0102
061C
ENDCHAR

STARTCHAR A1FD
ENCODING 41469
SWIDTH 960 0
DWIDTH 16 0
BBX 16 16 0 -4
BITMAP
0101
0791
3C11
0411
0411
0411
0411
7FD1
0411
0411
0411
0811
0811
1001
2001
0006
ENDCHAR

STARTCHAR A1FE
ENCODING 41470
SWIDTH 960 0
DWIDTH 16 0
BBX 16 16 0 -4
BITMAP
0800
0800
10FF
1011
2211
4211
6411
1411
0811
1021
2421
4241
4E41
7281
0102
020C
ENDCHAR

STARTCHAR A2A1
ENCODING 41633
SWIDTH 960 0
DWIDTH 16 0
BBX 16 16 0 -4
BITMAP
3FFE
2002
2102
2102
2FFA
210A
210A
210A
210A
220A
220A
2412
28E2
2002
3FFE
2002
ENDCHAR

STARTCHAR A2A2
ENCODING 41634
SWIDTH 960 0
DWIDTH 16 0
BBX 16 16 0 -4
BITMAP
1000
1000
1FFF
2001
4101
0081
0081
7FFD
1001
1001
1001
1001
1001
0FF9
0002
001C
ENDCHAR

STARTCHAR A2A3
ENCODING 41635
SWIDTH 960 0
DWIDTH 16 0
BBX 16 16 0 -4
BITMAP
1000
1000
1FFF
2001
4081
0081
2081
2141
2121
2211
2409
2809
2001
3FF9
0002
001C
ENDCHAR

STARTCHAR A2A4
ENCODING 41636
SWIDTH 960 0
DWIDTH 16 0
BBX 16 16 0 -4
BITMAP
1000
1000
1FFF
2001
2301
4201
07FD
0809
1411
2221
4141
0081
0101
0601
1802
601C
ENDCHAR

STARTCHAR A2A5
ENCODING 41637
SWIDTH 960 0
DWIDTH 16 0
BBX 16 16 0 -4
BITMAP
0800
0800
1FFC
1224
2224
4224
1A24
0444
0744
0884
08E4
111C
2107
0204
0408
1830
ENDCHAR

STARTCHAR A2A6
ENCODING 41638
SWIDTH 960 0
DWIDTH 16 0
BBX 16 16 0 -4
BITMAP
0000
3FFE
2000
2000
27FC
2040
2040
2040
2040
2040
2040
2FFE
2000
2000
3FFF
0000
ENDCHAR

STARTCHAR A2A7
ENCODING 41639
SWIDTH 960 0
DWIDTH 16 0
BBX 16 16 0 -4
BITMAP
0040
0040
7C40
4440
4440
4470
444C
4442
4441
4440
7C40
4440
0040
0040
0040
0040
ENDCHAR

STARTCHAR A2A8
ENCODING 41640
SWIDTH 960 0
DWIDTH 16 0
BBX 16 16 0 -4
BITMAP
0000
007E
3E42
0842
0842
0842
0842
0842
0842
0842
0842
0F5C
7840
0040
0040
0040
ENDCHAR

STARTCHAR A2A9
ENCODING 41641
SWIDTH 960 0
DWIDTH 16 0
BBX 16 16 0 -4
BITMAP
0000
3FFF
2000
2000
2FFE
2100
2100
21FC
2104
2104
2104
2204
2204
2404
4808
5070
ENDCHAR

STARTCHAR A2AA
ENCODING 41642
SWIDTH 960 0
DWIDTH 16 0
BBX 16 16 0 -4
BITMAP
0080
0080
0100
7FFF
0220
0410
0808
1104
6103
0200
0210
0408
0804
10FC
3F04
0004
ENDCHAR

STARTCHAR A2AB
ENCODING 41643
SWIDTH 960 0
DWIDTH 16 0
BBX 16 16 0 -4
BITMAP
00FC
3F00
0100
0100
7FFF
0200
0200
03FC
0504
0504
0888
0850
1020
2050
418C
0603
ENDCHAR

STARTCHAR A2AC
ENCODING 41644
SWIDTH 960 0
DWIDTH 16 0
BBX 16 16 0 -4
BITMAP
0010
0010
7C10
4410
4410
4410
4420
4428
4428
4448
7C44
4444
0084
0082
0102
0201
ENDCHAR

STARTCHAR A2AD
ENCODING 41645
SWIDTH 960 0
DWIDTH 16 0
BBX 16 16 0 -4
BITMAP
0010
0010
7C10
4410
4410
45FF
4410
4410
4410
4410
7C10
4410
0010
0010
0010
0010
ENDCHAR

STARTCHAR A2AE
ENCODING 41646
SWIDTH 960 0
DWIDTH 16 0
BBX 16 16 0 -4
BITMAP
0000
1FFC
1004
1004
1FFC
0000
0000
7FFF
0400
0800
0FFC
0004
0004
0004
0008
0070
ENDCHAR

STARTCHAR A2AF
ENCODING 41647
SWIDTH 960 0
DWIDTH 16 0
BBX 16 16 0 -4
BITMAP
0000
01FC
7C84
4484
4484
4484
4488
4448
4448
4450
7C20
4430
0048
0084
0103
0200
ENDCHAR

STARTCHAR A2B0
ENCODING 41648
SWIDTH 960 0
DWIDTH 16 0
BBX 16 16 0 -4
BITMAP
0080
0080
7880
4880
4BF8
4888
4888
4888
4888
4888
7908
4908
0209
0209
0409
0807
ENDCHAR

STARTCHAR A2B1
ENCODING 41649
SWIDTH 960 0
DWIDTH 16 0
BBX 16 16 0 -4
BITMAP
0200
0200
7FF0
0410
0410
0810
0811
1011
200F
4000
1FFC
1004
1004
1004
1FFC
1004
ENDCHAR

STARTCHAR A2B2
ENCODING 41650
SWIDTH 960 0
DWIDTH 16 0
BBX 16 16 0 -4
BITMAP
0000
3FFE
2002
2002
2FFA
220A
2212
2112
2122
20C2
20A2
2312
2C0A
2002
3FFE
2002
ENDCHAR

STARTCHAR A2B3
ENCODING 41651
SWIDTH 960 0
DWIDTH 16 0
BBX 16 16 0 -4
BITMAP
0020
0820
0820
0820
08FF
3E21
0821
0821
0821
0821
0821
0841
0E41
7081
0102
021C
ENDCHAR

STARTCHAR A2B4
ENCODING 41652
SWIDTH 960 0
DWIDTH 16 0
BBX 16 16 0 -4
BITMAP
0020
0820
0820
0820
0820
3E38
0824
0822
0821
0820
0820
0820
0F20
7020
0020
0020
ENDCHAR

STARTCHAR A2B5
ENCODING 41653
SWIDTH 960 0
DWIDTH 16 0
BBX 16 16 0 -4
BITMAP
1008
1008
1F08
1108
1108
2114
2112
5122
4A21
0441
0681
0900
0880
1040
203F
4000
ENDCHAR

STARTCHAR A2B6
ENCODING 41654
SWIDTH 960 0
DWIDTH 16 0
BBX 16 16 0 -4
BITMAP
1000
103F
1F21
1121
2121
2121
3121
4921
4621
0221
0421
042E
0820
0820
1020
2020
ENDCHAR

STARTCHAR A2B7
ENCODING 41655
SWIDTH 960 0
DWIDTH 16 0
BBX 16 16 0 -4
BITMAP
0080
0080
0080
3FFE
0080
0140
0220
0410
0888
1084
6083
0FF8
0080
0080
0080
0080
ENDCHAR

STARTCHAR A2B8
ENCODING 41656
SWIDTH 960 0
DWIDTH 16 0
BBX 16 16 0 -4
BITMAP
0080
0080
0100
7FFF
0220
0410
0808
1004
6413
0410
0410
0410
0810
0810
1010
2010
ENDCHAR

STARTCHAR A2B9
ENCODING 41657
SWIDTH 960 0
DWIDTH 16 0
BBX 16 16 0 -4
BITMAP
0040
0840
0440
0240
2040
1040
0840
0040
0080
7FFF
0100
0210
0408
0804
1002
2001
ENDCHAR

STARTCHAR A2BA
ENCODING 41658
SWIDTH 960 0
DWIDTH 16 0
BBX 16 16 0 -4
BITMAP
0080
0080
0100
7FFF
0220
0410
0808
1004
6003
0000
1004
1004
1004
1004
1FFC
1004
ENDCHAR

STARTCHAR A2BB
ENCODING 41659
SWIDTH 960 0
DWIDTH 16 0
BBX 16 16 0 -4
BITMAP
2000
21FF
2408
7E08
2408
2408
2408
2408
2408
4408
3408
0808
1408
2208
4008
0038
ENDCHAR

STARTCHAR A2BC
ENCODING 41660
SWIDTH 960 0
DWIDTH 16 0
BBX 16 16 0 -4
BITMAP
0100
0080
2080
3FFF
4001
4002
0000
1FF8
0008
0410
0220
0140
0180
0260
0C18
3007
ENDCHAR

STARTCHAR A2BD
ENCODING 41661
SWIDTH 960 0
DWIDTH 16 0
BBX 16 16 0 -4
BITMAP
0100
2080
3FFF
4001
4002
0420
0420
0420
0420
0420
0420
0420
0821
0821
1021
201F
ENDCHAR

STARTCHAR A2BE
ENCODING 41662
SWIDTH 960 0
DWIDTH 16 0
BBX 16 16 0 -4
BITMAP
0008
0008
7C08
0408
05FF
0408
4408
2888
2848
1048
1808
2408
2408
4408
4008
0038
ENDCHAR

STARTCHAR A2BF
ENCODING 41663
SWIDTH 960 0
DWIDTH 16 0
BBX 16 16 0 -4
BITMAP
0800
0800
1000
1FFE
2082
2082
4084
0490
0488
0884
0882
1081
2081
4080
0080
0380
ENDCHAR

STARTCHAR A2C0
ENCODING 41664
SWIDTH 960 0
DWIDTH 16 0
BBX 16 16 0 -4
BITMAP
0000
1FFE
1002
1002
1FFE
1000
1000
17FC
1104
1104
1088
1090
2060
2190
460C
1803
ENDCHAR

STARTCHAR A2C1
ENCODING 41665
SWIDTH 960 0
DWIDTH 16 0
BBX 16 16 0 -4
BITMAP
0000
10F8
1088
5488
5488
5488
5488
5488
5488
5488
5488
7C88
4508
0109
0209
0407
ENDCHAR

STARTCHAR A2C2
ENCODING 41666
SWIDTH 960 0
DWIDTH 16 0
BBX 16 16 0 -4
BITMAP
0080
1084
1084
1084
1FFC
1004
0080
0080
0080
0140
0140
0220
0410
0808
1004
6002
ENDCHAR

STARTCHAR A2C3
ENCODING 41667
SWIDTH 960 0
DWIDTH 16 0
BBX 16 16 0 -4
BITMAP
0080
1084
1084
1084
1FFC
1004
0300
0080
0140
0140
0220
0210
0408
0804
1003
6000
ENDCHAR

STARTCHAR A2C4
ENCODING 41668
SWIDTH 960 0
DWIDTH 16 0
BBX 16 16 0 -4
BITMAP
0080
1084
1084
1084
1FFC
1004
0000
3FF0
0410
0420
047E
0802
0802
1002
2002
401C
ENDCHAR

STARTCHAR A2C5
ENCODING 41669
SWIDTH 960 0
DWIDTH 16 0
BBX 16 16 0 -4
BITMAP
0000
1FF8
0008
0008
1008
1FF8
1000
1000
1000
1FFC
1004
1004
1004
1004
1FFC
1000
ENDCHAR

STARTCHAR A2C6
ENCODING 41670
SWIDTH 960 0
DWIDTH 16 0
BBX 16 16 0 -4
BITMAP
0820
0820
0820
7F20
4920
4920
493E
4920
4920
4920
4920
4920
0820
0821
0821
081F
ENDCHAR

STARTCHAR A2C7
ENCODING 41671
SWIDTH 960 0
DWIDTH 16 0
BBX 16 16 0 -4
BITMAP
0080
0040
0040
3FFF
2000
2000
2FFE
2040
2040
2040
2040
2040
2040
2040
4040
41C0
ENDCHAR

STARTCHAR A2C8
ENCODING 41672
SWIDTH 960 0
DWIDTH 16 0
BBX 16 16 0 -4
BITMAP
0080
0040
0040
3FFF
2000
2040
2040
2080
2080
2100
2110
2208
2204
247E
4F82
4002
ENDCHAR

STARTCHAR A2C9
ENCODING 41673
SWIDTH 960 0
DWIDTH 16 0
BBX 16 16 0 -4
BITMAP
0050
0048
0040
7FFE
0040
0040
0040
3F20
0020
0020
0010
0010
0009
7F89
0005
0003
ENDCHAR

STARTCHAR A2CA
ENCODING 41674
SWIDTH 960 0
DWIDTH 16 0
BBX 16 16 0 -4
BITMAP
0400
04FE
0402
0402
4402
2402
2402
24FE
0402
0802
0802
0802
1002
1002
20FE
4002
ENDCHAR

STARTCHAR A2CB
ENCODING 41675
SWIDTH 960 0
DWIDTH 16 0
BBX 16 16 0 -4
BITMAP
0400
09FF
1008
2208
4408
0808
1808
2808
4808
0808
0808
0808
0808
0808
0808
0838
ENDCHAR

STARTCHAR A2CC
ENCODING 41676
SWIDTH 960 0
DWIDTH 16 0
BBX 16 16 0 -4
BITMAP
1000
11FF
1008
5808
5408
5408
5408
5408
5008
1008
1008
1008
1008
1008
1008
1038
ENDCHAR

STARTCHAR A2CD
ENCODING 41677
SWIDTH 960 0
DWIDTH 16 0
BBX 16 16 0 -4
BITMAP
1020
1020
1020
5820
55FF
5421
5421
5421
5021
1021
1021
1041
1041
1081
1102
121C
ENDCHAR

STARTCHAR A2CE
ENCODING 41678
SWIDTH 960 0
DWIDTH 16 0
BBX 16 16 0 -4
BITMAP
001E
1FE0
1000
1FFE
1002
1002
1FFE
1000
1000
17FC
1008
1030
20C2
2302
4402
47FE
ENDCHAR

STARTCHAR A2CF
ENCODING 41679
SWIDTH 960 0
DWIDTH 16 0
BBX 16 16 0 -4
BITMAP
1000
13FE
1042
7C42
1042
1042
1042
1042
1C42
7082
1082
1082
1102
1102
1204
3418
ENDCHAR

STARTCHAR A2D0
ENCODING 41680
SWIDTH 960 0
DWIDTH 16 0
BBX 16 16 0 -4
BITMAP
1080
1080
1080
7C80
13F8
1088
1088
1088
1C88
7088
1088
1108
1109
1209
1209
3407
ENDCHAR

STARTCHAR A2D1
ENCODING 41681
SWIDTH 960 0
DWIDTH 16 0
BBX 16 16 0 -4
BITMAP
2000
2102
21FE
2102
2102
2102
2102
21FE
2102
2102
2102
2102
2102
21FE
2102
2000
ENDCHAR

STARTCHAR A2D2
ENCODING 41682
SWIDTH 960 0
DWIDTH 16 0
BBX 16 16 0 -4
BITMAP
0080
0088
0084
0084
7FFF
0080
01C0
02A0
0490
0888
1084
2082
4081
0080
0080
0080
ENDCHAR

STARTCHAR A2D3
ENCODING 41683
SWIDTH 960 0
DWIDTH 16 0
BBX 16 16 0 -4
BITMAP
0080
0080
00FE
0080
0880
0880
0FFC
1004
2808
4410
0220
0140
0180
0600
1800
6000
ENDCHAR

STARTCHAR A2D4
ENCODING 41684
SWIDTH 960 0
DWIDTH 16 0
BBX 16 16 0 -4
BITMAP
0010
7E10
0210
0212
05D4
0458
0854
0894
1092
1111
2210
2070
4001
4001
3FFF
0000
ENDCHAR

STARTCHAR A2D5
ENCODING 41685
SWIDTH 960 0
DWIDTH 16 0
BBX 16 16 0 -4
BITMAP
0100
2100
1100
0103
410C
2130
09C0
0900
1100
1100
2100
2100
2100
4101
4101
00FF
ENDCHAR

STARTCHAR A2D6
ENCODING 41686
SWIDTH 960 0
DWIDTH 16 0
BBX 16 16 0 -4
BITMAP
0000
21F8
1108
0108
4108
2108
0908
0908
1108
1108
2108
2108
2208
4209
4409
0807
ENDCHAR

STARTCHAR A2D7
ENCODING 41687
SWIDTH 960 0
DWIDTH 16 0
BBX 16 16 0 -4
BITMAP
0080
1080
0880
0884
0088
3ED0
02A0
02A0
0490
0490
0888
0884
1082
2081
4080
0380
ENDCHAR

STARTCHAR A2D8
ENCODING 41688
SWIDTH 960 0
DWIDTH 16 0
BBX 16 16 0 -4
BITMAP
0020
2020
1020
0020
4020
2420
0450
0850
0850
1088
1088
2088
2104
4104
4202
0401
ENDCHAR

STARTCHAR A2D9
ENCODING 41689
SWIDTH 960 0
DWIDTH 16 0
BBX 16 16 0 -4
BITMAP
0000
27FF
1040
0040
4080
2080
0100
11FE
1002
1002
2002
2002
2002
4002
4004
0078
ENDCHAR

STARTCHAR A2DA
ENCODING 41690
SWIDTH 960 0
DWIDTH 16 0
BBX 16 16 0 -4
BITMAP
0040
0040
7F40
0840
0840
0840
0840
3E40
0840
0840
0840
0840
0841
0F41
7841
003F
ENDCHAR

STARTCHAR A2DB
ENCODING 41691
SWIDTH 960 0
DWIDTH 16 0
BBX 16 16 0 -4
BITMAP
0080
0040
1FFF
1000
1000
5000
3000
1000
1000
3000
5000
1000
1000
2000
2000
4000
ENDCHAR

STARTCHAR A2DC
ENCODING 41692
SWIDTH 960 0
DWIDTH 16 0
BBX 16 16 0 -4
BITMAP
0040
3E44
0248
0230
2221
1212
0C14
0408
0808
0804
1002
2001
4000
0000
0000
0000
ENDCHAR

STARTCHAR A2DD
ENCODING 41693
SWIDTH 960 0
DWIDTH 16 0
BBX 16 16 0 -4
BITMAP
0000
007E
7E42
0244
0248
0250
4448
2444
1842
0842
1442
1242
2242
205C
4040
0040
ENDCHAR

STARTCHAR A2DE
ENCODING 41694
SWIDTH 960 0
DWIDTH 16 0
BBX 16 16 0 -4
BITMAP
0000
007E
7E42
0844
0848
0850
0848
0844
0842
0842
0842
0842
0842
085C
0840
3040
ENDCHAR

STARTCHAR A2DF
ENCODING 41695
SWIDTH 960 0
DWIDTH 16 0
BBX 16 16 0 -4
BITMAP
0000
3C7E
2442
2444
2448
2450
2448
2444
2442
2442
2442
2442
2542
265C
4440
4040
ENDCHAR

STARTCHAR A2E0
ENCODING 41696
SWIDTH 960 0
DWIDTH 16 0
BBX 16 16 0 -4
BITMAP
0000
7DFF
4408
4408
4808
5008
5008
4808
4408
4408
4408
4408
6408
5808
4008
4038
ENDCHAR

STARTCHAR A2E1
ENCODING 41697
SWIDTH 960 0
DWIDTH 16 0
BBX 16 16 0 -4
BITMAP
0000
7FFF
0080
0080
3FFE
2082
2082
2492
2492
2492
2492
2492
27F2
2002
2002
200E
ENDCHAR

STARTCHAR A2E2
ENCODING 41698
SWIDTH 960 0
DWIDTH 16 0
BBX 16 16 0 -4
BITMAP
0220
0220
0220
0220
7E3F
0220
0220
0220
0220
0221
0E21
721F
0000
0000
3FFE
0000
ENDCHAR

STARTCHAR A2E3
ENCODING 41699
SWIDTH 960 0
DWIDTH 16 0
BBX 16 16 0 -4
BITMAP
00FC
1F80
0080
0080
1FFC
0080
0080
0080
7FFF
0100
0200
0408
0804
107A
3F82
0001
ENDCHAR

STARTCHAR A2E4
ENCODING 41700
SWIDTH 960 0
DWIDTH 16 0
BBX 16 16 0 -4
BITMAP
0820
1020
1020
2420
2220
4120
7F20
0120
0020
7F20
4120
4120
4121
4121
7F21
001F
ENDCHAR

STARTCHAR A2E5
ENCODING 41701
SWIDTH 960 0
DWIDTH 16 0
BBX 16 16 0 -4
BITMAP
0400
0400
0FF0
1020
2040
5FF8
0088
0088
7FFF
0088
0088
1FF8
0088
0080
0080
0380
ENDCHAR

STARTCHAR A2E6
ENCODING 41702
SWIDTH 960 0
DWIDTH 16 0
BBX 16 16 0 -4
BITMAP
0000
3FFE
0000
0000
0FF8
0808
0808
0FF8
0808
0808
0808
0FF8
0000
0000
7FFF
0000
ENDCHAR

STARTCHAR A2E7
ENCODING 41703
SWIDTH 960 0
DWIDTH 16 0
BBX 16 16 0 -4
BITMAP
0820
0820
103E
13E0
2020
3020
5020
53FE
1020
1020
1020
17FF
1020
1020
1020
1020
ENDCHAR

STARTCHAR A2E8
ENCODING 41704
SWIDTH 960 0
DWIDTH 16 0
BBX 16 16 0 -4
BITMAP
0820
0820
1020
1124
2122
3122
5221
5225
1225
1428
1028
1010
1020
1040
1180
1600
ENDCHAR

STARTCHAR A2E9
ENCODING 41705
SWIDTH 960 0
DWIDTH 16 0
BBX 16 16 0 -4
BITMAP
08C0
0820
1020
13FE
2222
3222
5252
5252
128A
128A
1306
1202
1202
1202
1202
120E
ENDCHAR

STARTCHAR A2EA
ENCODING 41706
SWIDTH 960 0
DWIDTH 16 0
BBX 16 16 0 -4
BITMAP
0808
0868
1388
1088
2088
3088
5088
57FF
1088
1088
1088
1088
1108
1108
1208
1408
ENDCHAR

STARTCHAR A2EB
ENCODING 41707
SWIDTH 960 0
DWIDTH 16 0
BBX 16 16 0 -4
BITMAP
0800
081E
13E0
1020
2020
3020
5020
57FF
1020
1050
1050
1088
1088
1104
1202
1401
ENDCHAR

STARTCHAR A2EC
ENCODING 41708
SWIDTH 960 0
DWIDTH 16 0
BBX 16 16 0 -4
BITMAP
0900
0900
1100
11FF
2249
3249
5449
5489
1091
1111
1121
1221
1441
1081
1102
101C
ENDCHAR

STARTCHAR A2ED
ENCODING 41709
SWIDTH 960 0
DWIDTH 16 0
BBX 16 16 0 -4
BITMAP
0800
0BFE
1004
1088
2050
3020
5010
57FF
1021
1022
1024
1020
1020
1020
1020
10E0
ENDCHAR

STARTCHAR A2EE
ENCODING 41710
SWIDTH 960 0
DWIDTH 16 0
BBX 16 16 0 -4
BITMAP
0800
0BFE
1020
1020
2020
3020
5020
51FC
1020
1020
1020
1020
1020
1020
13FE
1000
ENDCHAR

STARTCHAR A2EF
ENCODING 41711
SWIDTH 960 0
DWIDTH 16 0
BBX 16 16 0 -4
BITMAP
0800
09FF
1100
1100
2100
31FE
5102
5142
1142
1124
1124
1218
1214
1224
1442
1481
ENDCHAR

STARTCHAR A2F0
ENCODING 41712
SWIDTH 960 0
DWIDTH 16 0
BBX 16 16 0 -4
BITMAP
0840
0840
1040
17FF
2040
3080
50FC
5084
1144
1144
1244
1228
1410
1028
1044
1183
ENDCHAR

STARTCHAR A2F1
ENCODING 41713
SWIDTH 960 0
DWIDTH 16 0
BBX 16 16 0 -4
BITMAP
0900
09FE
1200
1200
25FC
3000
5000
53FC
1004
1004
1004
1004
1004
1005
1005
1003
ENDCHAR

STARTCHAR A2F2
ENCODING 41714
SWIDTH 960 0
DWIDTH 16 0
BBX 16 16 0 -4
BITMAP
0880
0880
1080
11FF
2101
3201
5001
51F9
1001
1001
11F9
1001
1001
1001
1002
101C
ENDCHAR

STARTCHAR A2F3
ENCODING 41715
SWIDTH 960 0
DWIDTH 16 0
BBX 16 16 0 -4
BITMAP
0880
0880
17F8
1088
2088
3089
5109
5109
1227
1420
1020
17FF
1020
1020
1020
1020
ENDCHAR

STARTCHAR A2F4
ENCODING 41716
SWIDTH 960 0
DWIDTH 16 0
BBX 16 16 0 -4
BITMAP
0800
09F8
1108
1108
2108
3207
5200
55FC
1004
1108
1088
1050
1020
1050
118C
1603
ENDCHAR

STARTCHAR A2F5
ENCODING 41717
SWIDTH 960 0
DWIDTH 16 0
BBX 16 16 0 -4
BITMAP
0080
0140
0220
0410
0808
1004
67F3
0000
0000
7FFF
0100
0210
0408
087C
1F84
0002
ENDCHAR

STARTCHAR A2F6
ENCODING 41718
SWIDTH 960 0
DWIDTH 16 0
BBX 16 16 0 -4
BITMAP
0080
0140
0220
0410
0808
1004
6FFB
0800
0800
0800
0FF8
0800
0800
0800
0FFC
0800
ENDCHAR

STARTCHAR A2F7
ENCODING 41719
SWIDTH 960 0
DWIDTH 16 0
BBX 16 16 0 -4
BITMAP
0080
0080
0080
0140
0140
0220
0410
180C
6003
0810
0810
0810
1428
2244
4282
0101
ENDCHAR

STARTCHAR A2F8
ENCODING 41720
SWIDTH 960 0
DWIDTH 16 0
BBX 16 16 0 -4
BITMAP
0040
0420
0410
0888
1104
2213
4408
0804
1FFC
0224
0220
0420
0420
0821
1021
201F
ENDCHAR

STARTCHAR A2F9
ENCODING 41721
SWIDTH 960 0
DWIDTH 16 0
BBX 16 16 0 -4
BITMAP
0300
0080
0140
0220
0410
180C
6003
0000
1FFC
1004
1004
1FFC
1004
1004
1FFC
1004
ENDCHAR

STARTCHAR A2FA
ENCODING 41722
SWIDTH 960 0
DWIDTH 16 0
BBX 16 16 0 -4
BITMAP
0000
3FFE
0080
0080
1FFC
0080
0080
7FFF
0040
0020
0220
0210
0410
0808
1004
2003
ENDCHAR

STARTCHAR A2FB
ENCODING 41723
SWIDTH 960 0
DWIDTH 16 0
BBX 16 16 0 -4
BITMAP
0000
3FFE
0080
0080
1FFC
1084
1084
7FFF
1084
1084
7FFF
1004
1004
1004
1004
101C
ENDCHAR

STARTCHAR A2FC
ENCODING 41724
SWIDTH 960 0
DWIDTH 16 0
BBX 16 16 0 -4
BITMAP
0000
01FE
4108
2108
2108
0208
0208
13FF
1028
1048
2048
2088
2108
4208
4C08
0038
ENDCHAR

STARTCHAR A2FD
ENCODING 41725
SWIDTH 960 0
DWIDTH 16 0
BBX 16 16 0 -4
BITMAP
0040
0040
4040
23FC
2044
0044
0044
1044
17FF
1040
2090
2088
2104
4202
4401
0801
ENDCHAR

STARTCHAR A2FE
ENCODING 41726
SWIDTH 960 0
DWIDTH 16 0
BBX 16 16 0 -4
BITMAP
0020
0020
4020
2020
23FE
0222
0222
1222
1222
13FE
2222
2020
2020
4020
4020
0020
ENDCHAR

STARTCHAR A3A1
ENCODING 41889
SWIDTH 960 0
DWIDTH 16 0
BBX 16 16 0 -4
BITMAP
0000
001E
43E0
2020
2020
0020
0020
17FF
1020
1050
2050
2088
2088
4104
4202
0401
ENDCHAR

STARTCHAR A3A2
ENCODING 41890
SWIDTH 960 0
DWIDTH 16 0
BBX 16 16 0 -4
BITMAP
0000
1FFC
1004
1004
13E4
1004
1004
1004
17F4
1084
1104
1125
1215
2473
2791
4000
ENDCHAR

STARTCHAR A3A3
ENCODING 41891
SWIDTH 960 0
DWIDTH 16 0
BBX 16 16 0 -4
BITMAP
0100
0080
7FFF
0000
0010
0410
2222
2142
2082
2142
2222
2412
2812
2002
3FFE
2002
ENDCHAR

STARTCHAR A3A4
ENCODING 41892
SWIDTH 960 0
DWIDTH 16 0
BBX 16 16 0 -4
BITMAP
0802
0802
0802
3F12
0912
0912
0912
0912
7FD2
0812
0812
1202
1102
2082
2082
400E
ENDCHAR

STARTCHAR A3A5
ENCODING 41893
SWIDTH 960 0
DWIDTH 16 0
BBX 16 16 0 -4
BITMAP
1002
1FC2
2002
4012
1F92
0012
0012
3F92
0112
0212
0412
0842
1042
2042
3FC2
000E
ENDCHAR

STARTCHAR A3A6
ENCODING 41894
SWIDTH 960 0
DWIDTH 16 0
BBX 16 16 0 -4
BITMAP
0000
3FFC
0204
0204
0404
0804
3038
0000
0000
7F7F
0909
0909
1111
1111
2121
4646
ENDCHAR

STARTCHAR A3A7
ENCODING 41895
SWIDTH 960 0
DWIDTH 16 0
BBX 16 16 0 -4
BITMAP
1002
0802
0802
7F22
0222
0222
4222
2222
1222
1422
0C22
0A02
1202
1102
2102
400E
ENDCHAR

STARTCHAR A3A8
ENCODING 41896
SWIDTH 960 0
DWIDTH 16 0
BBX 16 16 0 -4
BITMAP
0010
0010
3E10
0010
00FF
0011
7F11
0811
1011
1011
2411
2221
4E21
7241
0082
030C
ENDCHAR

STARTCHAR A3A9
ENCODING 41897
SWIDTH 960 0
DWIDTH 16 0
BBX 16 16 0 -4
BITMAP
0080
0080
3FFE
0080
0080
0888
0888
0808
0808
7F7F
0808
0808
1008
1008
2008
4008
ENDCHAR

STARTCHAR A3AA
ENCODING 41898
SWIDTH 960 0
DWIDTH 16 0
BBX 16 16 0 -4
BITMAP
0080
0080
0080
3FFE
0080
0080
0888
0808
0808
7FFF
0808
0808
0808
0808
0FF8
0808
ENDCHAR

STARTCHAR A3AB
ENCODING 41899
SWIDTH 960 0
DWIDTH 16 0
BBX 16 16 0 -4
BITMAP
1040
1040
1040
7C40
13FC
1044
1044
1146
1145
1245
1044
1084
1084
1104
1208
1430
ENDCHAR

STARTCHAR A3AC
ENCODING 41900
SWIDTH 960 0
DWIDTH 16 0
BBX 16 16 0 -4
BITMAP
0000
3FFE
0040
0080
0190
0688
1884
2084
0000
0080
0080
7FFF
0080
0080
0080
0080
ENDCHAR

STARTCHAR A3AD
ENCODING 41901
SWIDTH 960 0
DWIDTH 16 0
BBX 16 16 0 -4
BITMAP
2000
20FE
2080
2080
2080
2080
2080
3FFE
0082
0082
0082
0082
0082
0082
3F82
0002
ENDCHAR

STARTCHAR A3AE
ENCODING 41902
SWIDTH 960 0
DWIDTH 16 0
BBX 16 16 0 -4
BITMAP
0000
3FFF
2000
2000
2FFE
2040
2080
2108
2210
2120
2040
2090
2108
2234
47C4
4004
ENDCHAR

STARTCHAR A3AF
ENCODING 41903
SWIDTH 960 0
DWIDTH 16 0
BBX 16 16 0 -4
BITMAP
0000
3FFF
2000
2040
2040
2040
2040
27FC
2040
2040
2048
2044
2044
2040
4FFE
4000
ENDCHAR

STARTCHAR A3B0
ENCODING 41904
SWIDTH 960 0
DWIDTH 16 0
BBX 16 16 0 -4
BITMAP
0000
3FFF
2000
2040
20A0
2110
2208
25F4
2802
2000
27FC
2004
2008
2010
4020
4040
ENDCHAR

STARTCHAR A3B1
ENCODING 41905
SWIDTH 960 0
DWIDTH 16 0
BBX 16 16 0 -4
BITMAP
0000
7FFC
0004
0104
0104
1FF4
0102
0102
0101
7FFC
0200
0420
0810
10E8
3F08
0008
ENDCHAR

STARTCHAR A3B2
ENCODING 41906
SWIDTH 960 0
DWIDTH 16 0
BBX 16 16 0 -4
BITMAP
0080
0080
1FFC
1084
1084
1FFC
0080
0080
3FFC
0808
0410
0220
01C0
0220
0C18
7006
ENDCHAR

STARTCHAR A3B3
ENCODING 41907
SWIDTH 960 0
DWIDTH 16 0
BBX 16 16 0 -4
BITMAP
0000
1FF8
0010
0C20
0240
01C0
0E30
700C
0000
7E7E
0202
2222
1414
0C08
1234
22C3
ENDCHAR

STARTCHAR A3B4
ENCODING 41908
SWIDTH 960 0
DWIDTH 16 0
BBX 16 16 0 -4
BITMAP
0101
0101
7C82
4482
4444
4428
4410
4410
4410
4410
7C10
4410
0010
0010
0010
0010
ENDCHAR

STARTCHAR A3B5
ENCODING 41909
SWIDTH 960 0
DWIDTH 16 0
BBX 16 16 0 -4
BITMAP
0000
0000
01FE
7C10
4410
4410
4410
4410
4410
4410
4410
7C10
4410
0010
03FF
0000
ENDCHAR

STARTCHAR A3B6
ENCODING 41910
SWIDTH 960 0
DWIDTH 16 0
BBX 16 16 0 -4
BITMAP
0000
00FF
7C81
4481
4481
4481
44FF
4481
4480
4480
7C80
4480
0100
0100
0200
0400
ENDCHAR

STARTCHAR A3B7
ENCODING 41911
SWIDTH 960 0
DWIDTH 16 0
BBX 16 16 0 -4
BITMAP
0000
001E
7CF0
4410
4410
4410
4410
45FF
4410
4410
7C10
4410
0010
0010
0010
0010
ENDCHAR

STARTCHAR A3B8
ENCODING 41912
SWIDTH 960 0
DWIDTH 16 0
BBX 16 16 0 -4
BITMAP
0000
1FFC
1004
1004
1004
1FFC
1004
0080
0080
7FFF
0080
0140
0220
0410
080C
3003
ENDCHAR

STARTCHAR A3B9
ENCODING 41913
SWIDTH 960 0
DWIDTH 16 0
BBX 16 16 0 -4
BITMAP
0000
0000
7E7F
4241
4241
4241
4241
4241
4241
4241
4241
4241
4241
7E7F
4241
0000
ENDCHAR

STARTCHAR A3BA
ENCODING 41914
SWIDTH 960 0
DWIDTH 16 0
BBX 16 16 0 -4
BITMAP
0000
01FF
7C10
4410
4410
4418
4414
4412
4411
4410
7C10
4410
0010
0010
0010
0010
ENDCHAR

STARTCHAR A3BB
ENCODING 41915
SWIDTH 960 0
DWIDTH 16 0
BBX 16 16 0 -4
BITMAP
0000
1FFC
1004
1004
1004
1FFC
1004
0000
0000
3FFE
2002
2002
2002
2002
3FFE
2002
ENDCHAR

STARTCHAR A3BC
ENCODING 41916
SWIDTH 960 0
DWIDTH 16 0
BBX 16 16 0 -4
BITMAP
0010
0020
7C20
4440
4440
4488
4510
4410
4420
4440
7C42
4481
010F
01F1
0001
0000
ENDCHAR

STARTCHAR A3BD
ENCODING 41917
SWIDTH 960 0
DWIDTH 16 0
BBX 16 16 0 -4
BITMAP
0000
3FFE
2002
2222
2222
2222
3FFE
2222
2222
2222
2222
2422
2822
2002
3FFE
2002
ENDCHAR

STARTCHAR A3BE
ENCODING 41918
SWIDTH 960 0
DWIDTH 16 0
BBX 16 16 0 -4
BITMAP
0000
3FFE
2002
2022
2022
2FFA
2022
2422
2222
2122
2022
2022
20E2
2002
3FFE
2002
ENDCHAR

STARTCHAR A3BF
ENCODING 41919
SWIDTH 960 0
DWIDTH 16 0
BBX 16 16 0 -4
BITMAP
0040
1040
1040
1040
1040
7C40
107E
1040
1040
1040
1040
1E40
7040
0040
07FF
0000
ENDCHAR

STARTCHAR A3C0
ENCODING 41920
SWIDTH 960 0
DWIDTH 16 0
BBX 16 16 0 -4
BITMAP
0100
0100
7FFF
0220
0410
0808
1084
6083
0080
1FFC
0080
0080
0080
0080
7FFF
0000
ENDCHAR

STARTCHAR A3C1
ENCODING 41921
SWIDTH 960 0
DWIDTH 16 0
BBX 16 16 0 -4
BITMAP
0010
0E10
3810
0810
0810
0810
08FE
7F10
0810
0810
0810
1010
1010
2010
21FF
4000
ENDCHAR

STARTCHAR A3C2
ENCODING 41922
SWIDTH 960 0
DWIDTH 16 0
BBX 16 16 0 -4
BITMAP
000E
10F0
1010
1010
1010
7E10
1010
11FF
1010
1010
1010
1E10
7010
0010
0010
0010
ENDCHAR

STARTCHAR A3C3
ENCODING 41923
SWIDTH 960 0
DWIDTH 16 0
BBX 16 16 0 -4
BITMAP
0410
0410
4410
2410
1410
0410
05FF
0410
0410
0C10
1410
2410
4410
0410
04FE
0400
ENDCHAR

STARTCHAR A3C4
ENCODING 41924
SWIDTH 960 0
DWIDTH 16 0
BBX 16 16 0 -4
BITMAP
0400
07F8
0808
1410
2220
01C0
0338
1C87
6080
1FFC
1080
1080
1FFE
0080
0080
0080
ENDCHAR

STARTCHAR A3C5
ENCODING 41925
SWIDTH 960 0
DWIDTH 16 0
BBX 16 16 0 -4
BITMAP
007C
1F80
0080
0080
7FFF
0120
0610
180C
6413
0410
0410
0410
0810
0810
1010
2010
ENDCHAR

STARTCHAR A3C6
ENCODING 41926
SWIDTH 960 0
DWIDTH 16 0
BBX 16 16 0 -4
BITMAP
0100
0100
7FFF
0220
0410
0808
1004
6413
0410
0410
7FFF
0410
0810
0810
1010
2010
ENDCHAR

STARTCHAR A3C7
ENCODING 41927
SWIDTH 960 0
DWIDTH 16 0
BBX 16 16 0 -4
BITMAP
0808
0808
0808
0808
7F7F
0808
0808
0808
0814
1414
1414
1222
2222
2141
4081
4100
ENDCHAR

STARTCHAR A3C8
ENCODING 41928
SWIDTH 960 0
DWIDTH 16 0
BBX 16 16 0 -4
BITMAP
0100
0100
7FFF
0220
0410
0808
1004
6083
0080
0080
7FFF
0140
0220
0410
180C
6002
ENDCHAR

STARTCHAR A3C9
ENCODING 41929
SWIDTH 960 0
DWIDTH 16 0
BBX 16 16 0 -4
BITMAP
2000
21FC
2444
7E44
2444
2444
2444
25F4
2444
4444
3444
0845
1445
2245
4045
0043
ENDCHAR

STARTCHAR A3CA
ENCODING 41930
SWIDTH 960 0
DWIDTH 16 0
BBX 16 16 0 -4
BITMAP
2020
2024
2422
7E20
25FF
2420
2420
2420
2420
4410
3410
0810
1409
2209
4005
0003
ENDCHAR

STARTCHAR A3CB
ENCODING 41931
SWIDTH 960 0
DWIDTH 16 0
BBX 16 16 0 -4
BITMAP
2020
2020
2420
7E7C
2444
2444
2484
2508
2408
4410
3410
0828
1444
2284
4102
0201
ENDCHAR

STARTCHAR A3CC
ENCODING 41932
SWIDTH 960 0
DWIDTH 16 0
BBX 16 16 0 -4
BITMAP
0200
0210
3FFE
0410
0B20
00D0
0708
3804
0210
7FFF
0210
0410
0B20
00D0
0708
3804
ENDCHAR

STARTCHAR A3CD
ENCODING 41933
SWIDTH 960 0
DWIDTH 16 0
BBX 16 16 0 -4
BITMAP
0410
0410
4410
2412
14FF
0422
0422
0422
0442
0C44
14B4
2408
4414
0422
0441
0481
ENDCHAR

STARTCHAR A3CE
ENCODING 41934
SWIDTH 960 0
DWIDTH 16 0
BBX 16 16 0 -4
BITMAP
0842
1084
2108
1084
0842
0000
0FF8
0010
0060
0080
7FFF
0080
0080
0080
0080
0380
ENDCHAR

STARTCHAR A3CF
ENCODING 41935
SWIDTH 960 0
DWIDTH 16 0
BBX 16 16 0 -4
BITMAP
0100
2080
3FFF
4001
4202
0200
03F0
0410
0820
1040
20C0
0120
0210
0408
0804
3003
ENDCHAR

STARTCHAR A3D0
ENCODING 41936
SWIDTH 960 0
DWIDTH 16 0
BBX 16 16 0 -4
BITMAP
0100
2080
3FFF
4001
4002
1FF8
0008
0008
0FF8
0800
1000
1FFC
0004
0004
0008
01F0
ENDCHAR

STARTCHAR A3D1
ENCODING 41937
SWIDTH 960 0
DWIDTH 16 0
BBX 16 16 0 -4
BITMAP
0080
2082
1084
0888
0080
0080
3FFC
0004
0004
0004
1FFC
0004
0004
0004
3FFC
0004
ENDCHAR

STARTCHAR A3D2
ENCODING 41938
SWIDTH 960 0
DWIDTH 16 0
BBX 16 16 0 -4
BITMAP
0080
0080
0888
1084
2082
4081
0000
0080
0080
1FFC
0080
0080
0080
0080
7FFF
0000
ENDCHAR

STARTCHAR A3D3
ENCODING 41939
SWIDTH 960 0
DWIDTH 16 0
BBX 16 16 0 -4
BITMAP
0000
3FFE
2002
2002
3FFE
2000
23F8
2008
2010
2020
2FFF
2020
2020
4020
4020
00E0
ENDCHAR

STARTCHAR A3D4
ENCODING 41940
SWIDTH 960 0
DWIDTH 16 0
BBX 16 16 0 -4
BITMAP
0000
1FFC
1004
1004
1004
1FFC
1020
1020
1010
1108
1084
1042
2001
2100
4080
0040
ENDCHAR

STARTCHAR A3D5
ENCODING 41941
SWIDTH 960 0
DWIDTH 16 0
BBX 16 16 0 -4
BITMAP
1000
1000
11FE
5410
5410
5410
5410
5410
5410
5410
5410
7C10
4410
4010
01FF
0000
ENDCHAR

STARTCHAR A3D6
ENCODING 41942
SWIDTH 960 0
DWIDTH 16 0
BBX 16 16 0 -4
BITMAP
1000
10FE
1002
5404
5408
5410
5410
55FF
5410
5410
5410
7C10
4410
4010
0010
0070
ENDCHAR

STARTCHAR A3D7
ENCODING 41943
SWIDTH 960 0
DWIDTH 16 0
BBX 16 16 0 -4
BITMAP
0100
0100
7FFF
0220
0410
0808
1084
6083
0080
1084
1084
1084
1084
1084
1FFC
1004
ENDCHAR

STARTCHAR A3D8
ENCODING 41944
SWIDTH 960 0
DWIDTH 16 0
BBX 16 16 0 -4
BITMAP
0000
3FFC
0004
0004
3FFC
2000
2002
2002
1FFE
0080
0080
2082
2082
2082
3FFE
2002
ENDCHAR

STARTCHAR A3D9
ENCODING 41945
SWIDTH 960 0
DWIDTH 16 0
BBX 16 16 0 -4
BITMAP
1000
10FE
1082
5482
5482
5482
5482
54FE
5482
5480
5480
7C80
4480
4081
0081
007F
ENDCHAR

STARTCHAR A3DA
ENCODING 41946
SWIDTH 960 0
DWIDTH 16 0
BBX 16 16 0 -4
BITMAP
0080
1084
1084
1084
1084
3FFC
1004
0000
0080
0080
2082
2082
2082
2082
7FFE
2002
ENDCHAR

STARTCHAR A3DB
ENCODING 41947
SWIDTH 960 0
DWIDTH 16 0
BBX 16 16 0 -4
BITMAP
1080
1080
1140
1220
1410
1000
1FFC
0000
0888
0888
0888
0888
0888
1088
1088
2007
ENDCHAR

STARTCHAR A3DC
ENCODING 41948
SWIDTH 960 0
DWIDTH 16 0
BBX 16 16 0 -4
BITMAP
0800
09FF
0810
4810
28FE
2892
2892
0892
0892
0892
0892
1092
1092
2096
2010
4010
ENDCHAR

STARTCHAR A3DD
ENCODING 41949
SWIDTH 960 0
DWIDTH 16 0
BBX 16 16 0 -4
BITMAP
1020
1040
1080
7CF8
5488
5488
5488
5488
5488
5488
5C88
5088
1108
1109
1209
1407
ENDCHAR

STARTCHAR A3DE
ENCODING 41950
SWIDTH 960 0
DWIDTH 16 0
BBX 16 16 0 -4
BITMAP
0080
0040
3FFF
2100
2100
21F8
2208
2210
2410
2820
2020
2050
2090
4108
4604
1803
ENDCHAR

STARTCHAR A3DF
ENCODING 41951
SWIDTH 960 0
DWIDTH 16 0
BBX 16 16 0 -4
BITMAP
0080
0040
3FFF
2000
2000
27FC
2040
2040
2040
2FFE
2040
2040
2040
4040
4040
01C0
ENDCHAR

STARTCHAR A3E0
ENCODING 41952
SWIDTH 960 0
DWIDTH 16 0
BBX 16 16 0 -4
BITMAP
0080
0040
3FFF
2000
2078
2780
2080
2080
2080
2FFE
2080
2080
2081
4081
4081
007F
ENDCHAR

STARTCHAR A3E1
ENCODING 41953
SWIDTH 960 0
DWIDTH 16 0
BBX 16 16 0 -4
BITMAP
0000
7892
0892
1124
2124
4248
7A48
0C90
0A48
0924
4924
2892
1092
2800
4600
01FF
ENDCHAR

STARTCHAR A3E2
ENCODING 41954
SWIDTH 960 0
DWIDTH 16 0
BBX 16 16 0 -4
BITMAP
0028
0024
0022
7FFF
0020
0020
0020
3FA0
0010
0010
1F10
0008
0009
7FC5
0003
0001
ENDCHAR

STARTCHAR A3E3
ENCODING 41955
SWIDTH 960 0
DWIDTH 16 0
BBX 16 16 0 -4
BITMAP
0080
7C80
0480
04FF
3D01
2101
2201
4041
7C21
4411
0411
0401
0401
0401
0402
181C
ENDCHAR

STARTCHAR A3E4
ENCODING 41956
SWIDTH 960 0
DWIDTH 16 0
BBX 16 16 0 -4
BITMAP
0000
79FE
0800
0800
3800
23FF
2020
4040
7880
48FE
0802
0802
0802
0802
0804
3018
ENDCHAR

STARTCHAR A3E5
ENCODING 41957
SWIDTH 960 0
DWIDTH 16 0
BBX 16 16 0 -4
BITMAP
0008
1810
0620
01C0
0130
060C
1802
6000
0000
0480
0440
2444
2402
2409
4409
03F8
ENDCHAR

STARTCHAR A3E6
ENCODING 41958
SWIDTH 960 0
DWIDTH 16 0
BBX 16 16 0 -4
BITMAP
1000
10FE
1010
5810
5410
5410
5010
11FF
1010
1010
1010
1010
1010
1010
1010
1010
ENDCHAR

STARTCHAR A3E7
ENCODING 41959
SWIDTH 960 0
DWIDTH 16 0
BBX 16 16 0 -4
BITMAP
1010
1090
1090
5890
549E
54F2
5392
1092
1092
1092
1094
1090
1081
1081
1081
107F
ENDCHAR

STARTCHAR A3E8
ENCODING 41960
SWIDTH 960 0
DWIDTH 16 0
BBX 16 16 0 -4
BITMAP
1000
11FE
1022
5822
5422
5422
5122
10A2
1062
1022
1052
104A
1082
1102
1204
1438
ENDCHAR

STARTCHAR A3E9
ENCODING 41961
SWIDTH 960 0
DWIDTH 16 0
BBX 16 16 0 -4
BITMAP
1000
11F8
1108
5908
5508
5508
5108
1108
1168
1108
1108
1108
1109
1209
1209
1407
ENDCHAR

STARTCHAR A3EA
ENCODING 41962
SWIDTH 960 0
DWIDTH 16 0
BBX 16 16 0 -4
BITMAP
0110
0108
0100
3FFE
0100
0100
1FFC
0100
0100
7FFF
0084
0058
0020
00D1
070D
3803
ENDCHAR

STARTCHAR A3EB
ENCODING 41963
SWIDTH 960 0
DWIDTH 16 0
BBX 16 16 0 -4
BITMAP
0020
0028
7C24
0422
0420
05FF
4420
2421
1822
0824
1418
1210
2229
2045
4183
0601
ENDCHAR

STARTCHAR A3EC
ENCODING 41964
SWIDTH 960 0
DWIDTH 16 0
BBX 16 16 0 -4
BITMAP
1000
11FE
1000
7C00
1000
13FF
1020
1040
1C80
70FE
1002
1002
1002
1002
1004
3018
ENDCHAR

STARTCHAR A3ED
ENCODING 41965
SWIDTH 960 0
DWIDTH 16 0
BBX 16 16 0 -4
BITMAP
1000
13F8
1088
7C88
1088
1088
1088
13F8
1C88
7088
1088
1089
1085
1085
1083
3081
ENDCHAR

STARTCHAR A3EE
ENCODING 41966
SWIDTH 960 0
DWIDTH 16 0
BBX 16 16 0 -4
BITMAP
1040
1040
1040
7C40
13FC
1044
1044
1144
1CC4
7064
1054
1044
1085
1085
1105
3203
ENDCHAR

STARTCHAR A3EF
ENCODING 41967
SWIDTH 960 0
DWIDTH 16 0
BBX 16 16 0 -4
BITMAP
1020
1020
1020
7C20
1020
1020
13FE
1020
1C20
7020
1020
1020
1020
1020
17FF
3000
ENDCHAR

STARTCHAR A3F0
ENCODING 41968
SWIDTH 960 0
DWIDTH 16 0
BBX 16 16 0 -4
BITMAP
0100
0080
7FFF
0410
0220
01C0
0630
180C
6003
0410
0410
0410
0810
0810
1010
2010
ENDCHAR

STARTCHAR A3F1
ENCODING 41969
SWIDTH 960 0
DWIDTH 16 0
BBX 16 16 0 -4
BITMAP
1010
0810
0810
7F10
1010
1010
1010
1E28
1228
1228
1224
1244
2244
2242
4282
0D01
ENDCHAR

STARTCHAR A3F2
ENCODING 41970
SWIDTH 960 0
DWIDTH 16 0
BBX 16 16 0 -4
BITMAP
0000
01FE
7C22
4422
4422
4422
4422
7C22
4422
4442
4442
4442
7C82
4482
0104
0218
ENDCHAR

STARTCHAR A3F3
ENCODING 41971
SWIDTH 960 0
DWIDTH 16 0
BBX 16 16 0 -4
BITMAP
0010
0010
7C10
4410
4410
4410
45FF
7C10
4410
4410
4410
4410
7C10
4410
0010
0010
ENDCHAR

STARTCHAR A3F4
ENCODING 41972
SWIDTH 960 0
DWIDTH 16 0
BBX 16 16 0 -4
BITMAP
0080
0080
0080
1FFC
1084
1084
1FFC
1084
1084
1FFC
0080
0140
0220
0410
080C
3003
ENDCHAR

STARTCHAR A3F5
ENCODING 41973
SWIDTH 960 0
DWIDTH 16 0
BBX 16 16 0 -4
BITMAP
0800
09FE
0822
7F22
0822
0822
1822
1C22
2A22
2942
4842
4842
0882
0882
0904
0A18
ENDCHAR

STARTCHAR A3F6
ENCODING 41974
SWIDTH 960 0
DWIDTH 16 0
BBX 16 16 0 -4
BITMAP
0800
09FE
0842
7E42
0844
0848
184F
1C41
2A41
2941
4841
4881
0881
0901
0902
0A1C
ENDCHAR

STARTCHAR A3F7
ENCODING 41975
SWIDTH 960 0
DWIDTH 16 0
BBX 16 16 0 -4
BITMAP
0810
0810
0810
7F10
0810
0810
1810
1C28
2A28
2928
4824
4844
0844
0842
0882
0901
ENDCHAR

STARTCHAR A3F8
ENCODING 41976
SWIDTH 960 0
DWIDTH 16 0
BBX 16 16 0 -4
BITMAP
0000
3FF0
0410
0420
047E
0802
1002
208C
0080
7FFF
0080
0888
1084
2082
4081
0080
ENDCHAR

STARTCHAR A3F9
ENCODING 41977
SWIDTH 960 0
DWIDTH 16 0
BBX 16 16 0 -4
BITMAP
0040
0040
7C40
0480
04FF
0491
4512
2510
1810
0828
1428
1244
2244
2082
4102
0201
ENDCHAR

STARTCHAR A3FA
ENCODING 41978
SWIDTH 960 0
DWIDTH 16 0
BBX 16 16 0 -4
BITMAP
1000
1000
1FFE
2000
2000
5FFC
1084
1084
1084
7FFF
2104
2104
2104
3FFF
0008
0070
ENDCHAR

STARTCHAR A3FB
ENCODING 41979
SWIDTH 960 0
DWIDTH 16 0
BBX 16 16 0 -4
BITMAP
0C00
71FC
1044
1048
1050
7C5E
1042
1042
1082
7E82
1102
1102
121C
1001
1001
0FFF
ENDCHAR

STARTCHAR A3FC
ENCODING 41980
SWIDTH 960 0
DWIDTH 16 0
BBX 16 16 0 -4
BITMAP
003C
21E0
1020
0020
4020
2020
0020
17FF
1020
1020
2020
2020
2020
4020
4020
0020
ENDCHAR

STARTCHAR A3FD
ENCODING 41981
SWIDTH 960 0
DWIDTH 16 0
BBX 16 16 0 -4
BITMAP
003C
23C0
1040
0040
4040
2040
07FE
1040
1040
1040
2040
2041
2041
4041
403F
0000
ENDCHAR

STARTCHAR A3FE
ENCODING 41982
SWIDTH 960 0
DWIDTH 16 0
BBX 16 16 0 -4
BITMAP
0080
2080
1080
00FC
4104
2104
0284
1488
1088
1050
2050
2020
2050
4088
4304
0C03
ENDCHAR

STARTCHAR A4A1
ENCODING 42145
SWIDTH 960 0
DWIDTH 16 0
BBX 16 16 0 -4
BITMAP
0080
0088
3ED0
02A0
0490
188C
6083
0380
0000
0080
0080
0140
0220
0410
080C
3003
ENDCHAR

STARTCHAR A4A2
ENCODING 42146
SWIDTH 960 0
DWIDTH 16 0
BBX 16 16 0 -4
BITMAP
0820
0820
1020
1021
27A2
30A4
50B0
50A8
1128
1124
1124
1222
1221
1420
1020
10E0
ENDCHAR

STARTCHAR A4A3
ENCODING 42147
SWIDTH 960 0
DWIDTH 16 0
BBX 16 16 0 -4
BITMAP
0000
23FE
1040
0040
4040
27FF
0080
1080
1100
11FE
2002
2002
2002
4002
4004
0038
ENDCHAR

STARTCHAR A4A4
ENCODING 42148
SWIDTH 960 0
DWIDTH 16 0
BBX 16 16 0 -4
BITMAP
2000
11FE
0802
4002
2002
1002
0002
09FE
0902
1100
1100
2100
2100
4101
4101
00FF
ENDCHAR

STARTCHAR A4A5
ENCODING 42149
SWIDTH 960 0
DWIDTH 16 0
BBX 16 16 0 -4
BITMAP
0000
23FE
1004
0008
4010
2020
0020
17FF
1020
1020
2020
2020
2020
4020
4020
00E0
ENDCHAR

STARTCHAR A4A6
ENCODING 42150
SWIDTH 960 0
DWIDTH 16 0
BBX 16 16 0 -4
BITMAP
1000
13FF
1010
1010
5410
5410
5810
1010
1010
1010
1010
2810
2410
2410
4010
4070
ENDCHAR

STARTCHAR A4A7
ENCODING 42151
SWIDTH 960 0
DWIDTH 16 0
BBX 16 16 0 -4
BITMAP
0402
0402
0422
04A2
44A2
2522
2622
1422
0422
0422
0422
0A22
0922
1082
2082
400E
ENDCHAR

STARTCHAR A4A8
ENCODING 42152
SWIDTH 960 0
DWIDTH 16 0
BBX 16 16 0 -4
BITMAP
0080
1084
0888
0890
0160
0618
1806
6001
0420
0420
0420
0420
0821
0821
1021
201F
ENDCHAR

STARTCHAR A4A9
ENCODING 42153
SWIDTH 960 0
DWIDTH 16 0
BBX 16 16 0 -4
BITMAP
0000
3FFF
2000
2040
2040
2844
2448
2250
2240
20A0
20A0
2110
2110
4208
4404
1803
ENDCHAR

STARTCHAR A4AA
ENCODING 42154
SWIDTH 960 0
DWIDTH 16 0
BBX 16 16 0 -4
BITMAP
0000
1FFC
1004
1084
1084
1494
1494
12A4
12C4
1084
1145
1145
2225
2223
4411
0808
ENDCHAR

STARTCHAR A4AB
ENCODING 42155
SWIDTH 960 0
DWIDTH 16 0
BBX 16 16 0 -4
BITMAP
0800
0800
0FFF
1001
1081
2081
4089
0891
04A1
0482
014C
0140
0220
0410
080C
3003
ENDCHAR

STARTCHAR A4AC
ENCODING 42156
SWIDTH 960 0
DWIDTH 16 0
BBX 16 16 0 -4
BITMAP
0040
4440
2840
1040
2BFC
4844
0844
0944
18C4
2864
4854
0844
0885
0885
0905
3203
ENDCHAR

STARTCHAR A4AD
ENCODING 42157
SWIDTH 960 0
DWIDTH 16 0
BBX 16 16 0 -4
BITMAP
0008
4408
2808
1008
29FF
4808
0808
0818
1828
2848
4888
0908
0A08
0808
0808
7038
ENDCHAR

STARTCHAR A4AE
ENCODING 42158
SWIDTH 960 0
DWIDTH 16 0
BBX 16 16 0 -4
BITMAP
0000
0010
7C10
1010
1010
1020
7C20
1020
1040
1040
1044
1E82
7082
011D
01E1
0001
ENDCHAR

STARTCHAR A4AF
ENCODING 42159
SWIDTH 960 0
DWIDTH 16 0
BBX 16 16 0 -4
BITMAP
0020
0020
7C20
1020
13FE
1022
7C22
1022
1022
1022
1042
1E42
7082
0082
0104
0218
ENDCHAR

STARTCHAR A4B0
ENCODING 42160
SWIDTH 960 0
DWIDTH 16 0
BBX 16 16 0 -4
BITMAP
0020
0020
7F20
0820
0830
0828
3E24
0822
0821
0820
0820
0F20
7820
0020
0020
0020
ENDCHAR

STARTCHAR A4B1
ENCODING 42161
SWIDTH 960 0
DWIDTH 16 0
BBX 16 16 0 -4
BITMAP
0002
0002
7F22
0822
0822
0822
0822
3E22
0822
0822
0822
0822
0F22
7802
0002
000E
ENDCHAR

STARTCHAR A4B2
ENCODING 42162
SWIDTH 960 0
DWIDTH 16 0
BBX 16 16 0 -4
BITMAP
0000
7FFF
0200
0220
0410
0408
0808
1000
2FFC
4804
0804
0804
0804
0804
0FFC
0804
ENDCHAR

STARTCHAR A4B3
ENCODING 42163
SWIDTH 960 0
DWIDTH 16 0
BBX 16 16 0 -4
BITMAP
1020
0820
0820
7F20
0220
0420
0820
0820
1C20
2A20
4920
0820
0821
0821
0821
081F
ENDCHAR

STARTCHAR A4B4
ENCODING 42164
SWIDTH 960 0
DWIDTH 16 0
BBX 16 16 0 -4
BITMAP
0100
0080
0080
3FFE
0808
0410
0410
0220
7FFF
0080
0080
0080
0080
0080
0080
0080
ENDCHAR

STARTCHAR A4B5
ENCODING 42165
SWIDTH 960 0
DWIDTH 16 0
BBX 16 16 0 -4
BITMAP
0040
3C40
2440
2440
25F8
3448
2C48
2448
2448
2C48
3448
2449
2449
2489
4487
4D00
ENDCHAR

STARTCHAR A4B6
ENCODING 42166
SWIDTH 960 0
DWIDTH 16 0
BBX 16 16 0 -4
BITMAP
0000
2000
3FFF
4001
4002
0FF8
0808
0B08
08C8
0808
0838
08C8
1708
1008
2008
4038
ENDCHAR

STARTCHAR A4B7
ENCODING 42167
SWIDTH 960 0
DWIDTH 16 0
BBX 16 16 0 -4
BITMAP
0808
0808
7F7F
0808
0808
0000
7FFF
0200
0400
07FC
0004
0004
0004
0004
0008
0070
ENDCHAR

STARTCHAR A4B8
ENCODING 42168
SWIDTH 960 0
DWIDTH 16 0
BBX 16 16 0 -4
BITMAP
0808
0808
7F7F
0808
0808
0100
0100
7FFE
0102
0102
0202
0202
0402
0802
1004
6038
ENDCHAR

STARTCHAR A4B9
ENCODING 42169
SWIDTH 960 0
DWIDTH 16 0
BBX 16 16 0 -4
BITMAP
0808
0808
7F7F
0808
0808
0080
0040
0040
0220
0220
0410
0410
0808
0804
1002
2001
ENDCHAR

STARTCHAR A4BA
ENCODING 42170
SWIDTH 960 0
DWIDTH 16 0
BBX 16 16 0 -4
BITMAP
0080
0080
0080
3FFE
0080
0080
0080
7FFF
0000
180C
0430
00C0
0300
0400
1B80
207F
ENDCHAR

STARTCHAR A4BB
ENCODING 42171
SWIDTH 960 0
DWIDTH 16 0
BBX 16 16 0 -4
BITMAP
0000
2040
1040
0840
03FE
7042
1042
1042
2082
7082
1102
1204
1418
2000
5800
07FF
ENDCHAR

STARTCHAR A4BC
ENCODING 42172
SWIDTH 960 0
DWIDTH 16 0
BBX 16 16 0 -4
BITMAP
0800
083F
0821
4921
4922
4924
4922
4921
4921
4921
4921
4921
7F2E
4120
0020
0020
ENDCHAR

STARTCHAR A4BD
ENCODING 42173
SWIDTH 960 0
DWIDTH 16 0
BBX 16 16 0 -4
BITMAP
1000
103F
1121
1122
7FA4
1128
1124
2122
2121
4221
2221
1421
0826
1420
2220
4120
ENDCHAR

STARTCHAR A4BE
ENCODING 42174
SWIDTH 960 0
DWIDTH 16 0
BBX 16 16 0 -4
BITMAP
0000
7CFE
4402
4804
4808
5010
4810
49FF
4410
4410
4410
5810
4010
4010
4010
4070
ENDCHAR

STARTCHAR A4BF
ENCODING 42175
SWIDTH 960 0
DWIDTH 16 0
BBX 16 16 0 -4
BITMAP
0000
7FFF
0220
0220
0220
3FFE
2222
2222
2522
2552
284A
288A
308A
2102
2002
2006
ENDCHAR

STARTCHAR A4C0
ENCODING 42176
SWIDTH 960 0
DWIDTH 16 0
BBX 16 16 0 -4
BITMAP
0390
3C10
0410
0410
0410
7FD0
0410
0410
0410
3F90
2090
2090
2091
2091
3F91
208F
ENDCHAR

STARTCHAR A4C1
ENCODING 42177
SWIDTH 960 0
DWIDTH 16 0
BBX 16 16 0 -4
BITMAP
0000
03FC
0204
0204
7A04
0204
0204
03FC
0294
0090
0090
7910
0111
0211
0411
080F
ENDCHAR

STARTCHAR A4C2
ENCODING 42178
SWIDTH 960 0
DWIDTH 16 0
BBX 16 16 0 -4
BITMAP
0000
3FFE
0220
0220
0220
3FFE
2222
2222
2222
3FFE
2222
0220
0220
0220
7FFF
0000
ENDCHAR

STARTCHAR A4C3
ENCODING 42179
SWIDTH 960 0
DWIDTH 16 0
BBX 16 16 0 -4
BITMAP
0820
0820
1020
13FE
2020
3020
5020
57FF
1020
1070
10A8
1124
1222
1421
1020
1020
ENDCHAR

STARTCHAR A4C4
ENCODING 42180
SWIDTH 960 0
DWIDTH 16 0
BBX 16 16 0 -4
BITMAP
0810
0810
11FF
1111
2111
3112
5110
51FE
1142
1142
1144
1128
1210
1228
1444
1183
ENDCHAR

STARTCHAR A4C5
ENCODING 42181
SWIDTH 960 0
DWIDTH 16 0
BBX 16 16 0 -4
BITMAP
0800
09FC
1104
1104
2104
31FC
5104
5104
1104
11FC
1104
1104
1104
1104
17FF
1000
ENDCHAR

STARTCHAR A4C6
ENCODING 42182
SWIDTH 960 0
DWIDTH 16 0
BBX 16 16 0 -4
BITMAP
0820
0820
1020
1020
23FE
3222
5222
5222
1222
13FE
1222
1222
1222
1222
13FE
1202
ENDCHAR

STARTCHAR A4C7
ENCODING 42183
SWIDTH 960 0
DWIDTH 16 0
BBX 16 16 0 -4
BITMAP
0888
0888
1088
1108
213F
3229
5149
50C9
1089
1109
1109
1249
14C9
1729
1011
1026
ENDCHAR

STARTCHAR A4C8
ENCODING 42184
SWIDTH 960 0
DWIDTH 16 0
BBX 16 16 0 -4
BITMAP
0800
09FF
1101
1101
21FF
3100
5120
5120
1120
113F
1120
1120
1221
1221
141F
1000
ENDCHAR

STARTCHAR A4C9
ENCODING 42185
SWIDTH 960 0
DWIDTH 16 0
BBX 16 16 0 -4
BITMAP
0800
0BFE
1020
1020
2020
3020
5120
513E
1120
1120
1120
1120
1120
1120
17FF
1000
ENDCHAR

STARTCHAR A4CA
ENCODING 42186
SWIDTH 960 0
DWIDTH 16 0
BBX 16 16 0 -4
BITMAP
0800
0BFE
1020
1020
2020
33FE
5222
5252
1252
128A
1286
1302
1202
1202
1202
120E
ENDCHAR

STARTCHAR A4CB
ENCODING 42187
SWIDTH 960 0
DWIDTH 16 0
BBX 16 16 0 -4
BITMAP
0904
0904
1104
1104
27FF
3104
5104
5104
1104
11FC
1104
1104
1104
1104
11FC
1104
ENDCHAR

STARTCHAR A4CC
ENCODING 42188
SWIDTH 960 0
DWIDTH 16 0
BBX 16 16 0 -4
BITMAP
0800
09FE
1022
1022
2042
3042
5082
510C
1200
11FE
1102
1102
1102
1102
11FE
1102
ENDCHAR

STARTCHAR A4CD
ENCODING 42189
SWIDTH 960 0
DWIDTH 16 0
BBX 16 16 0 -4
BITMAP
0800
09FC
1104
1144
2124
3124
5104
57FF
1204
1244
1224
1224
1204
13FF
1004
1018
ENDCHAR

STARTCHAR A4CE
ENCODING 42190
SWIDTH 960 0
DWIDTH 16 0
BBX 16 16 0 -4
BITMAP
0800
09FE
1102
1102
2102
31FE
5100
5100
1100
11FE
1102
1102
1102
1102
11FE
1100
ENDCHAR

STARTCHAR A4CF
ENCODING 42191
SWIDTH 960 0
DWIDTH 16 0
BBX 16 16 0 -4
BITMAP
0800
0800
13FF
1249
2249
3249
5249
5249
1249
1249
1287
1301
1201
1201
13FF
1000
ENDCHAR

STARTCHAR A4D0
ENCODING 42192
SWIDTH 960 0
DWIDTH 16 0
BBX 16 16 0 -4
BITMAP
0820
0820
1050
1088
2084
3122
5221
5420
1020
1128
1124
1222
1221
1420
1020
10E0
ENDCHAR

STARTCHAR A4D1
ENCODING 42193
SWIDTH 960 0
DWIDTH 16 0
BBX 16 16 0 -4
BITMAP
0810
0420
0240
1FF8
1008
1008
1008
1008
1FF8
0420
0420
0820
0822
1022
2022
401E
ENDCHAR

STARTCHAR A4D2
ENCODING 42194
SWIDTH 960 0
DWIDTH 16 0
BBX 16 16 0 -4
BITMAP
0000
1FF8
0408
0408
0870
1000
3FFC
1084
1084
1FFC
0140
0240
0440
0842
1042
603E
ENDCHAR

STARTCHAR A4D3
ENCODING 42195
SWIDTH 960 0
DWIDTH 16 0
BBX 16 16 0 -4
BITMAP
0000
11FC
1104
1104
11FC
1104
1104
11FC
1104
0000
0220
0220
0222
0422
0822
301E
ENDCHAR

STARTCHAR A4D4
ENCODING 42196
SWIDTH 960 0
DWIDTH 16 0
BBX 16 16 0 -4
BITMAP
007C
1F80
0080
0080
1FFC
1084
1084
1084
1FFC
0120
0128
0224
0224
0421
0821
301F
ENDCHAR

STARTCHAR A4D5
ENCODING 42197
SWIDTH 960 0
DWIDTH 16 0
BBX 16 16 0 -4
BITMAP
0000
3FFE
2082
2082
28A2
2492
2492
2492
2AAA
2AAA
29A6
28A2
30C2
2082
2082
2086
ENDCHAR

STARTCHAR A4D6
ENCODING 42198
SWIDTH 960 0
DWIDTH 16 0
BBX 16 16 0 -4
BITMAP
0000
1FFC
1004
1084
1084
1084
1144
1124
1214
1414
1004
7FFF
0000
0808
1004
2002
ENDCHAR

STARTCHAR A4D7
ENCODING 42199
SWIDTH 960 0
DWIDTH 16 0
BBX 16 16 0 -4
BITMAP
0000
2000
3FFF
4001
4002
0FF8
0808
0808
0FF8
0808
0808
0FF8
0808
0808
7FFF
0000
ENDCHAR

STARTCHAR A4D8
ENCODING 42200
SWIDTH 960 0
DWIDTH 16 0
BBX 16 16 0 -4
BITMAP
0000
07FF
4040
2040
2040
0080
0080
11FE
1302
1502
2902
2102
2102
4102
41FE
0102
ENDCHAR

STARTCHAR A4D9
ENCODING 42201
SWIDTH 960 0
DWIDTH 16 0
BBX 16 16 0 -4
BITMAP
0000
03FC
4204
2204
2204
0204
0204
13FC
1294
1090
2090
2090
2110
4211
4411
180F
ENDCHAR

STARTCHAR A4DA
ENCODING 42202
SWIDTH 960 0
DWIDTH 16 0
BBX 16 16 0 -4
BITMAP
0020
0020
4222
2122
2124
0020
03FE
1020
1020
1020
27FF
2020
2020
4020
4020
0020
ENDCHAR

STARTCHAR A4DB
ENCODING 42203
SWIDTH 960 0
DWIDTH 16 0
BBX 16 16 0 -4
BITMAP
0000
1FFC
1004
1004
17F4
1004
1004
13E4
1224
1224
13E4
1225
2225
23E3
4221
0000
ENDCHAR

STARTCHAR A4DC
ENCODING 42204
SWIDTH 960 0
DWIDTH 16 0
BBX 16 16 0 -4
BITMAP
0000
0801
0811
1011
1111
2091
2391
7C51
0011
3F91
2091
2091
2081
2081
3F81
2087
ENDCHAR

STARTCHAR A4DD
ENCODING 42205
SWIDTH 960 0
DWIDTH 16 0
BBX 16 16 0 -4
BITMAP
0800
0800
08FF
3E11
0811
0811
0811
0811
7F11
1021
1021
2421
2241
4E42
7282
010C
ENDCHAR

STARTCHAR A4DE
ENCODING 42206
SWIDTH 960 0
DWIDTH 16 0
BBX 16 16 0 -4
BITMAP
0402
0402
0422
1F22
0422
0422
0422
0422
7FA2
0822
0822
1222
1102
2682
7882
000E
ENDCHAR

STARTCHAR A4DF
ENCODING 42207
SWIDTH 960 0
DWIDTH 16 0
BBX 16 16 0 -4
BITMAP
0002
7F02
0922
0922
1122
1122
2122
4622
0022
3F22
2122
2122
2102
2102
3F02
210E
ENDCHAR

STARTCHAR A4E0
ENCODING 42208
SWIDTH 960 0
DWIDTH 16 0
BBX 16 16 0 -4
BITMAP
0000
3F81
2091
2091
2091
3F91
0811
0811
7F91
0891
0891
0891
1081
1081
2101
4606
ENDCHAR

STARTCHAR A4E1
ENCODING 42209
SWIDTH 960 0
DWIDTH 16 0
BBX 16 16 0 -4
BITMAP
0000
3DE1
2525
2525
2525
2525
2525
7FF5
2525
2525
2525
2525
2521
2521
2521
2D63
ENDCHAR

STARTCHAR A4E2
ENCODING 42210
SWIDTH 960 0
DWIDTH 16 0
BBX 16 16 0 -4
BITMAP
0102
2084
1088
1010
0000
7FFF
4101
4102
0100
1FFC
0204
0204
0404
0804
1008
2030
ENDCHAR

STARTCHAR A4E3
ENCODING 42211
SWIDTH 960 0
DWIDTH 16 0
BBX 16 16 0 -4
BITMAP
0410
0410
7FFF
0410
0410
2000
3FFF
4101
4102
0100
1FFC
0204
0404
0804
1008
2030
ENDCHAR

STARTCHAR A4E4
ENCODING 42212
SWIDTH 960 0
DWIDTH 16 0
BBX 16 16 0 -4
BITMAP
0810
0810
4910
4910
497F
4911
7F11
0811
4911
4911
4911
4911
4921
7F21
4141
0086
ENDCHAR

STARTCHAR A4E5
ENCODING 42213
SWIDTH 960 0
DWIDTH 16 0
BBX 16 16 0 -4
BITMAP
3FFE
2000
2080
2108
2234
27C4
2000
2110
2110
2FFE
2110
2110
2210
2410
2000
3FFF
ENDCHAR

STARTCHAR A4E6
ENCODING 42214
SWIDTH 960 0
DWIDTH 16 0
BBX 16 16 0 -4
BITMAP
0000
7FFF
2200
2200
23FC
2440
2840
2040
2FFE
2080
2118
2204
2C02
2000
1FFF
0000
ENDCHAR

STARTCHAR A4E7
ENCODING 42215
SWIDTH 960 0
DWIDTH 16 0
BBX 16 16 0 -4
BITMAP
0400
041F
0411
3F91
0411
0411
0411
0411
7FD1
0811
0811
1211
1117
2690
7890
0010
ENDCHAR

STARTCHAR A4E8
ENCODING 42216
SWIDTH 960 0
DWIDTH 16 0
BBX 16 16 0 -4
BITMAP
0000
3FFF
2000
2080
2040
2FFE
2000
2004
2404
2208
2108
2110
2090
40A0
5FFF
0000
ENDCHAR

STARTCHAR A4E9
ENCODING 42217
SWIDTH 960 0
DWIDTH 16 0
BBX 16 16 0 -4
BITMAP
0000
3FFF
2040
2040
2040
2FFE
2040
2040
2040
27FC
2404
2404
2404
4404
47FC
0404
ENDCHAR

STARTCHAR A4EA
ENCODING 42218
SWIDTH 960 0
DWIDTH 16 0
BBX 16 16 0 -4
BITMAP
0000
3FFF
2000
2000
2FFE
2842
2842
2FFE
2842
2842
2FFE
2040
2040
4040
4040
0040
ENDCHAR

STARTCHAR A4EB
ENCODING 42219
SWIDTH 960 0
DWIDTH 16 0
BBX 16 16 0 -4
BITMAP
0040
0020
7820
4BFF
4840
4840
487E
4842
4842
4842
7842
4882
0082
0102
0204
0C18
ENDCHAR

STARTCHAR A4EC
ENCODING 42220
SWIDTH 960 0
DWIDTH 16 0
BBX 16 16 0 -4
BITMAP
0020
0020
7BFE
4820
4820
4820
49FC
4820
4820
4820
7FFF
4820
0020
0020
0020
0020
ENDCHAR

STARTCHAR A4ED
ENCODING 42221
SWIDTH 960 0
DWIDTH 16 0
BBX 16 16 0 -4
BITMAP
0000
01FE
7800
4800
4800
4800
4BFF
4820
4820
4840
7844
4882
0082
011F
03E1
0001
ENDCHAR

STARTCHAR A4EE
ENCODING 42222
SWIDTH 960 0
DWIDTH 16 0
BBX 16 16 0 -4
BITMAP
0020
0020
7820
4820
4BFE
4820
4870
48A8
48A8
4924
7924
4A22
0421
0020
0020
0020
ENDCHAR

STARTCHAR A4EF
ENCODING 42223
SWIDTH 960 0
DWIDTH 16 0
BBX 16 16 0 -4
BITMAP
0020
0024
7822
4822
4820
4BFF
4820
4820
4850
4850
7890
4890
0111
0211
0411
080F
ENDCHAR

STARTCHAR A4F0
ENCODING 42224
SWIDTH 960 0
DWIDTH 16 0
BBX 16 16 0 -4
BITMAP
0000
00F8
7888
4888
4888
490F
4A00
49FC
4804
4888
7848
4850
0020
0050
008C
0303
ENDCHAR

STARTCHAR A4F1
ENCODING 42225
SWIDTH 960 0
DWIDTH 16 0
BBX 16 16 0 -4
BITMAP
0010
0008
7848
4844
4884
4882
4902
4A21
4820
4840
7840
4884
0082
010F
01F1
0000
ENDCHAR

STARTCHAR A4F2
ENCODING 42226
SWIDTH 960 0
DWIDTH 16 0
BBX 16 16 0 -4
BITMAP
0100
0080
0080
3FFE
2082
2142
2222
2412
280A
27F2
2412
2412
2412
27F2
2002
200E
ENDCHAR

STARTCHAR A4F3
ENCODING 42227
SWIDTH 960 0
DWIDTH 16 0
BBX 16 16 0 -4
BITMAP
3FF8
0408
0410
083F
0801
1081
208E
4080
3FFE
0080
0080
1FFC
1004
1004
1FFC
1004
ENDCHAR

STARTCHAR A4F4
ENCODING 42228
SWIDTH 960 0
DWIDTH 16 0
BBX 16 16 0 -4
BITMAP
0004
0004
7C44
4424
4414
4404
4484
4444
4424
4404
7C04
45FF
0004
0004
0004
0004
ENDCHAR

STARTCHAR A4F5
ENCODING 42229
SWIDTH 960 0
DWIDTH 16 0
BBX 16 16 0 -4
BITMAP
0020
0010
7808
4840
4840
4840
4840
4942
4942
4941
7A41
4241
0244
0044
003C
0000
ENDCHAR

STARTCHAR A4F6
ENCODING 42230
SWIDTH 960 0
DWIDTH 16 0
BBX 16 16 0 -4
BITMAP
0000
01FE
7822
4822
4822
4BFF
4822
4822
4822
49FE
7822
4840
0040
0080
0100
0200
ENDCHAR

STARTCHAR A4F7
ENCODING 42231
SWIDTH 960 0
DWIDTH 16 0
BBX 16 16 0 -4
BITMAP
0000
01F2
7812
4812
4812
49F2
4902
4902
4A02
4BF2
7812
4812
0012
0012
0022
01C2
ENDCHAR

STARTCHAR A4F8
ENCODING 42232
SWIDTH 960 0
DWIDTH 16 0
BBX 16 16 0 -4
BITMAP
0020
0020
7820
49FC
4820
4820
4820
4BFE
4820
4850
7850
4888
0088
0104
0202
0401
ENDCHAR

STARTCHAR A4F9
ENCODING 42233
SWIDTH 960 0
DWIDTH 16 0
BBX 16 16 0 -4
BITMAP
0108
0108
7908
4908
4908
49EF
4908
4908
4908
4908
7908
4908
0108
0129
0149
0187
ENDCHAR

STARTCHAR A4FA
ENCODING 42234
SWIDTH 960 0
DWIDTH 16 0
BBX 16 16 0 -4
BITMAP
0000
0101
7901
4905
4945
4925
4929
4911
4929
4945
7983
4901
0101
01FF
0101
0000
ENDCHAR

STARTCHAR A4FB
ENCODING 42235
SWIDTH 960 0
DWIDTH 16 0
BBX 16 16 0 -4
BITMAP
0000
1FFC
1004
1004
1FFC
0000
0000
1FFC
0080
0080
7FFF
0140
0220
0410
080C
3003
ENDCHAR

STARTCHAR A4FC
ENCODING 42236
SWIDTH 960 0
DWIDTH 16 0
BBX 16 16 0 -4
BITMAP
0000
0FF8
0808
0808
0808
0FF8
0400
0800
1FFC
0004
0008
7FFF
0400
0818
1004
2002
ENDCHAR

STARTCHAR A4FD
ENCODING 42237
SWIDTH 960 0
DWIDTH 16 0
BBX 16 16 0 -4
BITMAP
0020
0020
0020
7BFE
4A22
4A22
4A52
4A52
4A8A
4A8A
7B06
4A02
4202
0202
0202
020E
ENDCHAR

STARTCHAR A4FE
ENCODING 42238
SWIDTH 960 0
DWIDTH 16 0
BBX 16 16 0 -4
BITMAP
0000
0480
0440
2444
2402
4409
4409
03F8
0000
0000
1FFC
1004
1004
1004
1FFC
1004
ENDCHAR

STARTCHAR A5A1
ENCODING 42401
SWIDTH 960 0
DWIDTH 16 0
BBX 16 16 0 -4
BITMAP
0080
0880
0880
0FFC
1080
2080
0080
7FFF
0080
0080
1FFC
1004
1004
1004
1FFC
1004
ENDCHAR

STARTCHAR A5A2
ENCODING 42402
SWIDTH 960 0
DWIDTH 16 0
BBX 16 16 0 -4
BITMAP
007C
1F80
0080
0080
7FFF
0140
0220
0410
180C
6003
0FF8
0808
0808
0808
0FF8
0808
ENDCHAR

STARTCHAR A5A3
ENCODING 42403
SWIDTH 960 0
DWIDTH 16 0
BBX 16 16 0 -4
BITMAP
0040
0040
7C40
447F
4484
4484
4484
4544
4444
4428
7C28
4410
0028
0044
0082
0101
ENDCHAR

STARTCHAR A5A4
ENCODING 42404
SWIDTH 960 0
DWIDTH 16 0
BBX 16 16 0 -4
BITMAP
001C
01E0
1E00
1000
1FFF
1001
1001
1FFF
1000
1000
17FE
1402
2402
2402
47FE
0402
ENDCHAR

STARTCHAR A5A5
ENCODING 42405
SWIDTH 960 0
DWIDTH 16 0
BBX 16 16 0 -4
BITMAP
0000
01FE
7C20
4420
4420
4420
45FC
4444
4444
4444
7C44
4444
0044
0044
03FF
0000
ENDCHAR

STARTCHAR A5A6
ENCODING 42406
SWIDTH 960 0
DWIDTH 16 0
BBX 16 16 0 -4
BITMAP
0000
3FFE
2002
2002
27F2
2002
2002
2FFA
2102
2222
2412
2FEA
200A
2002
3FFE
2002
ENDCHAR

STARTCHAR A5A7
ENCODING 42407
SWIDTH 960 0
DWIDTH 16 0
BBX 16 16 0 -4
BITMAP
0000
3FFE
2002
2222
2222
2FFA
2222
2222
2222
3FFE
2222
2222
2422
2002
3FFE
2002
ENDCHAR

STARTCHAR A5A8
ENCODING 42408
SWIDTH 960 0
DWIDTH 16 0
BBX 16 16 0 -4
BITMAP
0000
3FFE
2042
212A
28AA
2492
2222
2142
2082
2142
2222
2412
280A
2002
3FFE
2002
ENDCHAR

STARTCHAR A5A9
ENCODING 42409
SWIDTH 960 0
DWIDTH 16 0
BBX 16 16 0 -4
BITMAP
0000
3FFE
2002
2002
2FFA
2082
2082
27F2
2082
2082
2082
2FFA
2002
2002
3FFE
2002
ENDCHAR

STARTCHAR A5AA
ENCODING 42410
SWIDTH 960 0
DWIDTH 16 0
BBX 16 16 0 -4
BITMAP
0000
3FFE
2002
2002
27F2
2002
2002
3FFE
2222
2222
222A
242A
241A
2802
3FFE
2002
ENDCHAR

STARTCHAR A5AB
ENCODING 42411
SWIDTH 960 0
DWIDTH 16 0
BBX 16 16 0 -4
BITMAP
0000
3FFE
2222
2222
2222
23E2
2222
2222
2222
23E2
2222
2222
2222
2222
3FFE
2002
ENDCHAR

STARTCHAR A5AC
ENCODING 42412
SWIDTH 960 0
DWIDTH 16 0
BBX 16 16 0 -4
BITMAP
0000
3FFE
2002
2082
2092
20A2
2EC2
22A2
22A2
2492
288A
3086
2382
2002
3FFE
2002
ENDCHAR

STARTCHAR A5AD
ENCODING 42413
SWIDTH 960 0
DWIDTH 16 0
BBX 16 16 0 -4
BITMAP
1000
1000
11FF
1101
7D01
114A
1048
1048
1048
1048
1048
1C88
7089
0109
0209
0407
ENDCHAR

STARTCHAR A5AE
ENCODING 42414
SWIDTH 960 0
DWIDTH 16 0
BBX 16 16 0 -4
BITMAP
1000
11FC
1004
1088
7C50
1020
1010
13FF
1021
1022
1024
1C20
7020
0020
0020
00E0
ENDCHAR

STARTCHAR A5AF
ENCODING 42415
SWIDTH 960 0
DWIDTH 16 0
BBX 16 16 0 -4
BITMAP
1000
10F8
1088
1088
7C88
1107
1200
11FC
1004
1084
1088
1C50
7020
0050
018C
0603
ENDCHAR

STARTCHAR A5B0
ENCODING 42416
SWIDTH 960 0
DWIDTH 16 0
BBX 16 16 0 -4
BITMAP
1010
1020
1050
1088
7D04
1202
1489
1088
1088
1088
1088
1C88
7108
0108
0208
0408
ENDCHAR

STARTCHAR A5B1
ENCODING 42417
SWIDTH 960 0
DWIDTH 16 0
BBX 16 16 0 -4
BITMAP
0000
0FF8
0808
0808
0FF8
0808
0808
0FF8
0080
0080
1FFC
0080
0080
0080
7FFF
0000
ENDCHAR

STARTCHAR A5B2
ENCODING 42418
SWIDTH 960 0
DWIDTH 16 0
BBX 16 16 0 -4
BITMAP
0410
0410
3FFE
0410
0410
0410
7FFF
0810
1010
2090
0080
1FFC
0080
0080
7FFF
0000
ENDCHAR

STARTCHAR A5B3
ENCODING 42419
SWIDTH 960 0
DWIDTH 16 0
BBX 16 16 0 -4
BITMAP
0000
1FFC
0000
0000
7FFF
0220
0421
1821
601F
0080
0080
1FFC
0080
0080
7FFF
0000
ENDCHAR

STARTCHAR A5B4
ENCODING 42420
SWIDTH 960 0
DWIDTH 16 0
BBX 16 16 0 -4
BITMAP
1004
1004
1044
1024
7C14
1004
1084
1044
1024
1004
1004
1DFF
7004
0004
0004
0004
ENDCHAR

STARTCHAR A5B5
ENCODING 42421
SWIDTH 960 0
DWIDTH 16 0
BBX 16 16 0 -4
BITMAP
1020
1010
1010
13FF
7C04
1084
1084
1084
1044
1048
1028
1C10
7028
0044
0082
0301
ENDCHAR

STARTCHAR A5B6
ENCODING 42422
SWIDTH 960 0
DWIDTH 16 0
BBX 16 16 0 -4
BITMAP
1000
11FE
1000
1000
7C00
1000
13FF
1048
1048
1048
1048
1C88
7088
0109
0209
0407
ENDCHAR

STARTCHAR A5B7
ENCODING 42423
SWIDTH 960 0
DWIDTH 16 0
BBX 16 16 0 -4
BITMAP
1000
13FE
1080
1080
7C80
10FC
1084
1104
1104
1104
11FC
1C08
7008
0008
07FF
0000
ENDCHAR

STARTCHAR A5B8
ENCODING 42424
SWIDTH 960 0
DWIDTH 16 0
BBX 16 16 0 -4
BITMAP
1020
1020
1020
11FE
7C22
1022
1022
1022
13FF
1020
1020
1C48
7044
0082
0101
0201
ENDCHAR

STARTCHAR A5B9
ENCODING 42425
SWIDTH 960 0
DWIDTH 16 0
BBX 16 16 0 -4
BITMAP
1108
1108
1108
1108
7D08
11EF
1108
1108
1108
1108
1108
1D08
7109
0129
0149
0187
ENDCHAR

STARTCHAR A5BA
ENCODING 42426
SWIDTH 960 0
DWIDTH 16 0
BBX 16 16 0 -4
BITMAP
1000
101E
10F0
1020
7C20
1020
11FE
1020
1020
1020
13FF
1C20
7020
0021
0021
001F
ENDCHAR

STARTCHAR A5BB
ENCODING 42427
SWIDTH 960 0
DWIDTH 16 0
BBX 16 16 0 -4
BITMAP
1080
1080
10FF
1100
7D20
1220
1020
10FE
1022
1022
1022
1C42
7042
0082
0104
0218
ENDCHAR

STARTCHAR A5BC
ENCODING 42428
SWIDTH 960 0
DWIDTH 16 0
BBX 16 16 0 -4
BITMAP
1040
1040
1040
107F
7C84
1084
1104
1044
1044
1028
1028
1E10
7028
0044
0082
0301
ENDCHAR

STARTCHAR A5BD
ENCODING 42429
SWIDTH 960 0
DWIDTH 16 0
BBX 16 16 0 -4
BITMAP
1080
1080
1080
11FF
7D01
1221
1021
1041
1041
1091
1109
1DF5
7005
0001
0002
000C
ENDCHAR

STARTCHAR A5BE
ENCODING 42430
SWIDTH 960 0
DWIDTH 16 0
BBX 16 16 0 -4
BITMAP
1080
1080
1080
10FF
7D29
1129
1229
1049
1049
1089
1111
1C11
7021
0041
0082
000C
ENDCHAR

STARTCHAR A5BF
ENCODING 42431
SWIDTH 960 0
DWIDTH 16 0
BBX 16 16 0 -4
BITMAP
1000
1080
10BF
1081
7D21
1121
1241
1141
1081
1081
1101
1D21
72E1
0311
0002
000C
ENDCHAR

STARTCHAR A5C0
ENCODING 42432
SWIDTH 960 0
DWIDTH 16 0
BBX 16 16 0 -4
BITMAP
1000
100F
10F8
1080
7C80
10FE
1082
10A2
10A2
10A2
1114
1D14
7108
0214
0422
00C1
ENDCHAR

STARTCHAR A5C1
ENCODING 42433
SWIDTH 960 0
DWIDTH 16 0
BBX 16 16 0 -4
BITMAP
0080
0088
3ED0
02A0
0490
088C
1083
6380
0000
0080
0080
1FFC
0080
0080
7FFF
0000
ENDCHAR

STARTCHAR A5C2
ENCODING 42434
SWIDTH 960 0
DWIDTH 16 0
BBX 16 16 0 -4
BITMAP
003C
0FC8
0888
0888
0884
1084
1082
2082
4001
0080
0080
1FFC
0080
0080
7FFF
0000
ENDCHAR

STARTCHAR A5C3
ENCODING 42435
SWIDTH 960 0
DWIDTH 16 0
BBX 16 16 0 -4
BITMAP
0080
0080
3FFE
0080
0080
1FFC
0000
3FFF
4001
4802
08F0
0F00
0802
0802
07FE
0000
ENDCHAR

STARTCHAR A5C4
ENCODING 42436
SWIDTH 960 0
DWIDTH 16 0
BBX 16 16 0 -4
BITMAP
0080
0080
3FFE
0080
0080
1FFC
0000
3FFF
4001
4222
0220
0220
0422
0822
1022
601E
ENDCHAR

STARTCHAR A5C5
ENCODING 42437
SWIDTH 960 0
DWIDTH 16 0
BBX 16 16 0 -4
BITMAP
0080
0080
7FFF
0080
0080
1FFC
0000
3FFE
2082
2082
3FFE
2000
2000
2000
4000
4000
ENDCHAR

STARTCHAR A5C6
ENCODING 42438
SWIDTH 960 0
DWIDTH 16 0
BBX 16 16 0 -4
BITMAP
0200
0410
0808
3FFC
0224
0420
1820
611F
0200
0BF0
0410
0A10
3120
00C0
0338
3C07
ENDCHAR

STARTCHAR A5C7
ENCODING 42439
SWIDTH 960 0
DWIDTH 16 0
BBX 16 16 0 -4
BITMAP
0080
0080
3FFE
0080
1FFC
0080
7FFF
0200
1200
0BF0
0410
0A10
3120
00C0
0338
3C07
ENDCHAR

STARTCHAR A5C8
ENCODING 42440
SWIDTH 960 0
DWIDTH 16 0
BBX 16 16 0 -4
BITMAP
00C0
0300
0C00
3FFE
2102
2102
21FA
220A
250A
28D2
2022
20C2
2302
2002
3FFE
2002
ENDCHAR

STARTCHAR A5C9
ENCODING 42441
SWIDTH 960 0
DWIDTH 16 0
BBX 16 16 0 -4
BITMAP
0100
0100
7FFF
0220
0410
0808
1004
67F3
0000
0000
3FFE
0108
0204
043A
1FC2
0000
ENDCHAR

STARTCHAR A5CA
ENCODING 42442
SWIDTH 960 0
DWIDTH 16 0
BBX 16 16 0 -4
BITMAP
0100
0100
7FFF
0220
0410
0808
1084
6083
0080
3FFE
0080
0490
0888
1084
2082
0080
ENDCHAR

STARTCHAR A5CB
ENCODING 42443
SWIDTH 960 0
DWIDTH 16 0
BBX 16 16 0 -4
BITMAP
2020
2010
2410
7EFE
2400
2400
247C
2444
2444
4444
3444
0844
1445
2285
4105
0203
ENDCHAR

STARTCHAR A5CC
ENCODING 42444
SWIDTH 960 0
DWIDTH 16 0
BBX 16 16 0 -4
BITMAP
2044
2044
2444
7E44
25FF
2444
2444
2444
2444
45FF
3444
0844
1484
2284
4104
0204
ENDCHAR

STARTCHAR A5CD
ENCODING 42445
SWIDTH 960 0
DWIDTH 16 0
BBX 16 16 0 -4
BITMAP
2010
2014
2412
7E12
2410
24FF
2410
2410
2428
4428
3428
0848
1449
2289
4109
0207
ENDCHAR

STARTCHAR A5CE
ENCODING 42446
SWIDTH 960 0
DWIDTH 16 0
BBX 16 16 0 -4
BITMAP
2010
2010
2410
7EFE
2412
2412
2412
2412
25FF
4410
3410
0820
1424
2242
4081
0101
ENDCHAR

STARTCHAR A5CF
ENCODING 42447
SWIDTH 960 0
DWIDTH 16 0
BBX 16 16 0 -4
BITMAP
2040
2040
2440
7EFF
2481
2501
2401
24FD
2401
4401
34FD
0801
1401
2201
4002
000C
ENDCHAR

STARTCHAR A5D0
ENCODING 42448
SWIDTH 960 0
DWIDTH 16 0
BBX 16 16 0 -4
BITMAP
2000
21FE
2442
7E42
2444
2448
247F
2441
2441
44A2
34A2
0894
1508
2114
4222
00C1
ENDCHAR

STARTCHAR A5D1
ENCODING 42449
SWIDTH 960 0
DWIDTH 16 0
BBX 16 16 0 -4
BITMAP
1FFC
1004
1004
1FFC
1004
1004
1FFC
0200
0210
7FFF
0410
0410
0FA0
0070
038C
3C02
ENDCHAR

STARTCHAR A5D2
ENCODING 42450
SWIDTH 960 0
DWIDTH 16 0
BBX 16 16 0 -4
BITMAP
2000
20FE
2482
7E82
2482
25FF
2482
2482
2482
45FF
3482
0882
1482
2282
4082
008E
ENDCHAR

STARTCHAR A5D3
ENCODING 42451
SWIDTH 960 0
DWIDTH 16 0
BBX 16 16 0 -4
BITMAP
0080
1084
1084
1FFC
1084
0080
3FFE
0200
0210
7FFF
0410
0410
0FA0
0070
038C
3C02
ENDCHAR

STARTCHAR A5D4
ENCODING 42452
SWIDTH 960 0
DWIDTH 16 0
BBX 16 16 0 -4
BITMAP
2000
2000
25FF
7F01
2501
257A
2448
2448
2448
4448
3448
0848
1489
2289
4109
0207
ENDCHAR

STARTCHAR A5D5
ENCODING 42453
SWIDTH 960 0
DWIDTH 16 0
BBX 16 16 0 -4
BITMAP
2010
2010
2410
7EFF
2491
2491
2492
2410
2418
4428
3428
0848
1448
2289
4109
0207
ENDCHAR

STARTCHAR A5D6
ENCODING 42454
SWIDTH 960 0
DWIDTH 16 0
BBX 16 16 0 -4
BITMAP
2000
2000
25FF
7E08
2408
2410
2410
2424
2452
4491
3511
0810
1410
2210
4010
0010
ENDCHAR

STARTCHAR A5D7
ENCODING 42455
SWIDTH 960 0
DWIDTH 16 0
BBX 16 16 0 -4
BITMAP
2000
200E
2470
7E10
2410
2410
24FE
2410
2410
4410
35FF
0810
1410
2211
4011
000F
ENDCHAR

STARTCHAR A5D8
ENCODING 42456
SWIDTH 960 0
DWIDTH 16 0
BBX 16 16 0 -4
BITMAP
0100
0080
3FFE
0410
0220
01C0
0E38
7007
07F0
0020
0040
0080
7FFF
0080
0080
0380
ENDCHAR

STARTCHAR A5D9
ENCODING 42457
SWIDTH 960 0
DWIDTH 16 0
BBX 16 16 0 -4
BITMAP
0100
2080
3FFF
4001
4102
0080
1FFC
0008
0010
0060
0180
0600
1800
6600
01FF
0000
ENDCHAR

STARTCHAR A5DA
ENCODING 42458
SWIDTH 960 0
DWIDTH 16 0
BBX 16 16 0 -4
BITMAP
0100
2080
3FFF
4001
4102
0080
0080
3FFE
0000
0400
0410
0808
0804
1004
2002
4002
ENDCHAR

STARTCHAR A5DB
ENCODING 42459
SWIDTH 960 0
DWIDTH 16 0
BBX 16 16 0 -4
BITMAP
0100
2080
3FFF
4001
4042
0220
0410
0808
1104
2102
0200
0210
0408
08F4
1F04
0004
ENDCHAR

STARTCHAR A5DC
ENCODING 42460
SWIDTH 960 0
DWIDTH 16 0
BBX 16 16 0 -4
BITMAP
2004
1004
1004
7E04
01FF
0404
0404
4444
2424
1424
0824
1404
1204
2204
4004
001C
ENDCHAR

STARTCHAR A5DD
ENCODING 42461
SWIDTH 960 0
DWIDTH 16 0
BBX 16 16 0 -4
BITMAP
0080
0080
3FFE
0080
1FFC
0100
7FFF
0210
0410
7FFF
1010
2210
4110
0110
0010
0070
ENDCHAR

STARTCHAR A5DE
ENCODING 42462
SWIDTH 960 0
DWIDTH 16 0
BBX 16 16 0 -4
BITMAP
007C
1F80
0004
0104
1088
0890
0800
0020
0020
7FFF
0020
0820
0420
0420
0020
00E0
ENDCHAR

STARTCHAR A5DF
ENCODING 42463
SWIDTH 960 0
DWIDTH 16 0
BBX 16 16 0 -4
BITMAP
0000
7F00
12FE
1210
1210
1210
127C
1210
1210
1210
1210
12FE
1201
2201
21FF
4000
ENDCHAR

STARTCHAR A5E0
ENCODING 42464
SWIDTH 960 0
DWIDTH 16 0
BBX 16 16 0 -4
BITMAP
1010
1010
1010
5410
55FF
5511
5511
5511
5511
55FF
5511
7C10
4410
0010
0010
0010
ENDCHAR

STARTCHAR A5E1
ENCODING 42465
SWIDTH 960 0
DWIDTH 16 0
BBX 16 16 0 -4
BITMAP
1000
10FE
1082
5482
5482
54FE
5482
5482
5482
54FE
5482
7C82
4502
0102
0202
040E
ENDCHAR

STARTCHAR A5E2
ENCODING 42466
SWIDTH 960 0
DWIDTH 16 0
BBX 16 16 0 -4
BITMAP
1030
1008
1008
5484
5484
5502
5601
55FC
5444
5444
5444
7C44
4484
0084
0108
0230
ENDCHAR

STARTCHAR A5E3
ENCODING 42467
SWIDTH 960 0
DWIDTH 16 0
BBX 16 16 0 -4
BITMAP
0080
2082
2082
3FFE
2002
0000
3FFE
2082
2082
3FFE
2000
2000
2001
2001
1FFF
0000
ENDCHAR

STARTCHAR A5E4
ENCODING 42468
SWIDTH 960 0
DWIDTH 16 0
BBX 16 16 0 -4
BITMAP
0080
2082
2082
3FFE
2002
0100
0080
7FFF
0808
0408
0210
0120
00C0
0330
0C0C
3003
ENDCHAR

STARTCHAR A5E5
ENCODING 42469
SWIDTH 960 0
DWIDTH 16 0
BBX 16 16 0 -4
BITMAP
1020
1010
1010
55FF
5402
5442
5442
5442
5444
5424
5428
7C10
4428
0044
0082
0301
ENDCHAR

STARTCHAR A5E6
ENCODING 42470
SWIDTH 960 0
DWIDTH 16 0
BBX 16 16 0 -4
BITMAP
1000
10FF
1080
5480
5480
54FE
5482
54A2
54A2
54A2
5494
7D14
4508
0114
0222
04C1
ENDCHAR

STARTCHAR A5E7
ENCODING 42471
SWIDTH 960 0
DWIDTH 16 0
BBX 16 16 0 -4
BITMAP
007E
1F80
1000
1000
1FFF
1000
1000
13FE
1222
1222
13FE
1200
2201
2201
4201
01FF
ENDCHAR

STARTCHAR A5E8
ENCODING 42472
SWIDTH 960 0
DWIDTH 16 0
BBX 16 16 0 -4
BITMAP
1030
1008
1008
7C84
5484
5502
5601
55FC
5444
5444
5444
5444
1084
1084
1108
1230
ENDCHAR

STARTCHAR A5E9
ENCODING 42473
SWIDTH 960 0
DWIDTH 16 0
BBX 16 16 0 -4
BITMAP
1008
1010
1028
7C44
5482
5501
5444
5444
5444
5444
5444
5444
1084
1084
1104
1204
ENDCHAR

STARTCHAR A5EA
ENCODING 42474
SWIDTH 960 0
DWIDTH 16 0
BBX 16 16 0 -4
BITMAP
0100
0100
1FE8
0110
0120
7FFF
0100
0680
1880
6FF8
0888
0888
0888
0898
0080
0080
ENDCHAR

STARTCHAR A5EB
ENCODING 42475
SWIDTH 960 0
DWIDTH 16 0
BBX 16 16 0 -4
BITMAP
003C
3FC0
2040
3FFE
2040
2020
2312
2C0A
3086
0082
1FFC
1084
1084
108C
0080
0080
ENDCHAR

STARTCHAR A5EC
ENCODING 42476
SWIDTH 960 0
DWIDTH 16 0
BBX 16 16 0 -4
BITMAP
0100
0080
3FFF
2000
2090
2088
2080
2FFE
2080
2084
2088
2050
2020
40D2
430A
0C06
ENDCHAR

STARTCHAR A5ED
ENCODING 42477
SWIDTH 960 0
DWIDTH 16 0
BBX 16 16 0 -4
BITMAP
0100
0080
3FFF
2000
2040
2040
2040
27FC
2040
2040
2048
2044
2044
4040
4FFE
0000
ENDCHAR

STARTCHAR A5EE
ENCODING 42478
SWIDTH 960 0
DWIDTH 16 0
BBX 16 16 0 -4
BITMAP
0080
0040
3FFF
2000
203C
27C0
2400
27FE
2402
2402
27FE
2400
2400
4400
4800
1000
ENDCHAR

STARTCHAR A5EF
ENCODING 42479
SWIDTH 960 0
DWIDTH 16 0
BBX 16 16 0 -4
BITMAP
0100
0080
7FFF
0200
0408
0804
107A
3F82
0000
0410
0410
7FFF
0410
0810
1010
6010
ENDCHAR

STARTCHAR A5F0
ENCODING 42480
SWIDTH 960 0
DWIDTH 16 0
BBX 16 16 0 -4
BITMAP
0020
7820
0820
0820
0BFF
3820
2020
4048
7848
4850
0890
08A2
0921
0947
0A79
3001
ENDCHAR

STARTCHAR A5F1
ENCODING 42481
SWIDTH 960 0
DWIDTH 16 0
BBX 16 16 0 -4
BITMAP
0040
7C40
047F
0491
0491
3C91
2112
4010
7C10
4428
0428
0444
0444
0482
0502
3A01
ENDCHAR

STARTCHAR A5F2
ENCODING 42482
SWIDTH 960 0
DWIDTH 16 0
BBX 16 16 0 -4
BITMAP
1000
0800
0808
7F10
0020
0244
2208
2210
2220
1442
1404
0818
1460
2200
4180
007F
ENDCHAR

STARTCHAR A5F3
ENCODING 42483
SWIDTH 960 0
DWIDTH 16 0
BBX 16 16 0 -4
BITMAP
1040
1020
1010
5880
5480
5480
5080
1084
1282
1282
1281
1481
1489
1088
1078
1000
ENDCHAR

STARTCHAR A5F4
ENCODING 42484
SWIDTH 960 0
DWIDTH 16 0
BBX 16 16 0 -4
BITMAP
1028
1024
1022
5820
55FE
5420
5020
1020
1050
1050
1050
1090
1090
1111
1211
140F
ENDCHAR

STARTCHAR A5F5
ENCODING 42485
SWIDTH 960 0
DWIDTH 16 0
BBX 16 16 0 -4
BITMAP
1040
107F
1080
5880
557E
5400
5000
10FE
1002
100C
1030
1040
1080
1101
1101
10FF
ENDCHAR

STARTCHAR A5F6
ENCODING 42486
SWIDTH 960 0
DWIDTH 16 0
BBX 16 16 0 -4
BITMAP
1008
1010
1028
5844
5482
5501
5044
1044
1044
1044
1044
1044
1084
1084
1104
1204
ENDCHAR

STARTCHAR A5F7
ENCODING 42487
SWIDTH 960 0
DWIDTH 16 0
BBX 16 16 0 -4
BITMAP
0080
0040
3FFF
2000
2000
2040
2020
2110
2100
2104
2502
2501
2905
4904
40FC
0000
ENDCHAR

STARTCHAR A5F8
ENCODING 42488
SWIDTH 960 0
DWIDTH 16 0
BBX 16 16 0 -4
BITMAP
007C
1F80
0080
0080
7FFF
0080
0080
0080
0000
0480
0440
2444
2402
2409
4409
03F8
ENDCHAR

STARTCHAR A5F9
ENCODING 42489
SWIDTH 960 0
DWIDTH 16 0
BBX 16 16 0 -4
BITMAP
1040
1020
1020
5BFF
5440
5440
5040
107E
1042
1042
1082
1082
1102
1102
1204
1418
ENDCHAR

STARTCHAR A5FA
ENCODING 42490
SWIDTH 960 0
DWIDTH 16 0
BBX 16 16 0 -4
BITMAP
1040
1020
1020
5BFE
5400
5400
50F8
1088
1088
1088
1088
1088
1109
1109
1209
1407
ENDCHAR

STARTCHAR A5FB
ENCODING 42491
SWIDTH 960 0
DWIDTH 16 0
BBX 16 16 0 -4
BITMAP
1040
1020
1020
5BFF
5404
5484
5084
1084
1088
1048
1050
1020
1050
1088
1104
1603
ENDCHAR

STARTCHAR A5FC
ENCODING 42492
SWIDTH 960 0
DWIDTH 16 0
BBX 16 16 0 -4
BITMAP
1000
10FE
1002
5844
5428
5410
5008
11FF
1011
1011
1012
1010
1010
1010
1010
1070
ENDCHAR

STARTCHAR A5FD
ENCODING 42493
SWIDTH 960 0
DWIDTH 16 0
BBX 16 16 0 -4
BITMAP
1000
10FE
1000
5800
5400
5400
51FF
1020
1020
1040
1044
1082
1082
111D
11E1
1000
ENDCHAR

STARTCHAR A5FE
ENCODING 42494
SWIDTH 960 0
DWIDTH 16 0
BBX 16 16 0 -4
BITMAP
1010
1014
1012
5810
5410
55FF
5010
1010
1028
1028
1048
1044
1084
1102
1202
1401
ENDCHAR

STARTCHAR A6A1
ENCODING 42657
SWIDTH 960 0
DWIDTH 16 0
BBX 16 16 0 -4
BITMAP
1020
1020
1020
5820
5420
57FE
5020
1020
1050
1050
1048
1088
1084
1144
1222
1401
ENDCHAR

STARTCHAR A6A2
ENCODING 42658
SWIDTH 960 0
DWIDTH 16 0
BBX 16 16 0 -4
BITMAP
1040
1040
13F8
5848
5448
5449
5089
1089
1127
1220
1020
17FF
1020
1020
1020
1020
ENDCHAR

STARTCHAR A6A3
ENCODING 42659
SWIDTH 960 0
DWIDTH 16 0
BBX 16 16 0 -4
BITMAP
1000
103C
11E0
5820
5420
5420
5020
17FF
1020
1020
1020
1020
1020
1020
13FE
1000
ENDCHAR

STARTCHAR A6A4
ENCODING 42660
SWIDTH 960 0
DWIDTH 16 0
BBX 16 16 0 -4
BITMAP
1030
1008
1008
5884
5484
5502
5201
11FC
1044
1044
1044
1044
1084
1084
1108
1230
ENDCHAR

STARTCHAR A6A5
ENCODING 42661
SWIDTH 960 0
DWIDTH 16 0
BBX 16 16 0 -4
BITMAP
0048
0044
0040
7FFF
0040
0040
3E41
2242
2224
2228
2210
3E30
0049
0185
0603
1801
ENDCHAR

STARTCHAR A6A6
ENCODING 42662
SWIDTH 960 0
DWIDTH 16 0
BBX 16 16 0 -4
BITMAP
0048
0044
0040
7FFF
0040
0840
0840
1241
1122
2724
7918
0010
0F29
70C5
0303
0C01
ENDCHAR

STARTCHAR A6A7
ENCODING 42663
SWIDTH 960 0
DWIDTH 16 0
BBX 16 16 0 -4
BITMAP
0048
0044
0044
3FFF
2040
2040
3FC2
2242
2244
2224
2228
2210
2229
4E45
4083
0301
ENDCHAR

STARTCHAR A6A8
ENCODING 42664
SWIDTH 960 0
DWIDTH 16 0
BBX 16 16 0 -4
BITMAP
003E
1FC0
1000
1FFE
1002
1002
1FFE
1020
1020
1020
17FF
1050
2088
2104
4202
0401
ENDCHAR

STARTCHAR A6A9
ENCODING 42665
SWIDTH 960 0
DWIDTH 16 0
BBX 16 16 0 -4
BITMAP
0000
7E3F
0220
0220
3E3E
2222
2222
2222
2222
3E3E
0220
0420
0420
0820
1020
2020
ENDCHAR

STARTCHAR A6AA
ENCODING 42666
SWIDTH 960 0
DWIDTH 16 0
BBX 16 16 0 -4
BITMAP
1000
1000
11FF
7C10
1010
1010
1010
1010
1CFE
7010
1010
1010
1010
1010
11FF
3000
ENDCHAR

STARTCHAR A6AB
ENCODING 42667
SWIDTH 960 0
DWIDTH 16 0
BBX 16 16 0 -4
BITMAP
1000
11FE
1108
7D08
1108
1208
1208
13FF
1C28
7048
1048
1088
1108
1208
1408
3038
ENDCHAR

STARTCHAR A6AC
ENCODING 42668
SWIDTH 960 0
DWIDTH 16 0
BBX 16 16 0 -4
BITMAP
1020
1024
1022
7C20
1020
13FF
1020
1020
1C50
7050
1048
1088
1084
1104
1202
3401
ENDCHAR

STARTCHAR A6AD
ENCODING 42669
SWIDTH 960 0
DWIDTH 16 0
BBX 16 16 0 -4
BITMAP
1000
101C
10E0
7C20
1020
1020
11FE
1020
1C20
7020
13FF
1020
1020
1021
1021
301F
ENDCHAR

STARTCHAR A6AE
ENCODING 42670
SWIDTH 960 0
DWIDTH 16 0
BBX 16 16 0 -4
BITMAP
1082
1082
1082
7C82
10FE
1080
1080
1080
1CFE
7082
1082
1082
1082
1102
1102
3202
ENDCHAR

STARTCHAR A6AF
ENCODING 42671
SWIDTH 960 0
DWIDTH 16 0
BBX 16 16 0 -4
BITMAP
1020
1010
1008
7C40
1040
1040
1040
1042
1D42
7141
1141
1241
1244
1244
103C
3000
ENDCHAR

STARTCHAR A6B0
ENCODING 42672
SWIDTH 960 0
DWIDTH 16 0
BBX 16 16 0 -4
BITMAP
1020
1010
1010
7DFF
1020
1020
1020
103E
1C22
7022
1042
1042
1082
1082
1104
3218
ENDCHAR

STARTCHAR A6B1
ENCODING 42673
SWIDTH 960 0
DWIDTH 16 0
BBX 16 16 0 -4
BITMAP
1000
10FF
1081
7C81
1081
1081
10FF
1090
1C90
7090
1088
1088
1104
1104
1202
3401
ENDCHAR

STARTCHAR A6B2
ENCODING 42674
SWIDTH 960 0
DWIDTH 16 0
BBX 16 16 0 -4
BITMAP
1000
11FE
1102
7D02
1102
110E
1100
11FE
1D42
7122
1124
1114
1108
1114
1122
3141
ENDCHAR

STARTCHAR A6B3
ENCODING 42675
SWIDTH 960 0
DWIDTH 16 0
BBX 16 16 0 -4
BITMAP
1108
1108
1108
7D1E
17CA
114A
114A
1D4A
714A
114A
1152
1152
1244
1241
123F
3400
ENDCHAR

STARTCHAR A6B4
ENCODING 42676
SWIDTH 960 0
DWIDTH 16 0
BBX 16 16 0 -4
BITMAP
1020
1020
1020
7DFF
1040
1040
107E
1042
1C42
70A2
10A4
1114
1108
1214
1422
30C1
ENDCHAR

STARTCHAR A6B5
ENCODING 42677
SWIDTH 960 0
DWIDTH 16 0
BBX 16 16 0 -4
BITMAP
101E
11F0
1010
7C10
1010
11FE
1010
1010
1C10
73FF
1010
1010
1010
1010
1010
3070
ENDCHAR

STARTCHAR A6B6
ENCODING 42678
SWIDTH 960 0
DWIDTH 16 0
BBX 16 16 0 -4
BITMAP
1004
1074
11C4
7C44
1044
1044
1044
13FF
1C44
7044
1044
1044
1084
1084
1104
3204
ENDCHAR

STARTCHAR A6B7
ENCODING 42679
SWIDTH 960 0
DWIDTH 16 0
BBX 16 16 0 -4
BITMAP
1080
1080
1080
7DFF
1101
1201
1021
1021
1C49
7045
108D
11F5
1005
1001
1002
300C
ENDCHAR

STARTCHAR A6B8
ENCODING 42680
SWIDTH 960 0
DWIDTH 16 0
BBX 16 16 0 -4
BITMAP
1000
1080
109F
7C81
1121
1121
1241
1141
1C81
7081
1121
1111
1271
1391
1002
300C
ENDCHAR

STARTCHAR A6B9
ENCODING 42681
SWIDTH 960 0
DWIDTH 16 0
BBX 16 16 0 -4
BITMAP
1010
1028
1044
7C82
1101
1200
1000
1030
1C08
7004
1000
1000
1060
1010
1008
3004
ENDCHAR

STARTCHAR A6BA
ENCODING 42682
SWIDTH 960 0
DWIDTH 16 0
BBX 16 16 0 -4
BITMAP
0040
0040
7C40
1080
10FF
1084
1144
7E44
1044
1028
1028
1010
1028
1044
1082
3301
ENDCHAR

STARTCHAR A6BB
ENCODING 42683
SWIDTH 960 0
DWIDTH 16 0
BBX 16 16 0 -4
BITMAP
0100
0080
7FFF
0410
0220
01C0
0630
188C
6083
0FF8
0080
0080
3FFE
0080
0080
0080
ENDCHAR

STARTCHAR A6BC
ENCODING 42684
SWIDTH 960 0
DWIDTH 16 0
BBX 16 16 0 -4
BITMAP
0040
0040
7C80
44FF
4500
4600
44FE
7C04
4408
4410
4420
4440
7C81
4501
0101
00FF
ENDCHAR

STARTCHAR A6BD
ENCODING 42685
SWIDTH 960 0
DWIDTH 16 0
BBX 16 16 0 -4
BITMAP
0008
0008
7C08
4408
45FF
4408
4408
7C88
4448
4448
4408
4408
7C08
4408
0008
0038
ENDCHAR

STARTCHAR A6BE
ENCODING 42686
SWIDTH 960 0
DWIDTH 16 0
BBX 16 16 0 -4
BITMAP
1FFC
1004
1004
1FFC
1004
1004
1FFC
0000
0000
7FFF
0220
0220
0420
0820
1020
201F
ENDCHAR

STARTCHAR A6BF
ENCODING 42687
SWIDTH 960 0
DWIDTH 16 0
BBX 16 16 0 -4
BITMAP
0000
1FFC
1004
1004
1FFC
1004
1004
1FFC
0080
0080
00FE
0080
0080
0080
7FFF
0000
ENDCHAR

STARTCHAR A6C0
ENCODING 42688
SWIDTH 960 0
DWIDTH 16 0
BBX 16 16 0 -4
BITMAP
1FFC
1004
1FFC
1004
1FFC
0000
0000
1FF8
0010
0060
0080
7FFF
0080
0080
0080
0380
ENDCHAR

STARTCHAR A6C1
ENCODING 42689
SWIDTH 960 0
DWIDTH 16 0
BBX 16 16 0 -4
BITMAP
0090
0088
0080
1FFC
1084
1084
1FFC
1084
1084
1FFC
0088
0090
0060
01A1
0619
3807
ENDCHAR

STARTCHAR A6C2
ENCODING 42690
SWIDTH 960 0
DWIDTH 16 0
BBX 16 16 0 -4
BITMAP
0800
08FE
0802
7F02
0802
087E
1840
1C40
2A80
28FF
4801
4801
0801
0801
0802
081C
ENDCHAR

STARTCHAR A6C3
ENCODING 42691
SWIDTH 960 0
DWIDTH 16 0
BBX 16 16 0 -4
BITMAP
0810
0810
0810
7E10
0810
0810
1854
1C52
2A92
2891
4911
4A11
0810
0810
0810
0870
ENDCHAR

STARTCHAR A6C4
ENCODING 42692
SWIDTH 960 0
DWIDTH 16 0
BBX 16 16 0 -4
BITMAP
0800
080E
0870
7E10
0810
0810
1810
1C10
2AFF
2810
4810
4810
0810
0811
0811
080F
ENDCHAR

STARTCHAR A6C5
ENCODING 42693
SWIDTH 960 0
DWIDTH 16 0
BBX 16 16 0 -4
BITMAP
0800
09FF
0811
7E11
0811
0891
1851
1C31
2A11
2811
4821
4821
0841
0841
0882
090C
ENDCHAR

STARTCHAR A6C6
ENCODING 42694
SWIDTH 960 0
DWIDTH 16 0
BBX 16 16 0 -4
BITMAP
0800
09FC
0844
7E44
0844
0844
1844
1DFC
2A44
2844
4844
4845
0845
0845
0843
0841
ENDCHAR

STARTCHAR A6C7
ENCODING 42695
SWIDTH 960 0
DWIDTH 16 0
BBX 16 16 0 -4
BITMAP
0000
3FFE
2002
2002
3FFE
2000
2040
2040
2FFE
2040
2040
2248
2444
4842
5041
0040
ENDCHAR

STARTCHAR A6C8
ENCODING 42696
SWIDTH 960 0
DWIDTH 16 0
BBX 16 16 0 -4
BITMAP
0800
080E
08F0
7E10
0810
0810
1810
1DFF
2A10
2810
4810
4810
0810
0810
0810
0810
ENDCHAR

STARTCHAR A6C9
ENCODING 42697
SWIDTH 960 0
DWIDTH 16 0
BBX 16 16 0 -4
BITMAP
0800
0841
0849
7E49
0849
0849
1849
1C49
2A49
2849
4849
4849
0849
0889
0889
0901
ENDCHAR

STARTCHAR A6CA
ENCODING 42698
SWIDTH 960 0
DWIDTH 16 0
BBX 16 16 0 -4
BITMAP
0400
0400
0FF8
1408
2210
01E0
0618
7807
0080
0080
3FFE
0080
0490
0888
1084
2082
ENDCHAR

STARTCHAR A6CB
ENCODING 42699
SWIDTH 960 0
DWIDTH 16 0
BBX 16 16 0 -4
BITMAP
0008
2108
1088
0048
4008
2208
0108
1088
1008
1008
27FF
2008
2008
4008
4008
0008
ENDCHAR

STARTCHAR A6CC
ENCODING 42700
SWIDTH 960 0
DWIDTH 16 0
BBX 16 16 0 -4
BITMAP
0000
23FC
1008
0050
4020
2010
07FF
1021
1022
2024
2020
2020
2020
4020
4020
00E0
ENDCHAR

STARTCHAR A6CD
ENCODING 42701
SWIDTH 960 0
DWIDTH 16 0
BBX 16 16 0 -4
BITMAP
0000
23FC
1044
0044
4044
2044
0044
17FF
1084
1084
2084
2084
2084
4084
4FFF
0000
ENDCHAR

STARTCHAR A6CE
ENCODING 42702
SWIDTH 960 0
DWIDTH 16 0
BBX 16 16 0 -4
BITMAP
0000
27FF
1020
0020
43FE
2222
0222
1222
1222
1222
2222
2222
2222
4226
4020
0020
ENDCHAR

STARTCHAR A6CF
ENCODING 42703
SWIDTH 960 0
DWIDTH 16 0
BBX 16 16 0 -4
BITMAP
0040
2044
1042
0040
47FF
2040
0040
1042
1042
1024
2028
2010
2029
4045
4183
0E01
ENDCHAR

STARTCHAR A6D0
ENCODING 42704
SWIDTH 960 0
DWIDTH 16 0
BBX 16 16 0 -4
BITMAP
0080
2080
1080
01FF
4101
2201
0001
11F9
1001
1001
21F9
2001
2001
4001
4002
001C
ENDCHAR

STARTCHAR A6D1
ENCODING 42705
SWIDTH 960 0
DWIDTH 16 0
BBX 16 16 0 -4
BITMAP
0020
2120
1120
03FE
4220
2420
0020
1020
17FF
1020
2020
2020
2020
4020
4020
0020
ENDCHAR

STARTCHAR A6D2
ENCODING 42706
SWIDTH 960 0
DWIDTH 16 0
BBX 16 16 0 -4
BITMAP
0080
2080
1080
01FF
4101
2201
0021
1021
1041
1051
2089
21F5
2005
4001
4002
000C
ENDCHAR

STARTCHAR A6D3
ENCODING 42707
SWIDTH 960 0
DWIDTH 16 0
BBX 16 16 0 -4
BITMAP
0020
2050
1088
0104
4202
24F9
0000
1000
13FE
1002
2004
2004
2008
4010
4020
0040
ENDCHAR

STARTCHAR A6D4
ENCODING 42708
SWIDTH 960 0
DWIDTH 16 0
BBX 16 16 0 -4
BITMAP
0100
2080
3FFF
4001
4082
0080
0084
3E88
02D0
04A0
0490
0888
1084
6083
0080
0380
ENDCHAR

STARTCHAR A6D5
ENCODING 42709
SWIDTH 960 0
DWIDTH 16 0
BBX 16 16 0 -4
BITMAP
0080
2082
2082
2082
3FFE
0000
0080
0084
3E88
02D0
04A0
0490
0888
1084
6083
0380
ENDCHAR

STARTCHAR A6D6
ENCODING 42710
SWIDTH 960 0
DWIDTH 16 0
BBX 16 16 0 -4
BITMAP
0000
21FE
1102
0102
4102
2102
01FE
1110
1110
1110
2108
2208
2204
4404
4802
1001
ENDCHAR

STARTCHAR A6D7
ENCODING 42711
SWIDTH 960 0
DWIDTH 16 0
BBX 16 16 0 -4
BITMAP
0000
2201
1205
0285
4249
2229
0211
1229
1229
1245
2285
2201
2201
43FF
4201
0000
ENDCHAR

STARTCHAR A6D8
ENCODING 42712
SWIDTH 960 0
DWIDTH 16 0
BBX 16 16 0 -4
BITMAP
0080
2080
1080
01FF
4104
2284
0484
1084
1088
1048
2050
2020
2050
4088
4104
0603
ENDCHAR

STARTCHAR A6D9
ENCODING 42713
SWIDTH 960 0
DWIDTH 16 0
BBX 16 16 0 -4
BITMAP
0000
21F8
1108
0108
4108
2207
0400
13FC
1104
1104
2088
2050
2020
4050
418C
0603
ENDCHAR

STARTCHAR A6DA
ENCODING 42714
SWIDTH 960 0
DWIDTH 16 0
BBX 16 16 0 -4
BITMAP
0100
2100
11FE
0222
4222
2424
0020
1020
1020
1050
2050
2088
2088
4104
4202
0C01
ENDCHAR

STARTCHAR A6DB
ENCODING 42715
SWIDTH 960 0
DWIDTH 16 0
BBX 16 16 0 -4
BITMAP
000F
21F0
1100
0100
41FF
2101
0101
1101
11FF
1101
2100
2100
2200
4200
4400
0800
ENDCHAR

STARTCHAR A6DC
ENCODING 42716
SWIDTH 960 0
DWIDTH 16 0
BBX 16 16 0 -4
BITMAP
0000
201E
11E4
0124
4124
2124
0124
1124
1124
1124
2124
2222
2222
4422
4421
0801
ENDCHAR

STARTCHAR A6DD
ENCODING 42717
SWIDTH 960 0
DWIDTH 16 0
BBX 16 16 0 -4
BITMAP
0010
2008
1088
0084
4104
2102
0222
1421
1040
1040
2080
2088
2104
421E
43E2
0002
ENDCHAR

STARTCHAR A6DE
ENCODING 42718
SWIDTH 960 0
DWIDTH 16 0
BBX 16 16 0 -4
BITMAP
1000
101E
11E0
1020
1420
5820
5020
5020
13FF
1020
1020
2820
2420
4421
4021
001F
ENDCHAR

STARTCHAR A6DF
ENCODING 42719
SWIDTH 960 0
DWIDTH 16 0
BBX 16 16 0 -4
BITMAP
0080
1084
0888
0890
0160
0618
1804
6002
0410
0410
0410
7FFF
0410
0810
1010
2010
ENDCHAR

STARTCHAR A6E0
ENCODING 42720
SWIDTH 960 0
DWIDTH 16 0
BBX 16 16 0 -4
BITMAP
0100
2080
3FFF
4001
4082
0080
1084
0888
0890
0140
0140
0220
0410
0808
1004
2003
ENDCHAR

STARTCHAR A6E1
ENCODING 42721
SWIDTH 960 0
DWIDTH 16 0
BBX 16 16 0 -4
BITMAP
1010
1010
101F
1021
1421
5841
50A1
5112
100A
1004
1004
2808
2410
2420
40C0
4300
ENDCHAR

STARTCHAR A6E2
ENCODING 42722
SWIDTH 960 0
DWIDTH 16 0
BBX 16 16 0 -4
BITMAP
0000
1FFC
0004
7FFF
0004
1FFC
0000
0080
1084
0888
0890
0140
0220
0418
0804
3003
ENDCHAR

STARTCHAR A6E3
ENCODING 42723
SWIDTH 960 0
DWIDTH 16 0
BBX 16 16 0 -4
BITMAP
0080
0080
1FFC
0080
0080
7FFF
0000
0080
1084
0888
0890
0140
0220
0418
0804
3003
ENDCHAR

STARTCHAR A6E4
ENCODING 42724
SWIDTH 960 0
DWIDTH 16 0
BBX 16 16 0 -4
BITMAP
0820
2810
2810
29FF
3E80
4880
4880
0880
0E80
7880
0880
0880
0880
0880
087F
0800
ENDCHAR

STARTCHAR A6E5
ENCODING 42725
SWIDTH 960 0
DWIDTH 16 0
BBX 16 16 0 -4
BITMAP
0800
2800
28FE
3E10
4810
4810
0810
0810
09FF
0E10
7810
0810
0810
0810
0810
0810
ENDCHAR

STARTCHAR A6E6
ENCODING 42726
SWIDTH 960 0
DWIDTH 16 0
BBX 16 16 0 -4
BITMAP
0010
4410
29FF
1010
2810
49FF
0911
0911
1911
2911
4911
0911
0911
0916
0810
7010
ENDCHAR

STARTCHAR A6E7
ENCODING 42727
SWIDTH 960 0
DWIDTH 16 0
BBX 16 16 0 -4
BITMAP
0000
45E8
2828
1048
2888
4888
0888
08A8
18C8
2B88
4888
0888
0888
0889
0889
3307
ENDCHAR

STARTCHAR A6E8
ENCODING 42728
SWIDTH 960 0
DWIDTH 16 0
BBX 16 16 0 -4
BITMAP
0020
4420
2820
1020
2BFE
4820
0870
08A8
18A8
2924
4924
0A22
0C21
0820
0820
7020
ENDCHAR

STARTCHAR A6E9
ENCODING 42729
SWIDTH 960 0
DWIDTH 16 0
BBX 16 16 0 -4
BITMAP
0024
4422
2822
1020
2BFF
4820
0820
0850
1850
2850
4850
0850
0890
0891
0911
320F
ENDCHAR

STARTCHAR A6EA
ENCODING 42730
SWIDTH 960 0
DWIDTH 16 0
BBX 16 16 0 -4
BITMAP
0010
4412
2811
1010
2810
49FF
0810
0810
1828
2828
4828
0844
0844
0882
0902
3201
ENDCHAR

STARTCHAR A6EB
ENCODING 42731
SWIDTH 960 0
DWIDTH 16 0
BBX 16 16 0 -4
BITMAP
0810
0812
4811
2810
1810
09FF
0810
0810
0828
1828
2828
4844
0844
0882
0902
0A01
ENDCHAR

STARTCHAR A6EC
ENCODING 42732
SWIDTH 960 0
DWIDTH 16 0
BBX 16 16 0 -4
BITMAP
0020
4420
2BFE
1020
2820
4924
0924
0924
1924
2924
49FC
0924
0820
0821
0821
301F
ENDCHAR

STARTCHAR A6ED
ENCODING 42733
SWIDTH 960 0
DWIDTH 16 0
BBX 16 16 0 -4
BITMAP
000E
44F0
2880
1080
2880
48FF
0888
0888
1888
2888
4888
0888
0888
0908
0908
7208
ENDCHAR

STARTCHAR A6EE
ENCODING 42734
SWIDTH 960 0
DWIDTH 16 0
BBX 16 16 0 -4
BITMAP
0000
00FE
7C02
1002
1002
1002
7C02
10FE
1082
1080
1080
1E80
7080
0081
0081
007F
ENDCHAR

STARTCHAR A6EF
ENCODING 42735
SWIDTH 960 0
DWIDTH 16 0
BBX 16 16 0 -4
BITMAP
0000
00FE
7C02
1004
1008
1010
7C10
11FF
1010
1010
1010
1E10
7010
0010
0010
0070
ENDCHAR

STARTCHAR A6F0
ENCODING 42736
SWIDTH 960 0
DWIDTH 16 0
BBX 16 16 0 -4
BITMAP
0000
01FE
7C00
1000
1000
13FF
1040
7C40
1080
10FE
1002
1E02
7002
0002
0004
0018
ENDCHAR

STARTCHAR A6F1
ENCODING 42737
SWIDTH 960 0
DWIDTH 16 0
BBX 16 16 0 -4
BITMAP
0000
01FC
7C44
1044
1044
1144
10C4
7C64
1054
1054
1044
1E44
7084
0085
0105
0203
ENDCHAR

STARTCHAR A6F2
ENCODING 42738
SWIDTH 960 0
DWIDTH 16 0
BBX 16 16 0 -4
BITMAP
0020
0020
7C20
5420
5420
5420
5420
7C50
5450
5450
5448
5488
7C88
4104
0202
0401
ENDCHAR

STARTCHAR A6F3
ENCODING 42739
SWIDTH 960 0
DWIDTH 16 0
BBX 16 16 0 -4
BITMAP
0080
0040
1FFF
1000
5000
33F8
1088
1090
309E
5082
1082
1102
2102
2202
4404
0838
ENDCHAR

STARTCHAR A6F4
ENCODING 42740
SWIDTH 960 0
DWIDTH 16 0
BBX 16 16 0 -4
BITMAP
0100
0200
1FFC
1004
1004
1FFC
1004
1004
1FFC
0800
087C
0F80
0800
0802
07FE
0000
ENDCHAR

STARTCHAR A6F5
ENCODING 42741
SWIDTH 960 0
DWIDTH 16 0
BBX 16 16 0 -4
BITMAP
0100
0200
1FFC
1004
1004
1FFC
1004
1004
1FFC
0100
0200
0408
0804
107A
3F82
0002
ENDCHAR

STARTCHAR A6F6
ENCODING 42742
SWIDTH 960 0
DWIDTH 16 0
BBX 16 16 0 -4
BITMAP
0100
0200
1FFC
1004
1004
1FFC
1004
1004
1FFC
0220
0220
0420
0421
0821
1021
201F
ENDCHAR

STARTCHAR A6F7
ENCODING 42743
SWIDTH 960 0
DWIDTH 16 0
BBX 16 16 0 -4
BITMAP
0080
0080
00C0
00A0
0090
0088
0080
0080
0080
0000
3FFE
2222
2222
2222
7FFF
0000
ENDCHAR

STARTCHAR A6F8
ENCODING 42744
SWIDTH 960 0
DWIDTH 16 0
BBX 16 16 0 -4
BITMAP
0000
3FF0
0210
0220
043E
0402
0802
1002
201C
0000
3FFE
2222
2222
2222
7FFF
0000
ENDCHAR

STARTCHAR A6F9
ENCODING 42745
SWIDTH 960 0
DWIDTH 16 0
BBX 16 16 0 -4
BITMAP
0000
7DFF
4420
4420
4440
7C40
4480
44FE
4402
7C02
4402
4402
4402
7C02
4404
0038
ENDCHAR

STARTCHAR A6FA
ENCODING 42746
SWIDTH 960 0
DWIDTH 16 0
BBX 16 16 0 -4
BITMAP
0040
7F40
1040
1040
1043
104C
2070
3E40
5240
5240
5240
1240
1240
1E41
1041
003F
ENDCHAR

STARTCHAR A6FB
ENCODING 42747
SWIDTH 960 0
DWIDTH 16 0
BBX 16 16 0 -4
BITMAP
0000
7EFF
1008
1008
1008
1008
2008
3E08
5208
5208
5208
1208
1208
1E08
1008
0038
ENDCHAR

STARTCHAR A6FC
ENCODING 42748
SWIDTH 960 0
DWIDTH 16 0
BBX 16 16 0 -4
BITMAP
0002
7F82
0822
0822
1022
1022
2022
3F22
5122
5122
1122
1122
1102
1F02
1002
000E
ENDCHAR

STARTCHAR A6FD
ENCODING 42749
SWIDTH 960 0
DWIDTH 16 0
BBX 16 16 0 -4
BITMAP
0600
39FC
0844
0844
7E48
0848
084F
1849
2C41
2A41
4881
4881
0881
0901
0902
0A0C
ENDCHAR

STARTCHAR A6FE
ENCODING 42750
SWIDTH 960 0
DWIDTH 16 0
BBX 16 16 0 -4
BITMAP
0000
10F8
0888
7E88
0088
2488
2488
2488
2488
2488
0888
1088
0E88
7109
0209
0407
ENDCHAR

STARTCHAR A7A1
ENCODING 42913
SWIDTH 960 0
DWIDTH 16 0
BBX 16 16 0 -4
BITMAP
0010
1010
0810
7E10
0010
2410
25FF
2410
2410
2410
0810
1010
0E10
7010
0010
0010
ENDCHAR

STARTCHAR A7A2
ENCODING 42914
SWIDTH 960 0
DWIDTH 16 0
BBX 16 16 0 -4
BITMAP
0840
1040
2040
4440
2840
1040
2440
2440
4A40
7040
0440
5240
4A40
4841
4041
003F
ENDCHAR

STARTCHAR A7A3
ENCODING 42915
SWIDTH 960 0
DWIDTH 16 0
BBX 16 16 0 -4
BITMAP
0000
3CFE
2400
2400
2400
35FF
2C20
2420
2C40
347E
2402
2402
2402
2402
4404
4C18
ENDCHAR

STARTCHAR A7A4
ENCODING 42916
SWIDTH 960 0
DWIDTH 16 0
BBX 16 16 0 -4
BITMAP
0020
3C20
2440
247F
2481
3501
2C01
2441
2C21
3411
2411
2401
2401
2401
4401
4C0E
ENDCHAR

STARTCHAR A7A5
ENCODING 42917
SWIDTH 960 0
DWIDTH 16 0
BBX 16 16 0 -4
BITMAP
0020
3C20
2422
2422
25FF
3442
2C42
2442
2C82
3484
24E4
2418
2414
2422
4441
4D80
ENDCHAR

STARTCHAR A7A6
ENCODING 42918
SWIDTH 960 0
DWIDTH 16 0
BBX 16 16 0 -4
BITMAP
0010
3C10
2490
2493
249D
34F1
2D91
2491
2C92
3490
2490
2490
2481
2481
447F
4C00
ENDCHAR

STARTCHAR A7A7
ENCODING 42919
SWIDTH 960 0
DWIDTH 16 0
BBX 16 16 0 -4
BITMAP
0808
0808
7F7F
0808
0808
0080
0080
0080
0890
0888
1084
1082
2081
4081
0080
0380
ENDCHAR

STARTCHAR A7A8
ENCODING 42920
SWIDTH 960 0
DWIDTH 16 0
BBX 16 16 0 -4
BITMAP
0808
0808
7F7F
0808
0808
0100
0088
0888
0410
0220
0140
0080
0140
0230
0C0C
3003
ENDCHAR

STARTCHAR A7A9
ENCODING 42921
SWIDTH 960 0
DWIDTH 16 0
BBX 16 16 0 -4
BITMAP
0808
0808
7F7F
0808
0808
0000
1FFC
0000
7FFF
0100
0200
07FC
0404
0004
0008
0070
ENDCHAR

STARTCHAR A7AA
ENCODING 42922
SWIDTH 960 0
DWIDTH 16 0
BBX 16 16 0 -4
BITMAP
0808
0808
7F7F
0808
0808
0000
3FFC
0004
2004
2004
3FFC
2000
2000
2001
2001
1FFE
ENDCHAR

STARTCHAR A7AB
ENCODING 42923
SWIDTH 960 0
DWIDTH 16 0
BBX 16 16 0 -4
BITMAP
0808
0808
7F7F
0808
0A08
0200
03FC
0404
0804
1304
2088
0050
0060
0180
0E00
7000
ENDCHAR

STARTCHAR A7AC
ENCODING 42924
SWIDTH 960 0
DWIDTH 16 0
BBX 16 16 0 -4
BITMAP
0808
0808
7F7F
0808
0808
0400
0400
07F8
0808
1408
2210
4120
00C0
0330
0C0C
3003
ENDCHAR

STARTCHAR A7AD
ENCODING 42925
SWIDTH 960 0
DWIDTH 16 0
BBX 16 16 0 -4
BITMAP
0820
0820
0820
7F20
4920
4920
4920
4920
7F20
0820
0820
0A20
0921
0F21
7121
001F
ENDCHAR

STARTCHAR A7AE
ENCODING 42926
SWIDTH 960 0
DWIDTH 16 0
BBX 16 16 0 -4
BITMAP
007C
1F80
0080
0080
0080
1FFC
1084
1084
1084
1FFC
1080
0088
0084
00FC
3F82
0002
ENDCHAR

STARTCHAR A7AF
ENCODING 42927
SWIDTH 960 0
DWIDTH 16 0
BBX 16 16 0 -4
BITMAP
0060
0180
0E18
0060
0180
0E0C
0070
0380
1C80
0080
08FC
0880
0880
1480
1280
21FF
ENDCHAR

STARTCHAR A7B0
ENCODING 42928
SWIDTH 960 0
DWIDTH 16 0
BBX 16 16 0 -4
BITMAP
0020
4020
2020
1020
03FE
7020
1020
1050
2050
7088
1108
1204
2402
3000
4C00
03FF
ENDCHAR

STARTCHAR A7B1
ENCODING 42929
SWIDTH 960 0
DWIDTH 16 0
BBX 16 16 0 -4
BITMAP
0008
4008
2008
1008
07FE
7008
1108
1088
2048
7048
1008
1008
2008
3038
4C00
03FF
ENDCHAR

STARTCHAR A7B2
ENCODING 42930
SWIDTH 960 0
DWIDTH 16 0
BBX 16 16 0 -4
BITMAP
0000
41FC
2004
1008
0010
7020
1020
13FE
2020
7020
1020
1020
2020
3060
4C00
03FF
ENDCHAR

STARTCHAR A7B3
ENCODING 42931
SWIDTH 960 0
DWIDTH 16 0
BBX 16 16 0 -4
BITMAP
0000
401C
21E0
1020
0020
7020
1020
13FE
2020
7020
1020
1020
2020
3020
4C00
03FF
ENDCHAR

STARTCHAR A7B4
ENCODING 42932
SWIDTH 960 0
DWIDTH 16 0
BBX 16 16 0 -4
BITMAP
0800
083E
0822
08A2
4924
4928
2A24
2822
0822
0822
0822
1222
1122
20AC
20A0
4020
ENDCHAR

STARTCHAR A7B5
ENCODING 42933
SWIDTH 960 0
DWIDTH 16 0
BBX 16 16 0 -4
BITMAP
0700
383E
2022
2022
2024
3FA8
2224
2222
2222
2222
2222
2222
2222
422C
4220
0220
ENDCHAR

STARTCHAR A7B6
ENCODING 42934
SWIDTH 960 0
DWIDTH 16 0
BBX 16 16 0 -4
BITMAP
0000
003E
3F22
0022
0024
0028
7FA4
0822
0822
1022
1022
2222
2122
4F2C
7120
0020
ENDCHAR

STARTCHAR A7B7
ENCODING 42935
SWIDTH 960 0
DWIDTH 16 0
BBX 16 16 0 -4
BITMAP
0400
043E
0422
0422
7FA4
0428
0C24
1622
1522
14A2
24A2
2422
4422
042C
0420
0420
ENDCHAR

STARTCHAR A7B8
ENCODING 42936
SWIDTH 960 0
DWIDTH 16 0
BBX 16 16 0 -4
BITMAP
0000
3F3E
2122
2122
2924
2528
2524
2122
7FA2
2122
2122
2122
2122
212C
4120
4320
ENDCHAR

STARTCHAR A7B9
ENCODING 42937
SWIDTH 960 0
DWIDTH 16 0
BBX 16 16 0 -4
BITMAP
0400
041F
7FD1
0411
2492
2494
2492
2491
2491
7F91
2491
0411
0451
0496
0510
0210
ENDCHAR

STARTCHAR A7BA
ENCODING 42938
SWIDTH 960 0
DWIDTH 16 0
BBX 16 16 0 -4
BITMAP
0004
3C04
2444
2424
2814
2804
3084
2844
2424
2404
2404
25FF
3804
2004
2004
2004
ENDCHAR

STARTCHAR A7BB
ENCODING 42939
SWIDTH 960 0
DWIDTH 16 0
BBX 16 16 0 -4
BITMAP
0010
3C10
2410
2511
2911
2892
3092
2810
2428
2428
2428
2444
3844
2082
2102
2201
ENDCHAR

STARTCHAR A7BC
ENCODING 42940
SWIDTH 960 0
DWIDTH 16 0
BBX 16 16 0 -4
BITMAP
0000
3C00
25FF
2408
2808
2810
3010
2824
2452
2491
2511
2410
3810
2010
2010
2010
ENDCHAR

STARTCHAR A7BD
ENCODING 42941
SWIDTH 960 0
DWIDTH 16 0
BBX 16 16 0 -4
BITMAP
0000
3CFE
2482
2482
2882
2882
3082
28FE
2482
2482
2482
2482
3882
20FE
2082
2000
ENDCHAR

STARTCHAR A7BE
ENCODING 42942
SWIDTH 960 0
DWIDTH 16 0
BBX 16 16 0 -4
BITMAP
0000
3CFE
2482
2482
2882
28FE
3082
2882
2482
24FE
2482
2482
3902
2102
2202
240E
ENDCHAR

STARTCHAR A7BF
ENCODING 42943
SWIDTH 960 0
DWIDTH 16 0
BBX 16 16 0 -4
BITMAP
0004
3C74
25C4
2444
2844
2844
3044
2BFF
2444
2444
2444
2444
3884
2084
2104
2204
ENDCHAR

STARTCHAR A7C0
ENCODING 42944
SWIDTH 960 0
DWIDTH 16 0
BBX 16 16 0 -4
BITMAP
0000
7E7E
0000
0000
0000
7E7E
4242
4242
5252
5252
4A4A
4A4A
4242
4242
4242
4646
ENDCHAR

STARTCHAR A7C1
ENCODING 42945
SWIDTH 960 0
DWIDTH 16 0
BBX 16 16 0 -4
BITMAP
0000
7CFE
0404
2828
1010
0808
7EFF
1211
1211
1412
1010
1010
1010
1010
1010
3070
ENDCHAR

STARTCHAR A7C2
ENCODING 42946
SWIDTH 960 0
DWIDTH 16 0
BBX 16 16 0 -4
BITMAP
0100
0210
0408
08F4
1F04
0810
1212
2121
7F3F
0101
0000
1FFC
0000
0000
7FFF
0000
ENDCHAR

STARTCHAR A7C3
ENCODING 42947
SWIDTH 960 0
DWIDTH 16 0
BBX 16 16 0 -4
BITMAP
0820
09FC
1024
1024
23FF
3024
5024
51FC
1020
1020
13FE
1020
1020
17FF
1020
1020
ENDCHAR

STARTCHAR A7C4
ENCODING 42948
SWIDTH 960 0
DWIDTH 16 0
BBX 16 16 0 -4
BITMAP
0820
0820
1221
1122
20A4
30A8
5020
53FF
1048
1048
1048
1088
1088
1109
1209
1407
ENDCHAR

STARTCHAR A7C5
ENCODING 42949
SWIDTH 960 0
DWIDTH 16 0
BBX 16 16 0 -4
BITMAP
0820
0820
103E
13E0
2020
3020
53FE
5020
1020
17FF
1020
10A8
1124
1222
1421
1020
ENDCHAR

STARTCHAR A7C6
ENCODING 42950
SWIDTH 960 0
DWIDTH 16 0
BBX 16 16 0 -4
BITMAP
0800
0BFC
1204
1204
23FC
3244
5244
5274
1294
1354
1234
1214
1225
1245
1483
1401
ENDCHAR

STARTCHAR A7C7
ENCODING 42951
SWIDTH 960 0
DWIDTH 16 0
BBX 16 16 0 -4
BITMAP
0880
08FC
1104
1288
2450
3020
50D8
5326
1C21
13FC
1220
1220
13FE
1020
1020
1020
ENDCHAR

STARTCHAR A7C8
ENCODING 42952
SWIDTH 960 0
DWIDTH 16 0
BBX 16 16 0 -4
BITMAP
0820
0820
1222
1124
20A8
3020
57FF
5020
1020
10A8
1124
1222
1421
1020
1020
1020
ENDCHAR

STARTCHAR A7C9
ENCODING 42953
SWIDTH 960 0
DWIDTH 16 0
BBX 16 16 0 -4
BITMAP
0820
0820
1020
13FE
2020
3222
5124
50A8
1020
17FF
1050
1050
1088
1104
1202
1401
ENDCHAR

STARTCHAR A7CA
ENCODING 42954
SWIDTH 960 0
DWIDTH 16 0
BBX 16 16 0 -4
BITMAP
0800
0BFE
1020
1020
23FE
3222
5222
57FF
1222
1222
17FF
1202
1202
1202
1202
120E
ENDCHAR

STARTCHAR A7CB
ENCODING 42955
SWIDTH 960 0
DWIDTH 16 0
BBX 16 16 0 -4
BITMAP
0800
0BFF
1048
1048
2048
33FF
5249
5249
1249
1249
1249
1249
1249
1249
13FF
1201
ENDCHAR

STARTCHAR A7CC
ENCODING 42956
SWIDTH 960 0
DWIDTH 16 0
BBX 16 16 0 -4
BITMAP
0820
0820
17FF
1040
2080
30BE
5102
5304
1508
1108
117F
1108
1108
1108
1108
1118
ENDCHAR

STARTCHAR A7CD
ENCODING 42957
SWIDTH 960 0
DWIDTH 16 0
BBX 16 16 0 -4
BITMAP
0800
09FE
1102
1102
2102
3102
51FE
5000
1000
13FF
1201
1201
1201
1201
13FF
1201
ENDCHAR

STARTCHAR A7CE
ENCODING 42958
SWIDTH 960 0
DWIDTH 16 0
BBX 16 16 0 -4
BITMAP
0800
0BFE
1202
1202
2202
3202
5202
53FE
1000
1111
1111
1222
1444
1222
1111
1111
ENDCHAR

STARTCHAR A7CF
ENCODING 42959
SWIDTH 960 0
DWIDTH 16 0
BBX 16 16 0 -4
BITMAP
0820
0840
107F
1081
2102
3284
5448
5030
1040
11FF
1681
1081
1081
1081
10FF
1081
ENDCHAR

STARTCHAR A7D0
ENCODING 42960
SWIDTH 960 0
DWIDTH 16 0
BBX 16 16 0 -4
BITMAP
0820
0840
11FE
1102
2102
3102
51FE
5102
1102
1102
11FE
1102
1102
1102
11FE
1102
ENDCHAR

STARTCHAR A7D1
ENCODING 42961
SWIDTH 960 0
DWIDTH 16 0
BBX 16 16 0 -4
BITMAP
0080
0140
0630
180C
67F3
0000
0FF8
0010
0020
1FFC
0000
7FFF
0110
0208
0474
0F82
ENDCHAR

STARTCHAR A7D2
ENCODING 42962
SWIDTH 960 0
DWIDTH 16 0
BBX 16 16 0 -4
BITMAP
0100
0080
7FFF
0410
0808
1104
2212
4409
0874
1F84
0220
0220
0420
0821
1021
201F
ENDCHAR

STARTCHAR A7D3
ENCODING 42963
SWIDTH 960 0
DWIDTH 16 0
BBX 16 16 0 -4
BITMAP
0000
3FF0
0410
08E0
1000
3FFC
5084
1084
1084
1FFC
0140
0150
0248
0449
0841
303F
ENDCHAR

STARTCHAR A7D4
ENCODING 42964
SWIDTH 960 0
DWIDTH 16 0
BBX 16 16 0 -4
BITMAP
0000
0FF8
0808
0808
0FF8
0808
0808
0FF8
0808
0808
0FF8
0000
7FFF
0410
0808
1004
ENDCHAR

STARTCHAR A7D5
ENCODING 42965
SWIDTH 960 0
DWIDTH 16 0
BBX 16 16 0 -4
BITMAP
0000
3FFE
2002
3FFE
2002
3FFE
0000
0000
1FFC
1004
1FFC
1004
1FFC
1004
2004
401C
ENDCHAR

STARTCHAR A7D6
ENCODING 42966
SWIDTH 960 0
DWIDTH 16 0
BBX 16 16 0 -4
BITMAP
0000
0088
4088
2088
13FE
0088
0088
0888
0888
1088
17FF
2000
2088
4104
4202
0401
ENDCHAR

STARTCHAR A7D7
ENCODING 42967
SWIDTH 960 0
DWIDTH 16 0
BBX 16 16 0 -4
BITMAP
0000
03FE
4202
2202
12FA
0202
0202
0AFA
0A8A
128A
128A
22FA
2202
4202
4202
0206
ENDCHAR

STARTCHAR A7D8
ENCODING 42968
SWIDTH 960 0
DWIDTH 16 0
BBX 16 16 0 -4
BITMAP
0040
0020
4050
2088
1104
0202
01FC
0820
0820
1020
11FC
2020
2020
4020
43FE
0000
ENDCHAR

STARTCHAR A7D9
ENCODING 42969
SWIDTH 960 0
DWIDTH 16 0
BBX 16 16 0 -4
BITMAP
0800
09FC
1020
2020
57FF
1020
1020
13FE
1000
07F0
0410
0410
0410
0811
1011
200F
ENDCHAR

STARTCHAR A7DA
ENCODING 42970
SWIDTH 960 0
DWIDTH 16 0
BBX 16 16 0 -4
BITMAP
0000
1FF8
0010
0020
20C2
2082
2EBA
2A8A
2AAA
2A92
2EAA
20CA
2382
2002
3FFE
2002
ENDCHAR

STARTCHAR A7DB
ENCODING 42971
SWIDTH 960 0
DWIDTH 16 0
BBX 16 16 0 -4
BITMAP
0000
7F81
0011
0011
3F91
2091
2091
3F91
2091
2091
3F91
0011
0001
07C1
7801
0007
ENDCHAR

STARTCHAR A7DC
ENCODING 42972
SWIDTH 960 0
DWIDTH 16 0
BBX 16 16 0 -4
BITMAP
0000
7BE1
1089
1089
1089
1089
1089
7BE9
1089
1089
1089
1089
1081
2081
4081
0087
ENDCHAR

STARTCHAR A7DD
ENCODING 42973
SWIDTH 960 0
DWIDTH 16 0
BBX 16 16 0 -4
BITMAP
0800
0800
08FC
3E24
0824
0824
0824
08A4
7F64
1034
102C
2427
2244
4E44
7284
0118
ENDCHAR

STARTCHAR A7DE
ENCODING 42974
SWIDTH 960 0
DWIDTH 16 0
BBX 16 16 0 -4
BITMAP
0002
7F02
1112
1212
13D2
2052
2052
4992
0812
7F12
0812
1A12
2912
4902
0802
080E
ENDCHAR

STARTCHAR A7DF
ENCODING 42975
SWIDTH 960 0
DWIDTH 16 0
BBX 16 16 0 -4
BITMAP
0202
6402
1822
1422
2222
4822
0822
7F22
0822
2A22
2A22
2A22
2A02
2982
4802
081C
ENDCHAR

STARTCHAR A7E0
ENCODING 42976
SWIDTH 960 0
DWIDTH 16 0
BBX 16 16 0 -4
BITMAP
1010
0810
7F10
0010
127F
2111
4011
0211
2211
1411
1411
0811
1421
2221
4241
0086
ENDCHAR

STARTCHAR A7E1
ENCODING 42977
SWIDTH 960 0
DWIDTH 16 0
BBX 16 16 0 -4
BITMAP
0080
1084
0888
0490
1FFC
0100
0200
7FFF
0808
1104
6103
1FF8
0208
0408
0808
3070
ENDCHAR

STARTCHAR A7E2
ENCODING 42978
SWIDTH 960 0
DWIDTH 16 0
BBX 16 16 0 -4
BITMAP
0820
0820
7EFC
0824
08A4
0E64
7825
0855
0895
3903
0100
3FFC
0204
0404
0804
3038
ENDCHAR

STARTCHAR A7E3
ENCODING 42979
SWIDTH 960 0
DWIDTH 16 0
BBX 16 16 0 -4
BITMAP
0808
0410
0220
1FFC
1084
1084
1FFC
1084
1084
1FFC
0080
0080
7FFF
0080
0080
0080
ENDCHAR

STARTCHAR A7E4
ENCODING 42980
SWIDTH 960 0
DWIDTH 16 0
BBX 16 16 0 -4
BITMAP
0100
0100
01FE
0100
0100
3FFE
2002
2002
27F2
2412
2412
27F2
2002
2002
3FFE
2002
ENDCHAR

STARTCHAR A7E5
ENCODING 42981
SWIDTH 960 0
DWIDTH 16 0
BBX 16 16 0 -4
BITMAP
0800
083F
1F21
2121
5221
0C21
0821
1421
27A1
08A1
10A1
2921
0626
0420
1820
6020
ENDCHAR

STARTCHAR A7E6
ENCODING 42982
SWIDTH 960 0
DWIDTH 16 0
BBX 16 16 0 -4
BITMAP
0FF0
0020
0044
3EA8
0490
0888
3386
0000
7FFF
0000
1FFC
1004
1004
101D
1001
0FFF
ENDCHAR

STARTCHAR A7E7
ENCODING 42983
SWIDTH 960 0
DWIDTH 16 0
BBX 16 16 0 -4
BITMAP
0000
3FFF
2040
2040
27FC
2040
2040
2FFE
2000
2040
2040
27FC
2040
4040
4FFE
0000
ENDCHAR

STARTCHAR A7E8
ENCODING 42984
SWIDTH 960 0
DWIDTH 16 0
BBX 16 16 0 -4
BITMAP
0000
3FFF
2000
2040
2020
2FFF
2040
2082
2124
2328
2510
2910
2108
4124
4142
0181
ENDCHAR

STARTCHAR A7E9
ENCODING 42985
SWIDTH 960 0
DWIDTH 16 0
BBX 16 16 0 -4
BITMAP
0100
0210
0408
1FFC
0082
0100
7FFF
0220
0410
180C
6FFB
0000
0FF8
0000
3FFE
0000
ENDCHAR

STARTCHAR A7EA
ENCODING 42986
SWIDTH 960 0
DWIDTH 16 0
BBX 16 16 0 -4
BITMAP
0100
0210
0408
1FFC
0082
0100
7FFF
0220
0410
18CC
6303
0C30
01C0
0E0C
0070
0780
ENDCHAR

STARTCHAR A7EB
ENCODING 42987
SWIDTH 960 0
DWIDTH 16 0
BBX 16 16 0 -4
BITMAP
0000
7E7E
0202
6434
1808
2414
4262
0000
7E7E
0202
2242
2424
1818
1414
2222
0141
ENDCHAR

STARTCHAR A7EC
ENCODING 42988
SWIDTH 960 0
DWIDTH 16 0
BBX 16 16 0 -4
BITMAP
0100
0080
3FFE
0008
0808
0410
0220
7FFF
0000
0000
0FF8
0808
0808
0808
0FF8
0808
ENDCHAR

STARTCHAR A7ED
ENCODING 42989
SWIDTH 960 0
DWIDTH 16 0
BBX 16 16 0 -4
BITMAP
0020
0010
7C10
45FF
4400
4402
4482
4482
4482
4444
7C44
4444
0028
0028
01FF
0000
ENDCHAR

STARTCHAR A7EE
ENCODING 42990
SWIDTH 960 0
DWIDTH 16 0
BBX 16 16 0 -4
BITMAP
0020
0010
7C10
45FF
4420
4420
4440
4484
4488
4450
7C20
4444
0082
010E
01F1
0001
ENDCHAR

STARTCHAR A7EF
ENCODING 42991
SWIDTH 960 0
DWIDTH 16 0
BBX 16 16 0 -4
BITMAP
0000
03FF
7C40
4440
447C
4444
4444
4464
4454
4494
7C84
4484
009D
00E5
0183
0000
ENDCHAR

STARTCHAR A7F0
ENCODING 42992
SWIDTH 960 0
DWIDTH 16 0
BBX 16 16 0 -4
BITMAP
0020
0020
7820
49FC
4924
4924
4924
4924
4924
4FFF
7820
4848
0084
0102
0201
0401
ENDCHAR

STARTCHAR A7F1
ENCODING 42993
SWIDTH 960 0
DWIDTH 16 0
BBX 16 16 0 -4
BITMAP
0010
0090
7890
48FE
4910
4A10
4810
4810
4BFF
4810
7828
4828
0044
0084
0102
0601
ENDCHAR

STARTCHAR A7F2
ENCODING 42994
SWIDTH 960 0
DWIDTH 16 0
BBX 16 16 0 -4
BITMAP
0FF8
0808
0808
0FF8
0080
0080
1FFC
1084
1084
1FFC
1084
1084
1FFC
0081
0081
007F
ENDCHAR

STARTCHAR A7F3
ENCODING 42995
SWIDTH 960 0
DWIDTH 16 0
BBX 16 16 0 -4
BITMAP
0060
0010
7800
49F0
4811
4812
4BD4
4858
4854
4894
7892
4912
0211
0411
0810
0070
ENDCHAR

STARTCHAR A7F4
ENCODING 42996
SWIDTH 960 0
DWIDTH 16 0
BBX 16 16 0 -4
BITMAP
0000
00FE
7800
4800
4800
4800
49FF
4810
4810
4892
7892
4911
0111
0211
0010
0010
ENDCHAR

STARTCHAR A7F5
ENCODING 42997
SWIDTH 960 0
DWIDTH 16 0
BBX 16 16 0 -4
BITMAP
0024
0124
7924
4924
4924
4FFF
4924
4924
4924
4924
793C
4924
0100
0100
01FF
0000
ENDCHAR

STARTCHAR A7F6
ENCODING 42998
SWIDTH 960 0
DWIDTH 16 0
BBX 16 16 0 -4
BITMAP
0000
3E3E
2222
2222
3E3E
0000
0000
7FFF
0200
0400
07FC
0004
0004
0004
0008
0070
ENDCHAR

STARTCHAR A7F7
ENCODING 42999
SWIDTH 960 0
DWIDTH 16 0
BBX 16 16 0 -4
BITMAP
0020
0020
783C
4820
4820
4820
4BFF
4820
4830
4828
7824
4822
0020
0020
0020
0020
ENDCHAR

STARTCHAR A7F8
ENCODING 43000
SWIDTH 960 0
DWIDTH 16 0
BBX 16 16 0 -4
BITMAP
0000
01FE
7902
4902
4902
4902
4902
49FE
4848
4848
7848
4888
0088
0109
0209
0407
ENDCHAR

STARTCHAR A7F9
ENCODING 43001
SWIDTH 960 0
DWIDTH 16 0
BBX 16 16 0 -4
BITMAP
000E
00F0
7C10
4410
4410
45FF
4410
4438
4434
4454
7C52
4492
0091
0110
0010
0010
ENDCHAR

STARTCHAR A7FA
ENCODING 43002
SWIDTH 960 0
DWIDTH 16 0
BBX 16 16 0 -4
BITMAP
0010
0020
7C40
44FE
4482
4482
4482
4482
44FE
4482
7C82
4482
0082
0082
00FE
0082
ENDCHAR

STARTCHAR A7FB
ENCODING 43003
SWIDTH 960 0
DWIDTH 16 0
BBX 16 16 0 -4
BITMAP
0000
3FFE
2002
2002
2FFA
2082
2082
2082
27F2
20A2
2092
2082
2FFA
2002
3FFE
2002
ENDCHAR

STARTCHAR A7FC
ENCODING 43004
SWIDTH 960 0
DWIDTH 16 0
BBX 16 16 0 -4
BITMAP
0000
3FFE
2002
27FA
240A
240A
27FA
2442
27FA
2442
242A
259A
260A
2002
3FFE
2002
ENDCHAR

STARTCHAR A7FD
ENCODING 43005
SWIDTH 960 0
DWIDTH 16 0
BBX 16 16 0 -4
BITMAP
0000
3FFE
2002
2002
2FFA
2082
2082
24F2
2482
2482
2482
2FFA
2002
2002
3FFE
2002
ENDCHAR

STARTCHAR A7FE
ENCODING 43006
SWIDTH 960 0
DWIDTH 16 0
BBX 16 16 0 -4
BITMAP
0000
3FFE
2002
2FFA
288A
288A
2FFA
288A
288A
2FFA
2082
2082
2082
2082
3FFE
2002
ENDCHAR

STARTCHAR A8A1
ENCODING 43169
SWIDTH 960 0
DWIDTH 16 0
BBX 16 16 0 -4
BITMAP
0000
3FFE
2102
2102
2222
2212
27F2
2012
2002
27F2
2412
2412
27F2
2002
3FFE
2002
ENDCHAR

STARTCHAR A8A2
ENCODING 43170
SWIDTH 960 0
DWIDTH 16 0
BBX 16 16 0 -4
BITMAP
0000
3FFE
2222
2222
2422
283E
3082
2082
27F2
2082
2082
2FFA
2002
2002
3FFE
2002
ENDCHAR

STARTCHAR A8A3
ENCODING 43171
SWIDTH 960 0
DWIDTH 16 0
BBX 16 16 0 -4
BITMAP
1000
10FC
1084
1084
7C84
10FC
1084
1084
1084
10FC
1084
1C84
7084
0084
03FF
0000
ENDCHAR

STARTCHAR A8A4
ENCODING 43172
SWIDTH 960 0
DWIDTH 16 0
BBX 16 16 0 -4
BITMAP
1040
1040
107E
1090
7C90
1110
1010
1010
11FF
1010
1028
1E24
7042
0041
0081
0100
ENDCHAR

STARTCHAR A8A5
ENCODING 43173
SWIDTH 960 0
DWIDTH 16 0
BBX 16 16 0 -4
BITMAP
0080
1084
0888
2490
3FFF
4001
4082
0080
0080
1FFC
0080
0080
0080
0080
7FFF
0000
ENDCHAR

STARTCHAR A8A6
ENCODING 43174
SWIDTH 960 0
DWIDTH 16 0
BBX 16 16 0 -4
BITMAP
1000
11FF
1020
1020
7C20
1040
1040
107E
10C2
1142
1042
1E42
7042
0042
007E
0042
ENDCHAR

STARTCHAR A8A7
ENCODING 43175
SWIDTH 960 0
DWIDTH 16 0
BBX 16 16 0 -4
BITMAP
1010
1010
10FE
1092
7C92
1092
11FF
1092
1092
1092
11FF
1C82
7082
0082
0082
008E
ENDCHAR

STARTCHAR A8A8
ENCODING 43176
SWIDTH 960 0
DWIDTH 16 0
BBX 16 16 0 -4
BITMAP
1020
1020
1040
1044
7C82
110E
13F1
1001
1000
11FE
1102
1D02
7102
0102
01FE
0102
ENDCHAR

STARTCHAR A8A9
ENCODING 43177
SWIDTH 960 0
DWIDTH 16 0
BBX 16 16 0 -4
BITMAP
1040
1040
1080
10FF
7D01
1201
1001
10F9
1089
1089
1089
1CF9
7089
0001
0002
001C
ENDCHAR

STARTCHAR A8AA
ENCODING 43178
SWIDTH 960 0
DWIDTH 16 0
BBX 16 16 0 -4
BITMAP
0044
1084
1084
1104
7D04
127F
1304
1504
1144
1124
1D24
7104
0104
0104
0104
011C
ENDCHAR

STARTCHAR A8AB
ENCODING 43179
SWIDTH 960 0
DWIDTH 16 0
BBX 16 16 0 -4
BITMAP
0220
0220
3E3E
0220
0220
0221
0E21
721F
0080
0080
1FFC
0080
0080
0080
7FFE
0000
ENDCHAR

STARTCHAR A8AC
ENCODING 43180
SWIDTH 960 0
DWIDTH 16 0
BBX 16 16 0 -4
BITMAP
0080
0088
0088
3E88
2294
2294
2292
3EA2
0080
0080
1FFC
0080
0080
0080
7FFF
0000
ENDCHAR

STARTCHAR A8AD
ENCODING 43181
SWIDTH 960 0
DWIDTH 16 0
BBX 16 16 0 -4
BITMAP
0080
0080
3FFE
0080
1FFC
0000
7FFF
4001
5FFD
0000
07F0
0410
0410
0811
1011
200F
ENDCHAR

STARTCHAR A8AE
ENCODING 43182
SWIDTH 960 0
DWIDTH 16 0
BBX 16 16 0 -4
BITMAP
0100
0100
7FFF
0220
0410
0808
1004
6003
1FFC
1084
1084
1FFC
1084
1084
1FFC
1004
ENDCHAR

STARTCHAR A8AF
ENCODING 43183
SWIDTH 960 0
DWIDTH 16 0
BBX 16 16 0 -4
BITMAP
0080
0080
00FE
0080
0080
1FFC
1004
1004
1FFC
1084
0080
7FFF
0100
0230
0C0C
7002
ENDCHAR

STARTCHAR A8B0
ENCODING 43184
SWIDTH 960 0
DWIDTH 16 0
BBX 16 16 0 -4
BITMAP
2000
21FF
2410
7E10
2492
2492
2454
2454
2410
45FF
3410
0810
1410
2210
4010
0010
ENDCHAR

STARTCHAR A8B1
ENCODING 43185
SWIDTH 960 0
DWIDTH 16 0
BBX 16 16 0 -4
BITMAP
2000
21FF
2408
7E10
2420
2428
2464
24A2
2521
4420
3420
0820
1420
2200
41FF
0000
ENDCHAR

STARTCHAR A8B2
ENCODING 43186
SWIDTH 960 0
DWIDTH 16 0
BBX 16 16 0 -4
BITMAP
2010
2010
2410
7EFF
2420
2428
2448
24FF
2549
4449
3449
0849
1449
224B
4008
0008
ENDCHAR

STARTCHAR A8B3
ENCODING 43187
SWIDTH 960 0
DWIDTH 16 0
BBX 16 16 0 -4
BITMAP
2040
2048
2444
7E40
25FF
2440
2444
24A4
24A4
4524
3528
0A10
1428
2244
4082
0101
ENDCHAR

STARTCHAR A8B4
ENCODING 43188
SWIDTH 960 0
DWIDTH 16 0
BBX 16 16 0 -4
BITMAP
2000
21FF
2401
7E01
24F9
2401
2401
24F9
2489
4489
3489
08F9
1489
2201
4001
0007
ENDCHAR

STARTCHAR A8B5
ENCODING 43189
SWIDTH 960 0
DWIDTH 16 0
BBX 16 16 0 -4
BITMAP
2000
20FE
2482
7E82
2482
24FE
2488
2488
2488
44FF
3488
0888
1489
2285
40B3
00C1
ENDCHAR

STARTCHAR A8B6
ENCODING 43190
SWIDTH 960 0
DWIDTH 16 0
BBX 16 16 0 -4
BITMAP
2000
20FE
2492
7E92
2492
2492
2492
24FE
2492
4492
3492
0892
1492
22FE
4082
0000
ENDCHAR

STARTCHAR A8B7
ENCODING 43191
SWIDTH 960 0
DWIDTH 16 0
BBX 16 16 0 -4
BITMAP
200E
21F0
2420
7E10
2410
25FE
2402
2404
2408
4410
3420
0820
1440
22A0
4110
000F
ENDCHAR

STARTCHAR A8B8
ENCODING 43192
SWIDTH 960 0
DWIDTH 16 0
BBX 16 16 0 -4
BITMAP
2040
2040
2480
7EFF
2520
2520
2420
243E
2420
4420
3420
083E
1420
2220
4020
0020
ENDCHAR

STARTCHAR A8B9
ENCODING 43193
SWIDTH 960 0
DWIDTH 16 0
BBX 16 16 0 -4
BITMAP
2040
2040
2440
7EFE
2482
2502
24FA
248A
248A
44FA
3482
088C
1480
2281
4081
007F
ENDCHAR

STARTCHAR A8BA
ENCODING 43194
SWIDTH 960 0
DWIDTH 16 0
BBX 16 16 0 -4
BITMAP
2040
2040
247E
7E42
2482
24C4
2528
2410
2428
4444
34B2
0909
1400
2230
4008
0004
ENDCHAR

STARTCHAR A8BB
ENCODING 43195
SWIDTH 960 0
DWIDTH 16 0
BBX 16 16 0 -4
BITMAP
2000
201C
24E0
7E80
2480
2480
24FE
2484
2484
4484
3484
0884
1484
2484
43FF
0000
ENDCHAR

STARTCHAR A8BC
ENCODING 43196
SWIDTH 960 0
DWIDTH 16 0
BBX 16 16 0 -4
BITMAP
01FE
3E20
0840
087E
0802
0F02
381C
0200
0210
7FFF
0410
0410
0FA0
0070
038C
3C02
ENDCHAR

STARTCHAR A8BD
ENCODING 43197
SWIDTH 960 0
DWIDTH 16 0
BBX 16 16 0 -4
BITMAP
1000
1000
7F7E
1142
1142
217E
2E42
4200
0210
7FFF
0410
0410
0FA0
0070
038C
3C02
ENDCHAR

STARTCHAR A8BE
ENCODING 43198
SWIDTH 960 0
DWIDTH 16 0
BBX 16 16 0 -4
BITMAP
1FFC
1084
1084
1FFC
1084
1084
1FFC
0200
0210
7FFF
0410
0410
0FA0
0070
038C
3C02
ENDCHAR

STARTCHAR A8BF
ENCODING 43199
SWIDTH 960 0
DWIDTH 16 0
BBX 16 16 0 -4
BITMAP
0020
2010
2410
25FF
7E10
2410
24FE
2492
2492
4492
3492
0892
1492
2296
4010
0010
ENDCHAR

STARTCHAR A8C0
ENCODING 43200
SWIDTH 960 0
DWIDTH 16 0
BBX 16 16 0 -4
BITMAP
0000
21FF
2402
2402
7EF2
2492
2492
2492
2492
44F2
3492
0802
1402
2202
4002
000E
ENDCHAR

STARTCHAR A8C1
ENCODING 43201
SWIDTH 960 0
DWIDTH 16 0
BBX 16 16 0 -4
BITMAP
0000
21FF
2420
2420
7E20
2440
2440
247E
24C2
4542
3442
0842
1442
2242
407E
0042
ENDCHAR

STARTCHAR A8C2
ENCODING 43202
SWIDTH 960 0
DWIDTH 16 0
BBX 16 16 0 -4
BITMAP
2100
2100
2100
2BEF
7D29
2929
2929
2929
4929
4929
6929
1129
292F
2A29
4220
04C0
ENDCHAR

STARTCHAR A8C3
ENCODING 43203
SWIDTH 960 0
DWIDTH 16 0
BBX 16 16 0 -4
BITMAP
0000
20FE
2482
2482
7E82
2482
24FE
2480
2480
44FF
3481
0881
1481
2281
40FF
0080
ENDCHAR

STARTCHAR A8C4
ENCODING 43204
SWIDTH 960 0
DWIDTH 16 0
BBX 16 16 0 -4
BITMAP
2000
23FC
2084
2888
7C8F
2881
2901
29F9
4A09
4816
6820
13FE
2820
2820
4020
00E0
ENDCHAR

STARTCHAR A8C5
ENCODING 43205
SWIDTH 960 0
DWIDTH 16 0
BBX 16 16 0 -4
BITMAP
0010
2090
2490
24FE
7E90
2510
2510
2410
25FF
4410
3428
0828
1444
2244
4082
0101
ENDCHAR

STARTCHAR A8C6
ENCODING 43206
SWIDTH 960 0
DWIDTH 16 0
BBX 16 16 0 -4
BITMAP
0000
20EE
24AA
24AA
7EAA
24AA
24AA
24AA
25FF
44AA
34AA
08AA
14AA
22AA
40AA
0166
ENDCHAR

STARTCHAR A8C7
ENCODING 43207
SWIDTH 960 0
DWIDTH 16 0
BBX 16 16 0 -4
BITMAP
0010
2010
2428
2424
7E42
2491
2510
2410
2454
4452
3491
0891
1510
2210
4010
0030
ENDCHAR

STARTCHAR A8C8
ENCODING 43208
SWIDTH 960 0
DWIDTH 16 0
BBX 16 16 0 -4
BITMAP
7FFE
0002
3FF2
0002
1FC2
1042
1FC2
001C
0000
0FF0
0060
0080
7FFF
0080
0080
0380
ENDCHAR

STARTCHAR A8C9
ENCODING 43209
SWIDTH 960 0
DWIDTH 16 0
BBX 16 16 0 -4
BITMAP
0000
3E3F
2201
3202
2A04
2A08
2208
7F7F
2208
3208
4A08
4A08
4208
7F08
0208
0C38
ENDCHAR

STARTCHAR A8CA
ENCODING 43210
SWIDTH 960 0
DWIDTH 16 0
BBX 16 16 0 -4
BITMAP
0100
2080
3FFF
4001
4002
1F10
0110
0110
1F10
1020
3F20
0124
0142
014E
0272
1C02
ENDCHAR

STARTCHAR A8CB
ENCODING 43211
SWIDTH 960 0
DWIDTH 16 0
BBX 16 16 0 -4
BITMAP
0100
2080
3FFF
4001
4442
0240
1140
0840
0440
0080
7FFF
0120
0210
0408
0804
3003
ENDCHAR

STARTCHAR A8CC
ENCODING 43212
SWIDTH 960 0
DWIDTH 16 0
BBX 16 16 0 -4
BITMAP
0100
2080
3FFF
4001
4102
0080
1FFC
0080
0080
0080
0FF8
0080
0080
0080
3FFE
0000
ENDCHAR

STARTCHAR A8CD
ENCODING 43213
SWIDTH 960 0
DWIDTH 16 0
BBX 16 16 0 -4
BITMAP
0100
2080
3FFF
4001
4082
0080
1FFC
0080
0FF8
0080
7FFF
0140
0220
0410
080C
3003
ENDCHAR

STARTCHAR A8CE
ENCODING 43214
SWIDTH 960 0
DWIDTH 16 0
BBX 16 16 0 -4
BITMAP
0100
2080
3FFF
4001
4002
1FFC
0080
0080
0080
0FF8
0080
0090
0088
0088
3FFE
0000
ENDCHAR

STARTCHAR A8CF
ENCODING 43215
SWIDTH 960 0
DWIDTH 16 0
BBX 16 16 0 -4
BITMAP
0100
2080
3FFF
4001
4082
0080
3FFE
0080
0080
0080
1FFC
1004
1004
1004
1FFC
1004
ENDCHAR

STARTCHAR A8D0
ENCODING 43216
SWIDTH 960 0
DWIDTH 16 0
BBX 16 16 0 -4
BITMAP
0002
3F82
2002
2002
2F7F
2902
2902
2922
2912
290A
2F02
2002
2002
3F82
2002
000E
ENDCHAR

STARTCHAR A8D1
ENCODING 43217
SWIDTH 960 0
DWIDTH 16 0
BBX 16 16 0 -4
BITMAP
0080
06B0
188C
6083
0080
3FFE
2002
2002
27F2
2412
2412
2412
27F2
2412
2002
200C
ENDCHAR

STARTCHAR A8D2
ENCODING 43218
SWIDTH 960 0
DWIDTH 16 0
BBX 16 16 0 -4
BITMAP
0000
1FFE
1002
1002
1FFE
1000
1080
1040
17FE
1000
1204
1108
2108
2090
4FFF
0000
ENDCHAR

STARTCHAR A8D3
ENCODING 43219
SWIDTH 960 0
DWIDTH 16 0
BBX 16 16 0 -4
BITMAP
0000
1FFE
1002
1002
1FFE
1000
1040
1040
175C
1040
1040
175C
2040
2041
4041
003F
ENDCHAR

STARTCHAR A8D4
ENCODING 43220
SWIDTH 960 0
DWIDTH 16 0
BBX 16 16 0 -4
BITMAP
0000
1FFE
1002
1002
1FFE
1000
1048
1248
1248
1FFE
1248
1248
2278
2200
4200
03FE
ENDCHAR

STARTCHAR A8D5
ENCODING 43221
SWIDTH 960 0
DWIDTH 16 0
BBX 16 16 0 -4
BITMAP
0000
1FFE
1002
1002
1FFE
1000
1020
1020
13FE
1222
1222
13FE
2222
2222
43FE
0000
ENDCHAR

STARTCHAR A8D6
ENCODING 43222
SWIDTH 960 0
DWIDTH 16 0
BBX 16 16 0 -4
BITMAP
0000
10FE
1082
5482
5482
54FE
5480
54A0
54A0
54BE
54A0
7CA0
44A1
0121
011F
0200
ENDCHAR

STARTCHAR A8D7
ENCODING 43223
SWIDTH 960 0
DWIDTH 16 0
BBX 16 16 0 -4
BITMAP
0006
10F8
1088
5488
5488
5488
54FE
5488
5488
5488
5489
7CA5
44C5
0003
00F9
0000
ENDCHAR

STARTCHAR A8D8
ENCODING 43224
SWIDTH 960 0
DWIDTH 16 0
BBX 16 16 0 -4
BITMAP
0080
2082
2082
3FFE
0000
0700
383E
2222
2222
2222
2222
2E22
322E
0420
0820
3020
ENDCHAR

STARTCHAR A8D9
ENCODING 43225
SWIDTH 960 0
DWIDTH 16 0
BBX 16 16 0 -4
BITMAP
0078
1F80
0080
0080
7FFF
02A0
0498
1884
6082
0000
0080
2082
2082
2082
3FFE
2002
ENDCHAR

STARTCHAR A8DA
ENCODING 43226
SWIDTH 960 0
DWIDTH 16 0
BBX 16 16 0 -4
BITMAP
0000
10FF
1080
5480
54BE
5488
5488
5488
5488
54FF
5488
7C88
4488
0108
0108
0208
ENDCHAR

STARTCHAR A8DB
ENCODING 43227
SWIDTH 960 0
DWIDTH 16 0
BBX 16 16 0 -4
BITMAP
0000
11FF
1002
5402
54F2
5492
5492
5492
5492
54F2
5492
7C02
4402
0002
0002
000E
ENDCHAR

STARTCHAR A8DC
ENCODING 43228
SWIDTH 960 0
DWIDTH 16 0
BBX 16 16 0 -4
BITMAP
0000
11FE
1022
5422
5422
5442
5442
548C
5500
54FE
5482
7C82
4482
0082
00FE
0082
ENDCHAR

STARTCHAR A8DD
ENCODING 43229
SWIDTH 960 0
DWIDTH 16 0
BBX 16 16 0 -4
BITMAP
0040
1040
1080
54FF
5520
5520
5420
543E
5420
5420
5420
7C3E
4420
0020
0020
0020
ENDCHAR

STARTCHAR A8DE
ENCODING 43230
SWIDTH 960 0
DWIDTH 16 0
BBX 16 16 0 -4
BITMAP
0000
101C
10E0
5480
5480
5480
54FE
5484
5484
5484
5484
7C84
4484
0084
03FF
0000
ENDCHAR

STARTCHAR A8DF
ENCODING 43231
SWIDTH 960 0
DWIDTH 16 0
BBX 16 16 0 -4
BITMAP
0080
2082
3FFE
21C2
0220
0410
0808
17F4
6003
0000
1FF8
0010
0220
0140
0080
0040
ENDCHAR

STARTCHAR A8E0
ENCODING 43232
SWIDTH 960 0
DWIDTH 16 0
BBX 16 16 0 -4
BITMAP
0000
7F3E
0922
0922
0922
1122
1122
263E
4022
3F20
2120
2120
2121
2121
3F21
211F
ENDCHAR

STARTCHAR A8E1
ENCODING 43233
SWIDTH 960 0
DWIDTH 16 0
BBX 16 16 0 -4
BITMAP
1010
1010
1010
7DFF
5410
5410
5410
54FE
5410
5438
5454
5452
1091
1110
1010
1010
ENDCHAR

STARTCHAR A8E2
ENCODING 43234
SWIDTH 960 0
DWIDTH 16 0
BBX 16 16 0 -4
BITMAP
0848
1044
1040
37FF
5020
1010
1089
1087
0080
3FFE
2082
2082
2082
208E
0080
0080
ENDCHAR

STARTCHAR A8E3
ENCODING 43235
SWIDTH 960 0
DWIDTH 16 0
BBX 16 16 0 -4
BITMAP
0202
0404
0808
3E3E
0808
0808
0808
0808
7F7F
0808
0808
0808
1008
1008
2008
4008
ENDCHAR

STARTCHAR A8E4
ENCODING 43236
SWIDTH 960 0
DWIDTH 16 0
BBX 16 16 0 -4
BITMAP
0080
0040
3FFF
2000
2000
23F8
2208
2208
23F8
2208
2208
23F8
2208
4208
4FFE
0000
ENDCHAR

STARTCHAR A8E5
ENCODING 43237
SWIDTH 960 0
DWIDTH 16 0
BBX 16 16 0 -4
BITMAP
0080
0040
3FFF
2000
2000
27FC
2444
2444
27FC
2444
2444
27FC
2040
4040
4040
0040
ENDCHAR

STARTCHAR A8E6
ENCODING 43238
SWIDTH 960 0
DWIDTH 16 0
BBX 16 16 0 -4
BITMAP
0080
0040
3FFF
2000
21C0
261E
2492
2492
2492
2492
2592
2692
2496
4110
4210
0410
ENDCHAR

STARTCHAR A8E7
ENCODING 43239
SWIDTH 960 0
DWIDTH 16 0
BBX 16 16 0 -4
BITMAP
0080
0040
3FFF
2000
2040
2040
27FC
2444
2444
2444
27FC
2444
2444
4444
47FC
0000
ENDCHAR

STARTCHAR A8E8
ENCODING 43240
SWIDTH 960 0
DWIDTH 16 0
BBX 16 16 0 -4
BITMAP
0080
0040
3FFF
2080
2080
20FC
2104
2288
2450
2020
2050
218C
2663
4010
40C0
0030
ENDCHAR

STARTCHAR A8E9
ENCODING 43241
SWIDTH 960 0
DWIDTH 16 0
BBX 16 16 0 -4
BITMAP
0020
7820
0820
0BFE
1222
2222
7A22
0BFE
0A22
0A22
4A22
2BFE
1000
2C00
43FF
0000
ENDCHAR

STARTCHAR A8EA
ENCODING 43242
SWIDTH 960 0
DWIDTH 16 0
BBX 16 16 0 -4
BITMAP
0000
79FE
0902
0902
117A
214A
794A
094A
097A
0902
4902
290E
1000
2C00
43FF
0000
ENDCHAR

STARTCHAR A8EB
ENCODING 43243
SWIDTH 960 0
DWIDTH 16 0
BBX 16 16 0 -4
BITMAP
0020
7840
09FE
0902
1102
2102
79FE
0902
0902
0902
49FE
2902
1000
2C00
43FF
0000
ENDCHAR

STARTCHAR A8EC
ENCODING 43244
SWIDTH 960 0
DWIDTH 16 0
BBX 16 16 0 -4
BITMAP
1224
1224
1224
1224
3F7E
1224
1224
1224
1224
7F7F
1224
1224
1224
2244
2244
4284
ENDCHAR

STARTCHAR A8ED
ENCODING 43245
SWIDTH 960 0
DWIDTH 16 0
BBX 16 16 0 -4
BITMAP
0080
0080
0FF8
0080
0080
3FFE
0208
0404
3FFA
0002
0410
0410
7FFF
0410
0810
3010
ENDCHAR

STARTCHAR A8EE
ENCODING 43246
SWIDTH 960 0
DWIDTH 16 0
BBX 16 16 0 -4
BITMAP
0000
7DFE
0480
0480
3C80
20FE
2082
4082
7C82
4482
04FE
0482
0480
0480
0480
39FF
ENDCHAR

STARTCHAR A8EF
ENCODING 43247
SWIDTH 960 0
DWIDTH 16 0
BBX 16 16 0 -4
BITMAP
0080
7880
09FF
0900
3A10
2090
209E
40F2
7B92
4892
0894
0890
0891
0881
0881
307F
ENDCHAR

STARTCHAR A8F0
ENCODING 43248
SWIDTH 960 0
DWIDTH 16 0
BBX 16 16 0 -4
BITMAP
0040
7840
0880
08FF
3910
2210
2010
4010
7854
4892
0892
0911
0A11
0810
0810
3070
ENDCHAR

STARTCHAR A8F1
ENCODING 43249
SWIDTH 960 0
DWIDTH 16 0
BBX 16 16 0 -4
BITMAP
0000
1FF8
0008
0008
0FF8
0008
0008
7FFF
0080
3086
0CD8
01A0
0698
1884
6082
0380
ENDCHAR

STARTCHAR A8F2
ENCODING 43250
SWIDTH 960 0
DWIDTH 16 0
BBX 16 16 0 -4
BITMAP
0802
0802
1004
1008
2210
2122
4682
7884
0008
3F11
2121
2102
2104
2108
3F10
2160
ENDCHAR

STARTCHAR A8F3
ENCODING 43251
SWIDTH 960 0
DWIDTH 16 0
BBX 16 16 0 -4
BITMAP
1102
1102
1104
3F88
1110
1902
1502
1504
1108
7FD0
1101
1101
1102
2104
2108
4130
ENDCHAR

STARTCHAR A8F4
ENCODING 43252
SWIDTH 960 0
DWIDTH 16 0
BBX 16 16 0 -4
BITMAP
0810
1010
2010
4010
09FF
0911
1111
1111
2111
51FF
1111
1111
1111
1111
11FF
1101
ENDCHAR

STARTCHAR A8F5
ENCODING 43253
SWIDTH 960 0
DWIDTH 16 0
BBX 16 16 0 -4
BITMAP
0800
11FE
2002
4084
0848
0830
10CC
1303
2010
5010
11FE
1010
1010
1010
13FF
1000
ENDCHAR

STARTCHAR A8F6
ENCODING 43254
SWIDTH 960 0
DWIDTH 16 0
BBX 16 16 0 -4
BITMAP
0820
1120
2120
4120
09FE
0A20
1220
1420
2020
51FC
1020
1020
1020
1020
17FF
1000
ENDCHAR

STARTCHAR A8F7
ENCODING 43255
SWIDTH 960 0
DWIDTH 16 0
BBX 16 16 0 -4
BITMAP
1020
1010
1010
5BFF
5420
5420
5040
1084
1088
1050
1020
1044
1082
110E
11F1
1001
ENDCHAR

STARTCHAR A8F8
ENCODING 43256
SWIDTH 960 0
DWIDTH 16 0
BBX 16 16 0 -4
BITMAP
1000
13FF
1100
5900
5500
55FE
5102
1102
1102
11FE
1102
1100
1100
1100
13FF
1000
ENDCHAR

STARTCHAR A8F9
ENCODING 43257
SWIDTH 960 0
DWIDTH 16 0
BBX 16 16 0 -4
BITMAP
1084
1084
1084
5884
57FF
5484
5084
1084
1084
10FC
1084
1084
1084
1084
10FC
1084
ENDCHAR

STARTCHAR A8FA
ENCODING 43258
SWIDTH 960 0
DWIDTH 16 0
BBX 16 16 0 -4
BITMAP
1010
1010
11FF
5911
5511
5512
5110
11FE
1102
1142
1144
1128
1210
1228
1444
1183
ENDCHAR

STARTCHAR A8FB
ENCODING 43259
SWIDTH 960 0
DWIDTH 16 0
BBX 16 16 0 -4
BITMAP
0000
1FFC
0080
0080
7FFF
0120
0210
0C0C
3103
4080
0444
2402
2409
4409
43F8
0000
ENDCHAR

STARTCHAR A8FC
ENCODING 43260
SWIDTH 960 0
DWIDTH 16 0
BBX 16 16 0 -4
BITMAP
0000
1FFC
1080
2080
3FFE
0120
0621
1821
611F
0080
0444
2402
2409
4409
43F8
0000
ENDCHAR

STARTCHAR A8FD
ENCODING 43261
SWIDTH 960 0
DWIDTH 16 0
BBX 16 16 0 -4
BITMAP
0000
3FFC
0208
0210
07FE
0504
0888
1070
218C
4603
0080
0440
2442
2409
2409
43F8
ENDCHAR

STARTCHAR A8FE
ENCODING 43262
SWIDTH 960 0
DWIDTH 16 0
BBX 16 16 0 -4
BITMAP
0060
0410
0408
0804
1102
2210
0408
08F4
1F04
0000
0080
0440
2442
2409
2409
43F8
ENDCHAR

STARTCHAR A9A1
ENCODING 43425
SWIDTH 960 0
DWIDTH 16 0
BBX 16 16 0 -4
BITMAP
1010
1010
1010
58FE
5410
5410
5010
11FF
1010
1038
1054
1092
1111
1210
1010
1010
ENDCHAR

STARTCHAR A9A2
ENCODING 43426
SWIDTH 960 0
DWIDTH 16 0
BBX 16 16 0 -4
BITMAP
1024
1124
1124
5924
5524
57FF
5124
1124
1124
1124
113C
1124
1100
1100
11FF
1000
ENDCHAR

STARTCHAR A9A3
ENCODING 43427
SWIDTH 960 0
DWIDTH 16 0
BBX 16 16 0 -4
BITMAP
1010
1010
1010
59FF
5410
5430
5058
1054
1092
1111
1210
10FE
1010
1010
1010
1010
ENDCHAR

STARTCHAR A9A4
ENCODING 43428
SWIDTH 960 0
DWIDTH 16 0
BBX 16 16 0 -4
BITMAP
1010
1010
1010
5810
55FF
5420
5020
1040
107E
10C2
1142
1242
1042
1042
107E
1042
ENDCHAR

STARTCHAR A9A5
ENCODING 43429
SWIDTH 960 0
DWIDTH 16 0
BBX 16 16 0 -4
BITMAP
1010
1010
1010
7CFE
1010
1010
1010
11FF
1C10
7038
1054
1092
1111
1210
1010
3010
ENDCHAR

STARTCHAR A9A6
ENCODING 43430
SWIDTH 960 0
DWIDTH 16 0
BBX 16 16 0 -4
BITMAP
1000
13FF
1002
7C02
11F2
1112
1112
1112
1D12
71F2
1112
1002
1002
1002
1002
300E
ENDCHAR

STARTCHAR A9A7
ENCODING 43431
SWIDTH 960 0
DWIDTH 16 0
BBX 16 16 0 -4
BITMAP
1010
1010
11FF
7C20
1044
1042
109E
11E2
1C00
7048
1048
1048
1049
1089
1109
3207
ENDCHAR

STARTCHAR A9A8
ENCODING 43432
SWIDTH 960 0
DWIDTH 16 0
BBX 16 16 0 -4
BITMAP
1000
11FF
1004
7C08
1010
1038
1054
1092
1D11
7010
1010
1010
1010
1000
11FF
3000
ENDCHAR

STARTCHAR A9A9
ENCODING 43433
SWIDTH 960 0
DWIDTH 16 0
BBX 16 16 0 -4
BITMAP
1020
1020
103C
7C20
1020
1020
13FF
1020
1C30
7028
1024
1022
1020
1020
1020
3020
ENDCHAR

STARTCHAR A9AA
ENCODING 43434
SWIDTH 960 0
DWIDTH 16 0
BBX 16 16 0 -4
BITMAP
1000
11FE
1102
7D02
1102
1102
1102
1102
1DFE
7102
1000
1048
1084
1082
1101
3200
ENDCHAR

STARTCHAR A9AB
ENCODING 43435
SWIDTH 960 0
DWIDTH 16 0
BBX 16 16 0 -4
BITMAP
1000
13FF
1080
7C80
10FC
1084
1084
10A4
1C94
7094
1104
1104
1105
1175
1383
3000
ENDCHAR

STARTCHAR A9AC
ENCODING 43436
SWIDTH 960 0
DWIDTH 16 0
BBX 16 16 0 -4
BITMAP
10C0
130F
1209
7A49
1249
1249
1249
1249
1E49
7249
12C9
134B
1048
1088
1108
3208
ENDCHAR

STARTCHAR A9AD
ENCODING 43437
SWIDTH 960 0
DWIDTH 16 0
BBX 16 16 0 -4
BITMAP
100E
11F4
1124
7D24
1124
1124
1124
1124
1D24
7124
1124
1142
1152
124A
12F9
3409
ENDCHAR

STARTCHAR A9AE
ENCODING 43438
SWIDTH 960 0
DWIDTH 16 0
BBX 16 16 0 -4
BITMAP
1020
1010
11FF
7D01
1101
1040
1040
1040
1C4E
7070
1040
1040
1040
1041
1041
303F
ENDCHAR

STARTCHAR A9AF
ENCODING 43439
SWIDTH 960 0
DWIDTH 16 0
BBX 16 16 0 -4
BITMAP
1010
1008
1008
7DFF
1100
1108
1108
1108
1D10
7110
1114
1122
1122
114D
1271
3201
ENDCHAR

STARTCHAR A9B0
ENCODING 43440
SWIDTH 960 0
DWIDTH 16 0
BBX 16 16 0 -4
BITMAP
1000
11FF
1010
7C10
10FE
1010
1010
10FE
1C10
7010
11FF
1010
1010
1010
1010
3010
ENDCHAR

STARTCHAR A9B1
ENCODING 43441
SWIDTH 960 0
DWIDTH 16 0
BBX 16 16 0 -4
BITMAP
1000
11FF
1010
7C10
1010
11FF
1111
1111
1D29
7145
1183
1101
1101
1101
1101
3107
ENDCHAR

STARTCHAR A9B2
ENCODING 43442
SWIDTH 960 0
DWIDTH 16 0
BBX 16 16 0 -4
BITMAP
1100
1100
1100
7D0F
17E9
1129
1129
1129
1D29
7129
1129
1129
112F
1229
1220
34C0
ENDCHAR

STARTCHAR A9B3
ENCODING 43443
SWIDTH 960 0
DWIDTH 16 0
BBX 16 16 0 -4
BITMAP
1000
11FC
1104
7D04
1104
1104
11FC
1104
1D04
7104
1104
11FC
1000
1000
17FF
3000
ENDCHAR

STARTCHAR A9B4
ENCODING 43444
SWIDTH 960 0
DWIDTH 16 0
BBX 16 16 0 -4
BITMAP
1000
11FE
1102
7D02
1102
1102
1102
11FE
1C48
7048
1048
1048
1088
1089
1109
3207
ENDCHAR

STARTCHAR A9B5
ENCODING 43445
SWIDTH 960 0
DWIDTH 16 0
BBX 16 16 0 -4
BITMAP
1004
1104
1104
7D04
1104
1104
1104
1104
1D44
7124
1134
1148
118A
1111
1221
30C1
ENDCHAR

STARTCHAR A9B6
ENCODING 43446
SWIDTH 960 0
DWIDTH 16 0
BBX 16 16 0 -4
BITMAP
1000
1100
110E
7D0A
11EA
112A
112A
122A
1D4A
714A
108A
1093
1140
1120
121F
3400
ENDCHAR

STARTCHAR A9B7
ENCODING 43447
SWIDTH 960 0
DWIDTH 16 0
BBX 16 16 0 -4
BITMAP
1000
103C
11C0
7D00
1100
1100
11FE
1104
1D04
7104
1104
1104
1104
1104
17FF
3000
ENDCHAR

STARTCHAR A9B8
ENCODING 43448
SWIDTH 960 0
DWIDTH 16 0
BBX 16 16 0 -4
BITMAP
101C
11E0
1100
7DFE
1102
1102
11FE
1100
1D7E
7104
1108
1110
1221
1241
147F
3000
ENDCHAR

STARTCHAR A9B9
ENCODING 43449
SWIDTH 960 0
DWIDTH 16 0
BBX 16 16 0 -4
BITMAP
0100
0080
7FFF
0410
0220
01C0
0630
180C
680B
0FF8
0808
0808
0FF8
0808
1008
2008
ENDCHAR

STARTCHAR A9BA
ENCODING 43450
SWIDTH 960 0
DWIDTH 16 0
BBX 16 16 0 -4
BITMAP
0004
3F04
0024
0014
0004
0004
7FA4
1214
1204
1204
12FF
1204
1284
2304
2204
4004
ENDCHAR

STARTCHAR A9BB
ENCODING 43451
SWIDTH 960 0
DWIDTH 16 0
BBX 16 16 0 -4
BITMAP
0E0E
3070
2040
2040
2040
3F7F
2444
2444
2444
2444
2444
2444
2484
4484
4504
0404
ENDCHAR

STARTCHAR A9BC
ENCODING 43452
SWIDTH 960 0
DWIDTH 16 0
BBX 16 16 0 -4
BITMAP
2010
1010
1028
7C24
2042
2081
2144
3C44
2444
2444
2444
2444
2444
2484
4484
5904
ENDCHAR

STARTCHAR A9BD
ENCODING 43453
SWIDTH 960 0
DWIDTH 16 0
BBX 16 16 0 -4
BITMAP
0010
0010
7C10
44FE
4410
4410
4410
7DFF
4410
4410
4428
4424
7C44
0042
0082
0101
ENDCHAR

STARTCHAR A9BE
ENCODING 43454
SWIDTH 960 0
DWIDTH 16 0
BBX 16 16 0 -4
BITMAP
0040
0040
7C80
44FE
4510
4510
4410
7C10
47FF
4410
4410
4410
7C10
0010
0010
0010
ENDCHAR

STARTCHAR A9BF
ENCODING 43455
SWIDTH 960 0
DWIDTH 16 0
BBX 16 16 0 -4
BITMAP
0000
3FFE
0040
0080
0398
0C84
3082
0080
0000
1FFC
1004
1004
1FFC
1004
1004
1FFC
ENDCHAR

STARTCHAR A9C0
ENCODING 43456
SWIDTH 960 0
DWIDTH 16 0
BBX 16 16 0 -4
BITMAP
0000
1FFC
1004
1004
1FFC
1004
1004
1FFC
0100
0080
7FFF
0000
0410
0808
1004
2002
ENDCHAR

STARTCHAR A9C1
ENCODING 43457
SWIDTH 960 0
DWIDTH 16 0
BBX 16 16 0 -4
BITMAP
1FFC
1004
1FFC
1004
1FFC
0100
0080
7FFF
0200
0200
03FC
0404
0404
0804
1004
6038
ENDCHAR

STARTCHAR A9C2
ENCODING 43458
SWIDTH 960 0
DWIDTH 16 0
BBX 16 16 0 -4
BITMAP
0010
0010
79FF
4810
4810
49FF
4911
7911
4911
4911
4911
4911
7911
0116
0010
0010
ENDCHAR

STARTCHAR A9C3
ENCODING 43459
SWIDTH 960 0
DWIDTH 16 0
BBX 16 16 0 -4
BITMAP
0080
7FFF
0080
1084
1FFC
0081
0081
007F
0000
1FFC
1004
1004
1FFC
1004
1004
1FFC
ENDCHAR

STARTCHAR A9C4
ENCODING 43460
SWIDTH 960 0
DWIDTH 16 0
BBX 16 16 0 -4
BITMAP
0040
3C40
2480
24FE
2510
3D10
2410
2410
27FF
3C10
2410
2410
2410
2410
4410
4C10
ENDCHAR

STARTCHAR A9C5
ENCODING 43461
SWIDTH 960 0
DWIDTH 16 0
BBX 16 16 0 -4
BITMAP
0018
3C04
2444
2442
2482
3C81
2500
24FE
2422
3C22
2422
2422
2442
2442
4482
4D0C
ENDCHAR

STARTCHAR A9C6
ENCODING 43462
SWIDTH 960 0
DWIDTH 16 0
BBX 16 16 0 -4
BITMAP
0810
0810
0810
7EFE
0812
0812
1812
1C12
2BFF
2810
4810
4824
0822
0842
0881
0901
ENDCHAR

STARTCHAR A9C7
ENCODING 43463
SWIDTH 960 0
DWIDTH 16 0
BBX 16 16 0 -4
BITMAP
0800
0810
0810
7E10
0810
0890
1890
1C9E
2A90
2890
4890
4890
0890
0890
0BFF
0800
ENDCHAR

STARTCHAR A9C8
ENCODING 43464
SWIDTH 960 0
DWIDTH 16 0
BBX 16 16 0 -4
BITMAP
0800
080E
08F0
7E10
0810
0810
1810
1DFF
2A10
2828
4828
4844
0844
0882
0902
0A01
ENDCHAR

STARTCHAR A9C9
ENCODING 43465
SWIDTH 960 0
DWIDTH 16 0
BBX 16 16 0 -4
BITMAP
0800
08FE
0882
7E82
0882
08FE
1882
1C82
2A82
28FE
4882
4882
0882
0902
0902
0A0E
ENDCHAR

STARTCHAR A9CA
ENCODING 43466
SWIDTH 960 0
DWIDTH 16 0
BBX 16 16 0 -4
BITMAP
1000
106F
11C9
7D09
1109
1109
3109
3909
5509
5109
1129
1149
118E
1008
1008
1008
ENDCHAR

STARTCHAR A9CB
ENCODING 43467
SWIDTH 960 0
DWIDTH 16 0
BBX 16 16 0 -4
BITMAP
0820
0820
0840
7E44
0882
0881
1907
1DF9
2A49
2848
4848
4888
0888
0909
0909
0A07
ENDCHAR

STARTCHAR A9CC
ENCODING 43468
SWIDTH 960 0
DWIDTH 16 0
BBX 16 16 0 -4
BITMAP
0080
0080
7FFF
0080
3FFE
2082
21C6
06B0
188C
6083
0300
00C0
0020
0300
00C0
0020
ENDCHAR

STARTCHAR A9CD
ENCODING 43469
SWIDTH 960 0
DWIDTH 16 0
BBX 16 16 0 -4
BITMAP
0810
0810
09FF
7E10
0810
0810
18FE
1C10
2A10
2810
49FF
4810
0810
0810
0810
0810
ENDCHAR

STARTCHAR A9CE
ENCODING 43470
SWIDTH 960 0
DWIDTH 16 0
BBX 16 16 0 -4
BITMAP
1000
13FF
1100
7D02
1122
1122
3114
3914
5508
5114
1122
1142
1100
1100
10FF
1000
ENDCHAR

STARTCHAR A9CF
ENCODING 43471
SWIDTH 960 0
DWIDTH 16 0
BBX 16 16 0 -4
BITMAP
1000
10FC
1084
7C84
1084
13FF
3084
3884
5484
53FF
1084
1084
1084
1084
1084
109C
ENDCHAR

STARTCHAR A9D0
ENCODING 43472
SWIDTH 960 0
DWIDTH 16 0
BBX 16 16 0 -4
BITMAP
0884
0884
0884
7E84
08FF
0880
1880
1C80
2AFE
2882
4882
4882
0882
0902
0902
0A02
ENDCHAR

STARTCHAR A9D1
ENCODING 43473
SWIDTH 960 0
DWIDTH 16 0
BBX 16 16 0 -4
BITMAP
0808
0808
080F
7E78
0848
0848
1888
1CFF
2A09
2819
4829
4849
088E
0908
0808
0808
ENDCHAR

STARTCHAR A9D2
ENCODING 43474
SWIDTH 960 0
DWIDTH 16 0
BBX 16 16 0 -4
BITMAP
0060
0410
0408
0804
1102
2210
0408
08F4
1F04
0080
0080
7FFF
0490
0888
1084
0080
ENDCHAR

STARTCHAR A9D3
ENCODING 43475
SWIDTH 960 0
DWIDTH 16 0
BBX 16 16 0 -4
BITMAP
0820
0820
143F
1249
2149
4049
3E8A
0008
0008
3F14
0114
0214
0222
0422
0842
0081
ENDCHAR

STARTCHAR A9D4
ENCODING 43476
SWIDTH 960 0
DWIDTH 16 0
BBX 16 16 0 -4
BITMAP
0020
7F20
203F
2049
2249
3249
2A8A
2408
2408
2A14
2914
3014
2022
2022
1F42
0081
ENDCHAR

STARTCHAR A9D5
ENCODING 43477
SWIDTH 960 0
DWIDTH 16 0
BBX 16 16 0 -4
BITMAP
0080
0080
08FC
0880
0880
0880
7FFF
0080
0080
0880
08FC
0880
0880
1480
1280
21FF
ENDCHAR

STARTCHAR A9D6
ENCODING 43478
SWIDTH 960 0
DWIDTH 16 0
BBX 16 16 0 -4
BITMAP
0080
0880
08FC
0880
0880
0880
7FFF
0080
0498
0884
1082
2085
4099
0060
0380
3C00
ENDCHAR

STARTCHAR A9D7
ENCODING 43479
SWIDTH 960 0
DWIDTH 16 0
BBX 16 16 0 -4
BITMAP
0000
7F7E
1042
1042
1E42
127E
1242
1242
2A42
267E
4242
0442
0482
0882
1102
220E
ENDCHAR

STARTCHAR A9D8
ENCODING 43480
SWIDTH 960 0
DWIDTH 16 0
BBX 16 16 0 -4
BITMAP
0000
7F7C
1044
1044
1E44
1283
1300
12FE
2A02
2644
4244
0428
0410
0828
1044
2183
ENDCHAR

STARTCHAR A9D9
ENCODING 43481
SWIDTH 960 0
DWIDTH 16 0
BBX 16 16 0 -4
BITMAP
0000
7F3C
2024
2024
2224
3243
2A80
247E
2402
2A22
2924
3014
2008
2014
1F22
0041
ENDCHAR

STARTCHAR A9DA
ENCODING 43482
SWIDTH 960 0
DWIDTH 16 0
BBX 16 16 0 -4
BITMAP
0008
3E08
2248
324B
2A4D
2A79
22C9
7F49
224A
3248
4A48
4A48
4241
7F41
023F
0C00
ENDCHAR

STARTCHAR A9DB
ENCODING 43483
SWIDTH 960 0
DWIDTH 16 0
BBX 16 16 0 -4
BITMAP
0000
0C0E
7070
1010
1010
1010
7CFE
1010
1010
1010
7EFF
1010
1010
1111
1111
0F0F
ENDCHAR

STARTCHAR A9DC
ENCODING 43484
SWIDTH 960 0
DWIDTH 16 0
BBX 16 16 0 -4
BITMAP
0800
0FFE
1000
1FF8
2000
5FFC
0204
0204
3FE4
2224
2224
3FE4
0205
0205
0203
0201
ENDCHAR

STARTCHAR A9DD
ENCODING 43485
SWIDTH 960 0
DWIDTH 16 0
BBX 16 16 0 -4
BITMAP
0800
0FFE
1000
1FF8
2000
5FFC
0004
0004
1FE4
1024
1024
1FE4
1025
1025
1FE3
1001
ENDCHAR

STARTCHAR A9DE
ENCODING 43486
SWIDTH 960 0
DWIDTH 16 0
BBX 16 16 0 -4
BITMAP
0040
2040
1040
07FF
4080
20A0
0120
13FE
1622
1A22
2222
2222
2222
4226
4020
0020
ENDCHAR

STARTCHAR A9DF
ENCODING 43487
SWIDTH 960 0
DWIDTH 16 0
BBX 16 16 0 -4
BITMAP
0000
23FE
1222
0222
4222
23FE
0222
1222
1222
13FE
2222
2020
2020
4020
4020
0020
ENDCHAR

STARTCHAR A9E0
ENCODING 43488
SWIDTH 960 0
DWIDTH 16 0
BBX 16 16 0 -4
BITMAP
0020
2020
1020
03FE
4222
2222
0222
13FE
1020
1220
2140
20C0
20A0
4110
420C
0C03
ENDCHAR

STARTCHAR A9E1
ENCODING 43489
SWIDTH 960 0
DWIDTH 16 0
BBX 16 16 0 -4
BITMAP
0000
203C
13C0
0200
4200
2200
03FE
1208
1208
1208
2208
2208
2208
4208
4FFF
0000
ENDCHAR

STARTCHAR A9E2
ENCODING 43490
SWIDTH 960 0
DWIDTH 16 0
BBX 16 16 0 -4
BITMAP
0040
2040
1088
0104
421E
23E2
0088
1088
1088
17FF
2088
2088
2108
4108
4208
0408
ENDCHAR

STARTCHAR A9E3
ENCODING 43491
SWIDTH 960 0
DWIDTH 16 0
BBX 16 16 0 -4
BITMAP
0000
1FFC
0080
0100
7FFF
0220
0410
188C
6083
0088
3ED0
04A0
0890
108C
6083
0380
ENDCHAR

STARTCHAR A9E4
ENCODING 43492
SWIDTH 960 0
DWIDTH 16 0
BBX 16 16 0 -4
BITMAP
0410
0410
3FFE
0410
0410
7FFF
0810
1010
2090
0084
3EC8
04B0
0890
108C
6083
0380
ENDCHAR

STARTCHAR A9E5
ENCODING 43493
SWIDTH 960 0
DWIDTH 16 0
BBX 16 16 0 -4
BITMAP
0000
23FE
1020
0020
4020
2020
0220
123E
1220
1220
2220
2220
2220
4220
4FFF
0000
ENDCHAR

STARTCHAR A9E6
ENCODING 43494
SWIDTH 960 0
DWIDTH 16 0
BBX 16 16 0 -4
BITMAP
0020
2020
1020
07FF
4050
2088
0104
1242
1441
1080
2080
2104
2102
423D
47C1
0000
ENDCHAR

STARTCHAR A9E7
ENCODING 43495
SWIDTH 960 0
DWIDTH 16 0
BBX 16 16 0 -4
BITMAP
0000
21FE
1102
0102
4102
21FE
0102
1102
1102
11FE
2102
2102
2102
41FE
4102
0000
ENDCHAR

STARTCHAR A9E8
ENCODING 43496
SWIDTH 960 0
DWIDTH 16 0
BBX 16 16 0 -4
BITMAP
0000
2000
17FE
0492
4492
2492
0492
1492
1492
1492
2492
2492
2492
4FFF
4000
0000
ENDCHAR

STARTCHAR A9E9
ENCODING 43497
SWIDTH 960 0
DWIDTH 16 0
BBX 16 16 0 -4
BITMAP
0000
2004
1204
0204
4204
2204
0204
1284
1244
1224
2268
2288
2314
4222
4441
0081
ENDCHAR

STARTCHAR A9EA
ENCODING 43498
SWIDTH 960 0
DWIDTH 16 0
BBX 16 16 0 -4
BITMAP
001E
23E0
1020
0022
4222
2124
0124
10A8
1020
17FF
2020
2020
2020
4020
4020
00C0
ENDCHAR

STARTCHAR A9EB
ENCODING 43499
SWIDTH 960 0
DWIDTH 16 0
BBX 16 16 0 -4
BITMAP
0100
2100
13FF
0200
4420
2120
013E
11E2
1722
1122
2124
2124
2121
4101
4101
00FF
ENDCHAR

STARTCHAR A9EC
ENCODING 43500
SWIDTH 960 0
DWIDTH 16 0
BBX 16 16 0 -4
BITMAP
0080
2080
1100
01FF
4220
2420
0020
103E
1020
1020
2020
203E
2020
4020
4020
0020
ENDCHAR

STARTCHAR A9ED
ENCODING 43501
SWIDTH 960 0
DWIDTH 16 0
BBX 16 16 0 -4
BITMAP
0080
2080
10FE
0102
4102
2284
0048
1030
1048
1084
2162
2619
2000
40C0
4030
000C
ENDCHAR

STARTCHAR A9EE
ENCODING 43502
SWIDTH 960 0
DWIDTH 16 0
BBX 16 16 0 -4
BITMAP
1000
11FC
1004
1088
1450
5820
5010
53FF
1021
1022
1024
2820
2420
2020
4020
00E0
ENDCHAR

STARTCHAR A9EF
ENCODING 43503
SWIDTH 960 0
DWIDTH 16 0
BBX 16 16 0 -4
BITMAP
1000
1000
13FF
1010
1410
5820
5020
5048
10A4
1122
1221
2820
2420
2020
4020
0020
ENDCHAR

STARTCHAR A9F0
ENCODING 43504
SWIDTH 960 0
DWIDTH 16 0
BBX 16 16 0 -4
BITMAP
1000
10F8
1088
1088
1488
590F
5200
51FC
1004
1084
1088
2850
2420
2050
408C
0303
ENDCHAR

STARTCHAR A9F1
ENCODING 43505
SWIDTH 960 0
DWIDTH 16 0
BBX 16 16 0 -4
BITMAP
1010
1010
101E
10F0
1410
5810
5010
50FE
1010
1010
1010
29FF
2410
2410
4010
0010
ENDCHAR

STARTCHAR A9F2
ENCODING 43506
SWIDTH 960 0
DWIDTH 16 0
BBX 16 16 0 -4
BITMAP
1010
1010
1010
1111
1511
5892
5092
5010
1028
1028
1028
2844
2444
2482
4102
0201
ENDCHAR

STARTCHAR A9F3
ENCODING 43507
SWIDTH 960 0
DWIDTH 16 0
BBX 16 16 0 -4
BITMAP
0000
3FFE
0040
0080
0190
0688
3884
0084
0000
1082
0884
0488
0140
0230
0C0C
3003
ENDCHAR

STARTCHAR A9F4
ENCODING 43508
SWIDTH 960 0
DWIDTH 16 0
BBX 16 16 0 -4
BITMAP
1040
1040
1040
107F
1484
5884
5104
5044
1044
1028
1028
2810
2428
2444
4082
0101
ENDCHAR

STARTCHAR A9F5
ENCODING 43509
SWIDTH 960 0
DWIDTH 16 0
BBX 16 16 0 -4
BITMAP
100F
10F0
1080
1080
14FF
5881
5081
5081
10FF
1081
1080
2880
2480
2500
4100
0200
ENDCHAR

STARTCHAR A9F6
ENCODING 43510
SWIDTH 960 0
DWIDTH 16 0
BBX 16 16 0 -4
BITMAP
1000
10FF
1080
1080
1480
58FE
5082
50A2
10A2
10A2
1094
2894
2508
2514
4222
0041
ENDCHAR

STARTCHAR A9F7
ENCODING 43511
SWIDTH 960 0
DWIDTH 16 0
BBX 16 16 0 -4
BITMAP
0000
1FFC
1080
1080
2080
3FFE
0140
0140
0241
0441
1841
603F
0000
1222
1111
2111
ENDCHAR

STARTCHAR A9F8
ENCODING 43512
SWIDTH 960 0
DWIDTH 16 0
BBX 16 16 0 -4
BITMAP
0000
7FFF
0040
0080
01A0
0290
0C88
3084
0084
0080
0080
0080
0000
1222
1111
2111
ENDCHAR

STARTCHAR A9F9
ENCODING 43513
SWIDTH 960 0
DWIDTH 16 0
BBX 16 16 0 -4
BITMAP
1020
1020
1050
1088
1504
5A02
5489
5088
1088
1088
1088
2888
2508
2508
4208
0408
ENDCHAR

STARTCHAR A9FA
ENCODING 43514
SWIDTH 960 0
DWIDTH 16 0
BBX 16 16 0 -4
BITMAP
001E
01E0
3E00
0102
2084
1088
0800
0000
1FFC
1004
1004
1FFC
1004
1004
1FFC
1004
ENDCHAR

STARTCHAR A9FB
ENCODING 43515
SWIDTH 960 0
DWIDTH 16 0
BBX 16 16 0 -4
BITMAP
0000
4242
3434
0808
1616
6161
0000
2222
2222
2222
2414
1414
0808
1414
1222
2141
ENDCHAR

STARTCHAR A9FC
ENCODING 43516
SWIDTH 960 0
DWIDTH 16 0
BBX 16 16 0 -4
BITMAP
2410
2410
2410
2410
25FF
3C10
2430
0458
3C54
2492
2492
2511
2410
2410
4410
4410
ENDCHAR

STARTCHAR A9FD
ENCODING 43517
SWIDTH 960 0
DWIDTH 16 0
BBX 16 16 0 -4
BITMAP
2440
2440
247F
2491
3C91
2091
2112
2010
3C10
2428
2428
2424
2444
2442
4481
4500
ENDCHAR

STARTCHAR A9FE
ENCODING 43518
SWIDTH 960 0
DWIDTH 16 0
BBX 16 16 0 -4
BITMAP
2221
2221
2221
2221
3E3F
2020
2020
2020
3E3F
2221
2221
2221
2221
4241
4241
0280
ENDCHAR

STARTCHAR AAA1
ENCODING 43681
SWIDTH 960 0
DWIDTH 16 0
BBX 16 16 0 -4
BITMAP
0820
2810
2810
3EFF
4820
4820
0820
083E
0E22
7822
0842
0842
0882
0882
0904
0A18
ENDCHAR

STARTCHAR AAA2
ENCODING 43682
SWIDTH 960 0
DWIDTH 16 0
BBX 16 16 0 -4
BITMAP
0800
280E
2870
3E10
4810
4810
08FE
0810
0E10
7810
09FF
0810
0810
0811
0811
080F
ENDCHAR

STARTCHAR AAA3
ENCODING 43683
SWIDTH 960 0
DWIDTH 16 0
BBX 16 16 0 -4
BITMAP
0820
2810
2810
3EFF
4800
4800
087C
0844
0E44
7844
0844
0844
0844
0845
0885
0903
ENDCHAR

STARTCHAR AAA4
ENCODING 43684
SWIDTH 960 0
DWIDTH 16 0
BBX 16 16 0 -4
BITMAP
0020
4410
2810
11FF
2810
4810
0810
0810
1810
28FE
4810
0810
0810
0810
0810
31FF
ENDCHAR

STARTCHAR AAA5
ENCODING 43685
SWIDTH 960 0
DWIDTH 16 0
BBX 16 16 0 -4
BITMAP
0000
45FE
2822
1022
2842
4842
0882
090C
1A00
29FE
4902
0902
0902
0902
09FE
7102
ENDCHAR

STARTCHAR AAA6
ENCODING 43686
SWIDTH 960 0
DWIDTH 16 0
BBX 16 16 0 -4
BITMAP
0080
4480
2880
11FE
2902
4A02
09F2
0912
1912
29F2
4902
090C
0900
0901
0901
30FF
ENDCHAR

STARTCHAR AAA7
ENCODING 43687
SWIDTH 960 0
DWIDTH 16 0
BBX 16 16 0 -4
BITMAP
0010
4410
29FF
1111
2911
4912
0910
09FE
1902
2942
4944
0928
0910
0A28
0A44
3483
ENDCHAR

STARTCHAR AAA8
ENCODING 43688
SWIDTH 960 0
DWIDTH 16 0
BBX 16 16 0 -4
BITMAP
0020
4440
2880
11FE
2902
4902
0902
0902
19FE
2902
4902
0902
0902
0902
09FE
7102
ENDCHAR

STARTCHAR AAA9
ENCODING 43689
SWIDTH 960 0
DWIDTH 16 0
BBX 16 16 0 -4
BITMAP
0010
4410
2810
10FE
2810
4810
0810
0810
19FF
2820
4820
0844
0842
089E
09E1
3001
ENDCHAR

STARTCHAR AAAA
ENCODING 43690
SWIDTH 960 0
DWIDTH 16 0
BBX 16 16 0 -4
BITMAP
0080
4480
29FF
1100
2A10
4890
089E
08F2
1B92
2894
4894
0890
0891
0881
0881
307F
ENDCHAR

STARTCHAR AAAB
ENCODING 43691
SWIDTH 960 0
DWIDTH 16 0
BBX 16 16 0 -4
BITMAP
0020
0020
7C40
1040
1084
1082
7D0D
11F1
1049
1048
1048
1C88
7088
0109
0209
0407
ENDCHAR

STARTCHAR AAAC
ENCODING 43692
SWIDTH 960 0
DWIDTH 16 0
BBX 16 16 0 -4
BITMAP
0040
0020
7E20
0800
09FF
0820
7E20
0838
0824
0822
0822
0F20
7020
0020
0020
0020
ENDCHAR

STARTCHAR AAAD
ENCODING 43693
SWIDTH 960 0
DWIDTH 16 0
BBX 16 16 0 -4
BITMAP
0010
0010
7C10
10FE
1010
1010
7C10
11FF
1010
1010
1028
1E28
7044
0044
0082
0101
ENDCHAR

STARTCHAR AAAE
ENCODING 43694
SWIDTH 960 0
DWIDTH 16 0
BBX 16 16 0 -4
BITMAP
0000
01FF
7C10
1010
10FE
1092
7C92
1092
1092
1092
1092
1E92
7092
0096
0010
0010
ENDCHAR

STARTCHAR AAAF
ENCODING 43695
SWIDTH 960 0
DWIDTH 16 0
BBX 16 16 0 -4
BITMAP
0000
0000
7DFF
1008
1008
1010
7C10
1024
1052
1091
1111
1C10
7010
0010
0010
0010
ENDCHAR

STARTCHAR AAB0
ENCODING 43696
SWIDTH 960 0
DWIDTH 16 0
BBX 16 16 0 -4
BITMAP
0010
0010
7C10
101F
1010
1010
7DFE
1082
1082
1044
1028
1C10
7028
0044
0082
0301
ENDCHAR

STARTCHAR AAB1
ENCODING 43697
SWIDTH 960 0
DWIDTH 16 0
BBX 16 16 0 -4
BITMAP
0040
0040
7C7F
1091
1091
1112
7C10
1010
1010
1028
1028
1C44
7044
0082
0102
0601
ENDCHAR

STARTCHAR AAB2
ENCODING 43698
SWIDTH 960 0
DWIDTH 16 0
BBX 16 16 0 -4
BITMAP
0008
0010
7C28
1044
1082
1101
7C7C
1000
1000
10FF
1001
1E02
7002
0004
0008
0010
ENDCHAR

STARTCHAR AAB3
ENCODING 43699
SWIDTH 960 0
DWIDTH 16 0
BBX 16 16 0 -4
BITMAP
0030
0008
7C08
1044
1044
1082
7D01
1020
1020
1040
1040
1E84
7082
011D
01E1
0000
ENDCHAR

STARTCHAR AAB4
ENCODING 43700
SWIDTH 960 0
DWIDTH 16 0
BBX 16 16 0 -4
BITMAP
1000
13FF
1080
7C80
54FC
5484
5484
54A4
5494
5494
5504
1104
1105
1175
1383
1001
ENDCHAR

STARTCHAR AAB5
ENCODING 43701
SWIDTH 960 0
DWIDTH 16 0
BBX 16 16 0 -4
BITMAP
0040
7C40
547C
5444
5484
5484
5508
7C08
5410
5410
5428
5428
5444
7C84
0102
0201
ENDCHAR

STARTCHAR AAB6
ENCODING 43702
SWIDTH 960 0
DWIDTH 16 0
BBX 16 16 0 -4
BITMAP
0002
0202
2104
1088
0890
0800
3FFE
2082
2082
2082
3FFE
2082
2082
2082
3FFE
2002
ENDCHAR

STARTCHAR AAB7
ENCODING 43703
SWIDTH 960 0
DWIDTH 16 0
BBX 16 16 0 -4
BITMAP
0000
3FFE
0000
0000
0FF8
4889
4889
4889
4FF9
4889
4889
4889
4FF9
4001
7FFF
0001
ENDCHAR

STARTCHAR AAB8
ENCODING 43704
SWIDTH 960 0
DWIDTH 16 0
BBX 16 16 0 -4
BITMAP
0080
0080
1FFC
1084
1084
1FFC
1084
1084
1FFC
0000
0000
7FFF
0410
0410
0810
3010
ENDCHAR

STARTCHAR AAB9
ENCODING 43705
SWIDTH 960 0
DWIDTH 16 0
BBX 16 16 0 -4
BITMAP
0000
1FFC
1084
1084
1FFC
1084
1084
1FFC
0000
0410
0410
7FFF
0410
0410
0810
3010
ENDCHAR

STARTCHAR AABA
ENCODING 43706
SWIDTH 960 0
DWIDTH 16 0
BBX 16 16 0 -4
BITMAP
0080
0040
1FFF
1000
5008
3008
1008
17FF
3008
5108
1088
1088
1008
2008
2008
4038
ENDCHAR

STARTCHAR AABB
ENCODING 43707
SWIDTH 960 0
DWIDTH 16 0
BBX 16 16 0 -4
BITMAP
0080
0040
1FFF
1000
5000
33FC
1000
1000
37FE
5080
1100
11FE
1002
2002
2002
401C
ENDCHAR

STARTCHAR AABC
ENCODING 43708
SWIDTH 960 0
DWIDTH 16 0
BBX 16 16 0 -4
BITMAP
0040
0020
1FFF
1000
5020
3020
1020
13FE
3020
5020
1020
1020
1020
2020
27FF
4000
ENDCHAR

STARTCHAR AABD
ENCODING 43709
SWIDTH 960 0
DWIDTH 16 0
BBX 16 16 0 -4
BITMAP
0600
38FE
0802
0804
0808
7E10
0810
19FF
1C10
2A10
2810
4810
4810
0810
0810
0870
ENDCHAR

STARTCHAR AABE
ENCODING 43710
SWIDTH 960 0
DWIDTH 16 0
BBX 16 16 0 -4
BITMAP
0078
1F80
0080
0080
7FFF
02A0
0498
1884
6082
0000
07F0
0410
0410
0811
1011
200F
ENDCHAR

STARTCHAR AABF
ENCODING 43711
SWIDTH 960 0
DWIDTH 16 0
BBX 16 16 0 -4
BITMAP
0E00
38FE
0810
0810
7F10
0810
0810
19FF
2C10
2A10
4810
4810
0810
0810
0810
0810
ENDCHAR

STARTCHAR AAC0
ENCODING 43712
SWIDTH 960 0
DWIDTH 16 0
BBX 16 16 0 -4
BITMAP
0600
38FE
0802
0802
0802
7E02
0802
18FE
2C82
2A80
4A80
4880
0880
0881
0881
087F
ENDCHAR

STARTCHAR AAC1
ENCODING 43713
SWIDTH 960 0
DWIDTH 16 0
BBX 16 16 0 -4
BITMAP
0608
3808
0848
0848
084F
7E79
09C9
1849
2C4A
2A48
4A48
4848
0841
0841
083F
0800
ENDCHAR

STARTCHAR AAC2
ENCODING 43714
SWIDTH 960 0
DWIDTH 16 0
BBX 16 16 0 -4
BITMAP
0620
3820
0820
08FC
0824
7E24
0824
1824
2CA4
2A64
4A24
4854
0855
0885
0885
0903
ENDCHAR

STARTCHAR AAC3
ENCODING 43715
SWIDTH 960 0
DWIDTH 16 0
BBX 16 16 0 -4
BITMAP
060E
38F0
0810
0810
0810
7E10
0810
19FF
2C10
2A10
4A10
4810
0810
0810
0810
0810
ENDCHAR

STARTCHAR AAC4
ENCODING 43716
SWIDTH 960 0
DWIDTH 16 0
BBX 16 16 0 -4
BITMAP
0078
1F80
0080
7FFF
02A0
0498
1884
6082
0078
0F80
0080
0080
7FFF
0080
0080
0080
ENDCHAR

STARTCHAR AAC5
ENCODING 43717
SWIDTH 960 0
DWIDTH 16 0
BBX 16 16 0 -4
BITMAP
0100
0080
7FFF
4421
4421
0820
109E
2080
0080
7FFF
0140
0220
0410
0808
1004
2003
ENDCHAR

STARTCHAR AAC6
ENCODING 43718
SWIDTH 960 0
DWIDTH 16 0
BBX 16 16 0 -4
BITMAP
1000
08FE
0882
7E82
0082
2482
2482
24FE
2482
2480
0880
0880
0E80
7081
0081
007F
ENDCHAR

STARTCHAR AAC7
ENCODING 43719
SWIDTH 960 0
DWIDTH 16 0
BBX 16 16 0 -4
BITMAP
100E
08F0
0810
7E10
0010
2410
2410
25FF
2410
2410
0810
0810
0E10
7010
0010
0010
ENDCHAR

STARTCHAR AAC8
ENCODING 43720
SWIDTH 960 0
DWIDTH 16 0
BBX 16 16 0 -4
BITMAP
1000
10F8
5488
3888
1088
7C88
1088
3088
3888
5488
5088
1088
1108
1109
1209
1407
ENDCHAR

STARTCHAR AAC9
ENCODING 43721
SWIDTH 960 0
DWIDTH 16 0
BBX 16 16 0 -4
BITMAP
0080
0040
0120
0210
040C
1883
6080
0888
0490
0080
3FFE
0080
0498
1884
6082
0080
ENDCHAR

STARTCHAR AACA
ENCODING 43722
SWIDTH 960 0
DWIDTH 16 0
BBX 16 16 0 -4
BITMAP
0000
09FE
1022
2022
4422
2822
1022
1422
2442
4A42
7042
0482
5282
4902
4204
0418
ENDCHAR

STARTCHAR AACB
ENCODING 43723
SWIDTH 960 0
DWIDTH 16 0
BBX 16 16 0 -4
BITMAP
0020
0820
1020
2020
45FE
2822
1022
1422
2422
4A42
7042
0442
5282
4882
4104
0218
ENDCHAR

STARTCHAR AACC
ENCODING 43724
SWIDTH 960 0
DWIDTH 16 0
BBX 16 16 0 -4
BITMAP
0000
3FFE
2212
2122
2042
2FFE
2002
2442
2442
24A2
2492
2512
2402
23FA
2002
200E
ENDCHAR

STARTCHAR AACD
ENCODING 43725
SWIDTH 960 0
DWIDTH 16 0
BBX 16 16 0 -4
BITMAP
0000
3FFE
2222
2222
3FFE
0000
0000
1FFC
0080
0080
7FFF
0080
0080
0080
0080
0080
ENDCHAR

STARTCHAR AACE
ENCODING 43726
SWIDTH 960 0
DWIDTH 16 0
BBX 16 16 0 -4
BITMAP
2000
3FFF
4221
4422
0820
301E
0080
0080
0080
7FFF
0080
0498
0884
1082
6081
0080
ENDCHAR

STARTCHAR AACF
ENCODING 43727
SWIDTH 960 0
DWIDTH 16 0
BBX 16 16 0 -4
BITMAP
0010
3C10
241E
24F0
2410
3410
2C10
24FE
2410
2C10
3410
25FF
2410
2410
4410
4C10
ENDCHAR

STARTCHAR AAD0
ENCODING 43728
SWIDTH 960 0
DWIDTH 16 0
BBX 16 16 0 -4
BITMAP
0000
3C7E
2400
2400
2400
3400
2CFF
2424
2424
2C24
3424
2425
2445
2445
4487
4D00
ENDCHAR

STARTCHAR AAD1
ENCODING 43729
SWIDTH 960 0
DWIDTH 16 0
BBX 16 16 0 -4
BITMAP
0010
3C10
2410
24FE
2412
3412
2C12
2412
25FF
2C10
3410
2424
2422
2441
4481
4D00
ENDCHAR

STARTCHAR AAD2
ENCODING 43730
SWIDTH 960 0
DWIDTH 16 0
BBX 16 16 0 -4
BITMAP
0010
3C14
2412
2412
2410
35FF
2C10
2410
2428
2C28
3424
2444
2442
2482
4481
4D00
ENDCHAR

STARTCHAR AAD3
ENCODING 43731
SWIDTH 960 0
DWIDTH 16 0
BBX 16 16 0 -4
BITMAP
0000
3DFC
2484
2484
2488
3490
2CFE
24A2
24A2
2CA2
34A2
2514
2508
2614
4423
4CC0
ENDCHAR

STARTCHAR AAD4
ENCODING 43732
SWIDTH 960 0
DWIDTH 16 0
BBX 16 16 0 -4
BITMAP
0080
3C80
2480
24FF
24A9
3529
2D29
2629
2449
2C49
3491
2511
2421
2441
4402
4C0C
ENDCHAR

STARTCHAR AAD5
ENCODING 43733
SWIDTH 960 0
DWIDTH 16 0
BBX 16 16 0 -4
BITMAP
0042
3C42
2442
2442
247E
3440
2C40
2440
247E
2C42
3442
2442
2442
2482
4482
4D02
ENDCHAR

STARTCHAR AAD6
ENCODING 43734
SWIDTH 960 0
DWIDTH 16 0
BBX 16 16 0 -4
BITMAP
0010
3C10
2410
24FE
2410
3410
2C10
25FF
2410
2C10
3428
2424
2444
2442
4481
4D00
ENDCHAR

STARTCHAR AAD7
ENCODING 43735
SWIDTH 960 0
DWIDTH 16 0
BBX 16 16 0 -4
BITMAP
0088
3C88
2488
2488
2488
3488
2CEF
2488
2488
2C88
3488
2488
2489
24A9
44C7
4C80
ENDCHAR

STARTCHAR AAD8
ENCODING 43736
SWIDTH 960 0
DWIDTH 16 0
BBX 16 16 0 -4
BITMAP
0000
3C00
25FF
2408
2408
3410
2C10
2424
2452
2C91
3511
2410
2410
2410
4410
4C10
ENDCHAR

STARTCHAR AAD9
ENCODING 43737
SWIDTH 960 0
DWIDTH 16 0
BBX 16 16 0 -4
BITMAP
0010
3C14
2412
2412
25FF
3410
2C10
2410
2428
2C28
3428
2449
2449
2489
4487
4D00
ENDCHAR

STARTCHAR AADA
ENCODING 43738
SWIDTH 960 0
DWIDTH 16 0
BBX 16 16 0 -4
BITMAP
0040
3C40
2440
24FF
2481
3501
2C01
24F9
2401
2C01
34F9
2401
2401
2401
4402
4C1C
ENDCHAR

STARTCHAR AADB
ENCODING 43739
SWIDTH 960 0
DWIDTH 16 0
BBX 16 16 0 -4
BITMAP
0010
3C08
2448
2444
2484
3482
2D01
26FE
2422
2C22
3422
2422
2442
2442
4482
4D1C
ENDCHAR

STARTCHAR AADC
ENCODING 43740
SWIDTH 960 0
DWIDTH 16 0
BBX 16 16 0 -4
BITMAP
0010
7F90
4410
4410
4418
7F94
4092
4091
4091
7F90
4410
4410
4410
4410
7F90
4010
ENDCHAR

STARTCHAR AADD
ENCODING 43741
SWIDTH 960 0
DWIDTH 16 0
BBX 16 16 0 -4
BITMAP
0080
0140
0220
0410
188C
6083
1FFC
0080
0080
7FFF
0000
1FFC
1004
1004
1FFC
1004
ENDCHAR

STARTCHAR AADE
ENCODING 43742
SWIDTH 960 0
DWIDTH 16 0
BBX 16 16 0 -4
BITMAP
0808
0808
7F7F
0808
0908
0080
0000
7FFF
0080
00C0
00B0
0088
0084
0080
0080
0080
ENDCHAR

STARTCHAR AADF
ENCODING 43743
SWIDTH 960 0
DWIDTH 16 0
BBX 16 16 0 -4
BITMAP
0808
0808
7F7F
0808
0808
0000
3FFE
0410
0410
0410
7FFF
0410
0810
0810
1010
2010
ENDCHAR

STARTCHAR AAE0
ENCODING 43744
SWIDTH 960 0
DWIDTH 16 0
BBX 16 16 0 -4
BITMAP
0808
0808
7F7F
0808
0808
0000
1FFC
0080
0080
3FFE
0100
0140
0240
0442
1842
603E
ENDCHAR

STARTCHAR AAE1
ENCODING 43745
SWIDTH 960 0
DWIDTH 16 0
BBX 16 16 0 -4
BITMAP
0808
0808
7F7F
0808
0808
0000
7FFF
0080
0080
3FFE
2082
2082
2082
208E
0080
0080
ENDCHAR

STARTCHAR AAE2
ENCODING 43746
SWIDTH 960 0
DWIDTH 16 0
BBX 16 16 0 -4
BITMAP
0808
0808
7F7F
0808
0000
0FF8
0808
0988
0848
0808
7FFF
0808
1008
1008
2008
4038
ENDCHAR

STARTCHAR AAE3
ENCODING 43747
SWIDTH 960 0
DWIDTH 16 0
BBX 16 16 0 -4
BITMAP
0808
0808
7F7F
0808
0808
0080
0888
0884
1082
1081
2088
0090
0060
0180
0E00
7000
ENDCHAR

STARTCHAR AAE4
ENCODING 43748
SWIDTH 960 0
DWIDTH 16 0
BBX 16 16 0 -4
BITMAP
0808
0808
7F7F
0808
0808
0080
1080
1FFE
2080
4080
0080
7FFF
0080
0080
0080
0080
ENDCHAR

STARTCHAR AAE5
ENCODING 43749
SWIDTH 960 0
DWIDTH 16 0
BBX 16 16 0 -4
BITMAP
0808
0808
7F7F
0808
0808
0700
387E
2042
2042
2042
2042
2342
2C5C
3040
0040
0040
ENDCHAR

STARTCHAR AAE6
ENCODING 43750
SWIDTH 960 0
DWIDTH 16 0
BBX 16 16 0 -4
BITMAP
0808
0808
7F7F
0808
0808
007C
3F80
2080
2080
3FFE
2040
2040
2020
2311
2C0D
3003
ENDCHAR

STARTCHAR AAE7
ENCODING 43751
SWIDTH 960 0
DWIDTH 16 0
BBX 16 16 0 -4
BITMAP
0808
0808
7F7F
0808
0808
0000
10FE
2002
4202
6402
1802
1202
2102
4702
7904
0038
ENDCHAR

STARTCHAR AAE8
ENCODING 43752
SWIDTH 960 0
DWIDTH 16 0
BBX 16 16 0 -4
BITMAP
0808
0808
7F7F
0808
0808
0000
7FFE
2220
2220
2220
2420
281E
3000
2000
1FFF
0000
ENDCHAR

STARTCHAR AAE9
ENCODING 43753
SWIDTH 960 0
DWIDTH 16 0
BBX 16 16 0 -4
BITMAP
0808
0808
7F7F
0808
0808
0000
1FFC
1004
1004
7FFF
1004
1004
7FFF
1004
1004
101C
ENDCHAR

STARTCHAR AAEA
ENCODING 43754
SWIDTH 960 0
DWIDTH 16 0
BBX 16 16 0 -4
BITMAP
0808
0808
7F7F
0808
0008
1810
0620
01C0
0638
3806
0008
0C10
0260
01C0
0638
3807
ENDCHAR

STARTCHAR AAEB
ENCODING 43755
SWIDTH 960 0
DWIDTH 16 0
BBX 16 16 0 -4
BITMAP
0808
0808
7F7F
0808
0008
007C
1F80
1000
1FFE
1002
1002
1FFE
1000
1000
2000
4000
ENDCHAR

STARTCHAR AAEC
ENCODING 43756
SWIDTH 960 0
DWIDTH 16 0
BBX 16 16 0 -4
BITMAP
0808
0808
7F7F
0808
0088
0340
0C30
300C
C803
0878
0F80
0800
0802
0802
07FE
0000
ENDCHAR

STARTCHAR AAED
ENCODING 43757
SWIDTH 960 0
DWIDTH 16 0
BBX 16 16 0 -4
BITMAP
0080
00FC
0080
3FFF
2081
2082
2FFC
2080
2080
207C
2100
211C
21E0
4F01
4101
00FF
ENDCHAR

STARTCHAR AAEE
ENCODING 43758
SWIDTH 960 0
DWIDTH 16 0
BBX 16 16 0 -4
BITMAP
0100
0080
7FFF
0100
0244
0428
1C10
6448
0584
0603
0080
0080
7FFF
0080
0080
0080
ENDCHAR

STARTCHAR AAEF
ENCODING 43759
SWIDTH 960 0
DWIDTH 16 0
BBX 16 16 0 -4
BITMAP
0040
4020
2020
17FF
0080
7080
10FE
1082
2082
7102
1102
1202
241C
3000
4C00
03FF
ENDCHAR

STARTCHAR AAF0
ENCODING 43760
SWIDTH 960 0
DWIDTH 16 0
BBX 16 16 0 -4
BITMAP
0000
41FE
2102
1102
0102
71FE
1102
1102
2102
71FE
1102
1102
1202
220E
5C00
03FF
ENDCHAR

STARTCHAR AAF1
ENCODING 43761
SWIDTH 960 0
DWIDTH 16 0
BBX 16 16 0 -4
BITMAP
0040
4020
2020
17FF
0104
7104
1088
1088
2050
7020
1050
1188
2606
3000
4C00
03FF
ENDCHAR

STARTCHAR AAF2
ENCODING 43762
SWIDTH 960 0
DWIDTH 16 0
BBX 16 16 0 -4
BITMAP
0000
47FF
2020
1020
03FE
7222
1222
1222
2222
7222
1222
122E
1020
2020
5C00
03FF
ENDCHAR

STARTCHAR AAF3
ENCODING 43763
SWIDTH 960 0
DWIDTH 16 0
BBX 16 16 0 -4
BITMAP
0000
43FE
2010
1020
0060
70B8
1124
1222
2020
7020
1020
1020
2020
3800
47FF
0000
ENDCHAR

STARTCHAR AAF4
ENCODING 43764
SWIDTH 960 0
DWIDTH 16 0
BBX 16 16 0 -4
BITMAP
0020
4020
2020
1020
07FE
7020
1050
1050
2088
70C8
1124
1222
2401
3000
4C00
03FF
ENDCHAR

STARTCHAR AAF5
ENCODING 43765
SWIDTH 960 0
DWIDTH 16 0
BBX 16 16 0 -4
BITMAP
0000
7F9F
1011
1011
1E12
1214
1212
1211
1211
2A11
2A11
2211
2291
2A96
7190
0090
ENDCHAR

STARTCHAR AAF6
ENCODING 43766
SWIDTH 960 0
DWIDTH 16 0
BBX 16 16 0 -4
BITMAP
0000
3F1F
2111
2111
2112
3F14
2112
2111
2111
3F11
2111
2111
2111
2796
7810
0010
ENDCHAR

STARTCHAR AAF7
ENCODING 43767
SWIDTH 960 0
DWIDTH 16 0
BBX 16 16 0 -4
BITMAP
1000
101F
1011
3F91
2092
4094
0092
3E91
2291
2291
2291
3E91
2091
0096
0110
0610
ENDCHAR

STARTCHAR AAF8
ENCODING 43768
SWIDTH 960 0
DWIDTH 16 0
BBX 16 16 0 -4
BITMAP
1000
101F
1F91
2091
2112
4214
3F92
0091
0091
0091
7F91
0091
0091
0096
3F90
0010
ENDCHAR

STARTCHAR AAF9
ENCODING 43769
SWIDTH 960 0
DWIDTH 16 0
BBX 16 16 0 -4
BITMAP
0000
7DFE
4410
4810
4810
5010
4890
449E
4490
4490
4490
5890
4090
4090
47FF
4000
ENDCHAR

STARTCHAR AAFA
ENCODING 43770
SWIDTH 960 0
DWIDTH 16 0
BBX 16 16 0 -4
BITMAP
0000
7DFF
4511
4911
4911
5111
4911
45FF
4511
4511
4511
5911
4111
41FF
4101
4000
ENDCHAR

STARTCHAR AAFB
ENCODING 43771
SWIDTH 960 0
DWIDTH 16 0
BBX 16 16 0 -4
BITMAP
0080
7C80
45FF
4900
4A10
5090
489E
44F2
4792
4494
4494
5890
4091
4081
4081
407E
ENDCHAR

STARTCHAR AAFC
ENCODING 43772
SWIDTH 960 0
DWIDTH 16 0
BBX 16 16 0 -4
BITMAP
0010
7C30
4448
4884
4902
52FD
4C00
4400
45FE
4402
4402
5804
4088
4050
4020
4010
ENDCHAR

STARTCHAR AAFD
ENCODING 43773
SWIDTH 960 0
DWIDTH 16 0
BBX 16 16 0 -4
BITMAP
0080
0080
1FFC
0084
7FFF
0084
1FFC
0080
3086
0C88
00B0
0388
1C84
6082
0080
0380
ENDCHAR

STARTCHAR AAFE
ENCODING 43774
SWIDTH 960 0
DWIDTH 16 0
BBX 16 16 0 -4
BITMAP
0080
0080
3FFE
0080
1FFC
0080
7FFF
0000
0FF8
0888
0888
0888
0FF8
1008
1008
2038
ENDCHAR

STARTCHAR ABA1
ENCODING 43937
SWIDTH 960 0
DWIDTH 16 0
BBX 16 16 0 -4
BITMAP
0000
7FFF
0100
0200
3FFE
2002
2002
27F2
2412
2412
2412
27F2
2002
2002
3FFE
2002
ENDCHAR

STARTCHAR ABA2
ENCODING 43938
SWIDTH 960 0
DWIDTH 16 0
BBX 16 16 0 -4
BITMAP
007C
1F80
0080
7FFF
0888
0888
3FFE
0888
0888
7FFF
02A0
0490
0888
1084
6083
0080
ENDCHAR

STARTCHAR ABA3
ENCODING 43939
SWIDTH 960 0
DWIDTH 16 0
BBX 16 16 0 -4
BITMAP
0410
0410
7FD0
0410
3F90
2090
2090
3F90
2090
2090
3F90
0410
7FD0
0411
0411
040F
ENDCHAR

STARTCHAR ABA4
ENCODING 43940
SWIDTH 960 0
DWIDTH 16 0
BBX 16 16 0 -4
BITMAP
0100
0080
3FFE
0410
0410
0220
3FFE
0080
0080
7FFF
0080
0888
1084
2082
4081
0080
ENDCHAR

STARTCHAR ABA5
ENCODING 43941
SWIDTH 960 0
DWIDTH 16 0
BBX 16 16 0 -4
BITMAP
0100
0080
7FFF
0000
0000
1FFC
1004
1FFC
1004
1FFC
0080
0888
0888
1084
2082
0380
ENDCHAR

STARTCHAR ABA6
ENCODING 43942
SWIDTH 960 0
DWIDTH 16 0
BBX 16 16 0 -4
BITMAP
0100
0080
7FFF
0000
1FFC
1004
1004
1FFC
0000
3FFE
2002
2002
3FFE
2002
2002
3FFE
ENDCHAR

STARTCHAR ABA7
ENCODING 43943
SWIDTH 960 0
DWIDTH 16 0
BBX 16 16 0 -4
BITMAP
0100
0080
7FFF
0000
0800
09FC
1104
1104
21FC
5104
1104
11FC
1000
1000
17FF
1000
ENDCHAR

STARTCHAR ABA8
ENCODING 43944
SWIDTH 960 0
DWIDTH 16 0
BBX 16 16 0 -4
BITMAP
0840
0820
13FF
1201
2201
30FC
5000
5000
13FF
1048
1048
1088
1088
1109
1209
1407
ENDCHAR

STARTCHAR ABA9
ENCODING 43945
SWIDTH 960 0
DWIDTH 16 0
BBX 16 16 0 -4
BITMAP
0840
0820
13FE
1202
2224
3020
5020
13FE
1020
1070
10A8
10A8
1124
1222
1421
1020
ENDCHAR

STARTCHAR ABAA
ENCODING 43946
SWIDTH 960 0
DWIDTH 16 0
BBX 16 16 0 -4
BITMAP
0800
0BFE
1020
1020
21FC
3020
5020
17FF
1088
1088
17FF
1088
1108
1108
1208
1408
ENDCHAR

STARTCHAR ABAB
ENCODING 43947
SWIDTH 960 0
DWIDTH 16 0
BBX 16 16 0 -4
BITMAP
0820
0820
11FA
1024
2028
37FF
5020
107E
1084
1108
1210
15FF
1010
1010
1010
1070
ENDCHAR

STARTCHAR ABAC
ENCODING 43948
SWIDTH 960 0
DWIDTH 16 0
BBX 16 16 0 -4
BITMAP
0800
0BFE
1000
1000
23FE
3202
5202
1202
13FE
1000
1202
1104
1104
1088
17FF
1000
ENDCHAR

STARTCHAR ABAD
ENCODING 43949
SWIDTH 960 0
DWIDTH 16 0
BBX 16 16 0 -4
BITMAP
0800
0BFC
1044
1044
27FF
3044
5044
13FC
1084
1080
11FE
1282
1482
1082
10FE
1082
ENDCHAR

STARTCHAR ABAE
ENCODING 43950
SWIDTH 960 0
DWIDTH 16 0
BBX 16 16 0 -4
BITMAP
0800
0BFC
1204
1204
2204
33FC
5000
103C
13E0
1020
1020
13FE
1020
1020
17FF
1000
ENDCHAR

STARTCHAR ABAF
ENCODING 43951
SWIDTH 960 0
DWIDTH 16 0
BBX 16 16 0 -4
BITMAP
0820
0920
1120
11FC
2220
3420
5020
17FF
1000
1000
11FC
1104
1104
1104
11FC
1104
ENDCHAR

STARTCHAR ABB0
ENCODING 43952
SWIDTH 960 0
DWIDTH 16 0
BBX 16 16 0 -4
BITMAP
0800
0BEF
1129
112A
212A
33EC
512A
112A
1129
13E9
1129
1129
112E
1228
1428
1048
ENDCHAR

STARTCHAR ABB1
ENCODING 43953
SWIDTH 960 0
DWIDTH 16 0
BBX 16 16 0 -4
BITMAP
0840
09FC
1104
1104
21FC
3104
5104
11FC
1105
1106
117C
138C
1014
1024
10C4
131C
ENDCHAR

STARTCHAR ABB2
ENCODING 43954
SWIDTH 960 0
DWIDTH 16 0
BBX 16 16 0 -4
BITMAP
0820
0820
1050
1088
2104
32FA
5421
1020
1020
13FE
1020
1128
1124
1222
1422
1060
ENDCHAR

STARTCHAR ABB3
ENCODING 43955
SWIDTH 960 0
DWIDTH 16 0
BBX 16 16 0 -4
BITMAP
0828
0824
17FF
1020
2020
33FE
5222
1222
13FE
1222
1222
13FE
1222
1222
1222
120E
ENDCHAR

STARTCHAR ABB4
ENCODING 43956
SWIDTH 960 0
DWIDTH 16 0
BBX 16 16 0 -4
BITMAP
0820
0820
17FF
1020
23FE
3222
5222
13FE
1222
1222
13FE
1020
17FF
1020
1020
1020
ENDCHAR

STARTCHAR ABB5
ENCODING 43957
SWIDTH 960 0
DWIDTH 16 0
BBX 16 16 0 -4
BITMAP
0800
0BFE
1202
1202
23FE
3000
5000
13FE
1020
1020
17FF
1050
1088
1104
1202
1401
ENDCHAR

STARTCHAR ABB6
ENCODING 43958
SWIDTH 960 0
DWIDTH 16 0
BBX 16 16 0 -4
BITMAP
0080
0140
0230
0C0C
33E3
4000
0004
3F24
1124
1124
7FA4
1124
1124
2104
7FC4
000C
ENDCHAR

STARTCHAR ABB7
ENCODING 43959
SWIDTH 960 0
DWIDTH 16 0
BBX 16 16 0 -4
BITMAP
0080
0140
0220
0410
1BEC
6003
1F00
1112
1112
1F24
1124
1148
1F24
2124
2112
4712
ENDCHAR

STARTCHAR ABB8
ENCODING 43960
SWIDTH 960 0
DWIDTH 16 0
BBX 16 16 0 -4
BITMAP
0808
0410
0220
7FFF
0080
0300
0C82
30C4
0128
0230
0C68
30A4
0322
0C21
3040
0180
ENDCHAR

STARTCHAR ABB9
ENCODING 43961
SWIDTH 960 0
DWIDTH 16 0
BBX 16 16 0 -4
BITMAP
2000
3FFF
4101
4202
1FFC
1004
1FFC
1004
1FFC
0800
0878
0F80
0802
0802
07FE
0000
ENDCHAR

STARTCHAR ABBA
ENCODING 43962
SWIDTH 960 0
DWIDTH 16 0
BBX 16 16 0 -4
BITMAP
0000
7FFF
4001
4011
3F10
0014
007E
7FA4
1224
1224
1264
1218
1224
1245
2201
21FF
ENDCHAR

STARTCHAR ABBB
ENCODING 43963
SWIDTH 960 0
DWIDTH 16 0
BBX 16 16 0 -4
BITMAP
0020
0020
47FF
2020
2020
03FE
0222
1222
1222
13FE
20A8
2124
2224
4422
4821
0020
ENDCHAR

STARTCHAR ABBC
ENCODING 43964
SWIDTH 960 0
DWIDTH 16 0
BBX 16 16 0 -4
BITMAP
0000
07FE
4492
2492
2492
0512
060E
1402
15FA
150A
250A
250A
25FA
450A
4402
0406
ENDCHAR

STARTCHAR ABBD
ENCODING 43965
SWIDTH 960 0
DWIDTH 16 0
BBX 16 16 0 -4
BITMAP
0080
00FC
4108
2210
2420
03FE
0222
1222
1222
13FE
2050
2090
2090
4111
4211
0C0F
ENDCHAR

STARTCHAR ABBE
ENCODING 43966
SWIDTH 960 0
DWIDTH 16 0
BBX 16 16 0 -4
BITMAP
0020
0020
4050
2088
2104
02FA
0421
1020
1020
13FE
2020
2128
2124
4222
4422
0060
ENDCHAR

STARTCHAR ABBF
ENCODING 43967
SWIDTH 960 0
DWIDTH 16 0
BBX 16 16 0 -4
BITMAP
0002
7FC2
0012
0012
3F92
2092
2092
2092
3F92
0012
2092
1112
1212
07C2
7802
000E
ENDCHAR

STARTCHAR ABC0
ENCODING 43968
SWIDTH 960 0
DWIDTH 16 0
BBX 16 16 0 -4
BITMAP
0002
1F82
1092
1092
1F92
0012
1F92
1092
1C92
1392
1092
1392
1C92
2082
2082
438E
ENDCHAR

STARTCHAR ABC1
ENCODING 43969
SWIDTH 960 0
DWIDTH 16 0
BBX 16 16 0 -4
BITMAP
0402
0A02
1112
2092
5F12
0012
0012
3F92
0092
0112
0212
3F92
2092
2082
3F82
208E
ENDCHAR

STARTCHAR ABC2
ENCODING 43970
SWIDTH 960 0
DWIDTH 16 0
BBX 16 16 0 -4
BITMAP
1002
1F02
2112
4212
3F92
2492
2492
3F92
2492
2492
3F92
2092
2092
2082
2082
418E
ENDCHAR

STARTCHAR ABC3
ENCODING 43971
SWIDTH 960 0
DWIDTH 16 0
BBX 16 16 0 -4
BITMAP
4200
2400
08FC
7E24
2424
2424
2424
24A4
7E64
2434
242C
2427
2444
2444
4484
0518
ENDCHAR

STARTCHAR ABC4
ENCODING 43972
SWIDTH 960 0
DWIDTH 16 0
BBX 16 16 0 -4
BITMAP
0000
7F00
08FC
1224
2124
4724
7924
0824
0864
7F34
082C
0827
0844
0F44
7084
0118
ENDCHAR

STARTCHAR ABC5
ENCODING 43973
SWIDTH 960 0
DWIDTH 16 0
BBX 16 16 0 -4
BITMAP
0402
0402
0412
7F92
0412
1512
1512
1512
2D12
4692
0412
0A12
0912
1082
2042
400E
ENDCHAR

STARTCHAR ABC6
ENCODING 43974
SWIDTH 960 0
DWIDTH 16 0
BBX 16 16 0 -4
BITMAP
0810
0810
7F10
0810
08FF
7F11
4911
4911
7F11
0811
1811
2C11
2A21
4821
0841
0886
ENDCHAR

STARTCHAR ABC7
ENCODING 43975
SWIDTH 960 0
DWIDTH 16 0
BBX 16 16 0 -4
BITMAP
0820
0820
7F20
08FE
0822
7F22
4122
4122
4122
7F22
1442
148C
1501
2401
23FF
4000
ENDCHAR

STARTCHAR ABC8
ENCODING 43976
SWIDTH 960 0
DWIDTH 16 0
BBX 16 16 0 -4
BITMAP
1010
1010
1F10
2010
5F7F
1111
1511
1511
7F91
2111
2911
2511
3FA1
0221
0241
0C86
ENDCHAR

STARTCHAR ABC9
ENCODING 43977
SWIDTH 960 0
DWIDTH 16 0
BBX 16 16 0 -4
BITMAP
0000
3FFF
2040
2040
2FFE
2248
2248
2554
2544
28A0
2110
2208
2C06
2000
3FFF
2000
ENDCHAR

STARTCHAR ABCA
ENCODING 43978
SWIDTH 960 0
DWIDTH 16 0
BBX 16 16 0 -4
BITMAP
0104
1088
0890
0400
1FFC
1084
1084
1FFC
1084
1084
1FFC
0080
7FFF
0080
0080
0080
ENDCHAR

STARTCHAR ABCB
ENCODING 43979
SWIDTH 960 0
DWIDTH 16 0
BBX 16 16 0 -4
BITMAP
0800
103F
3F21
2121
2121
3F21
2121
2121
3F21
0021
2121
2621
3826
20A0
20A0
1FA0
ENDCHAR

STARTCHAR ABCC
ENCODING 43980
SWIDTH 960 0
DWIDTH 16 0
BBX 16 16 0 -4
BITMAP
0000
3FFF
2050
2048
2FFE
2040
27FC
2444
2444
27FC
2444
2444
27FC
2444
4444
444C
ENDCHAR

STARTCHAR ABCD
ENCODING 43981
SWIDTH 960 0
DWIDTH 16 0
BBX 16 16 0 -4
BITMAP
0800
087E
0842
3E42
0842
084E
0840
087E
7F42
1042
1064
2454
2248
4F54
7122
0041
ENDCHAR

STARTCHAR ABCE
ENCODING 43982
SWIDTH 960 0
DWIDTH 16 0
BBX 16 16 0 -4
BITMAP
0100
2080
3FFF
4081
508A
0890
0360
0C18
7007
0FF8
0408
0210
0120
00C0
0738
3807
ENDCHAR

STARTCHAR ABCF
ENCODING 43983
SWIDTH 960 0
DWIDTH 16 0
BBX 16 16 0 -4
BITMAP
0000
3F7E
2102
2102
2102
3F7E
2000
207E
3F02
2042
2024
2028
3F18
2024
2042
2181
ENDCHAR

STARTCHAR ABD0
ENCODING 43984
SWIDTH 960 0
DWIDTH 16 0
BBX 16 16 0 -4
BITMAP
0800
0C00
127E
2102
4022
3E22
0822
0822
7F14
0814
0808
2A14
2914
4922
0842
1881
ENDCHAR

STARTCHAR ABD1
ENCODING 43985
SWIDTH 960 0
DWIDTH 16 0
BBX 16 16 0 -4
BITMAP
0020
0010
0010
7DFF
4501
4522
4420
4424
45FF
4444
7C44
44E4
0018
0014
0062
0181
ENDCHAR

STARTCHAR ABD2
ENCODING 43986
SWIDTH 960 0
DWIDTH 16 0
BBX 16 16 0 -4
BITMAP
0020
01FC
0024
7824
4BFF
4824
4824
49FC
4820
4820
7BFE
4820
0020
07FF
0020
0020
ENDCHAR

STARTCHAR ABD3
ENCODING 43987
SWIDTH 960 0
DWIDTH 16 0
BBX 16 16 0 -4
BITMAP
0000
03FF
0200
7A00
4AFE
4A10
4A10
4A7C
4A10
4A10
7A10
4AFE
0200
0200
03FF
0000
ENDCHAR

STARTCHAR ABD4
ENCODING 43988
SWIDTH 960 0
DWIDTH 16 0
BBX 16 16 0 -4
BITMAP
0080
0080
03FF
7880
4890
4890
4892
4892
4954
4938
7910
4A28
0228
0444
0082
0301
ENDCHAR

STARTCHAR ABD5
ENCODING 43989
SWIDTH 960 0
DWIDTH 16 0
BBX 16 16 0 -4
BITMAP
0020
0020
03FF
7840
4880
48FE
4982
4A82
48FE
4882
7882
48FE
0082
0082
0102
020E
ENDCHAR

STARTCHAR ABD6
ENCODING 43990
SWIDTH 960 0
DWIDTH 16 0
BBX 16 16 0 -4
BITMAP
0000
03FF
0020
7820
4840
4BFF
4A49
4A49
4A49
4A49
7A49
4A49
0249
0249
0249
0203
ENDCHAR

STARTCHAR ABD7
ENCODING 43991
SWIDTH 960 0
DWIDTH 16 0
BBX 16 16 0 -4
BITMAP
0020
0020
0222
7924
48A8
4820
4820
4BFE
4888
4888
7888
4908
0108
0209
0409
0807
ENDCHAR

STARTCHAR ABD8
ENCODING 43992
SWIDTH 960 0
DWIDTH 16 0
BBX 16 16 0 -4
BITMAP
0000
00F8
0088
7888
4888
4888
4907
4A20
4820
4BFE
7820
48A8
0124
0222
0421
0020
ENDCHAR

STARTCHAR ABD9
ENCODING 43993
SWIDTH 960 0
DWIDTH 16 0
BBX 16 16 0 -4
BITMAP
0020
0010
03FF
7A01
4A01
483C
49E0
4820
4820
4BFF
7820
4820
0020
0021
0021
001F
ENDCHAR

STARTCHAR ABDA
ENCODING 43994
SWIDTH 960 0
DWIDTH 16 0
BBX 16 16 0 -4
BITMAP
0000
0101
0111
7911
4911
4911
4B77
4911
4911
4911
7911
4911
0111
0211
0211
0401
ENDCHAR

STARTCHAR ABDB
ENCODING 43995
SWIDTH 960 0
DWIDTH 16 0
BBX 16 16 0 -4
BITMAP
0000
0104
0088
7850
49FC
4820
4820
4820
4820
4BFE
7840
4848
0084
0102
0201
0400
ENDCHAR

STARTCHAR ABDC
ENCODING 43996
SWIDTH 960 0
DWIDTH 16 0
BBX 16 16 0 -4
BITMAP
0000
03DF
0084
7884
4884
4884
4884
4BDF
4884
4884
7884
4884
0104
0104
0204
0404
ENDCHAR

STARTCHAR ABDD
ENCODING 43997
SWIDTH 960 0
DWIDTH 16 0
BBX 16 16 0 -4
BITMAP
0000
01FF
0010
7C20
44FE
4482
4482
4482
4482
44FE
7C82
4482
0082
0082
00FE
0082
ENDCHAR

STARTCHAR ABDE
ENCODING 43998
SWIDTH 960 0
DWIDTH 16 0
BBX 16 16 0 -4
BITMAP
0020
0020
03FF
7848
4884
497A
4A01
4800
49FE
4840
7880
48FC
0004
0004
0004
0038
ENDCHAR

STARTCHAR ABDF
ENCODING 43999
SWIDTH 960 0
DWIDTH 16 0
BBX 16 16 0 -4
BITMAP
0020
0020
03FE
7A22
4A22
4BFE
4A22
4A22
4BFE
4A20
7823
482C
0010
0069
0185
0603
ENDCHAR

STARTCHAR ABE0
ENCODING 44000
SWIDTH 960 0
DWIDTH 16 0
BBX 16 16 0 -4
BITMAP
0082
0064
0018
7866
4991
4810
4BFF
4820
4820
4848
7850
4894
0122
024D
0471
0000
ENDCHAR

STARTCHAR ABE1
ENCODING 44001
SWIDTH 960 0
DWIDTH 16 0
BBX 16 16 0 -4
BITMAP
0010
0020
0040
79FF
4901
4901
4901
497D
4945
4945
7945
497D
0145
0101
0101
0103
ENDCHAR

STARTCHAR ABE2
ENCODING 44002
SWIDTH 960 0
DWIDTH 16 0
BBX 16 16 0 -4
BITMAP
0000
000F
01F0
7900
4900
49FF
4900
4900
4900
497E
7942
4942
0242
0242
047E
0042
ENDCHAR

STARTCHAR ABE3
ENCODING 44003
SWIDTH 960 0
DWIDTH 16 0
BBX 16 16 0 -4
BITMAP
0006
0038
03C0
7A03
4A0C
4A70
4A40
4A60
4A51
4A52
7A4C
4A48
0444
0444
0852
0061
ENDCHAR

STARTCHAR ABE4
ENCODING 44004
SWIDTH 960 0
DWIDTH 16 0
BBX 16 16 0 -4
BITMAP
0000
3FFE
2002
2082
2492
22A2
2082
2FFA
2142
2142
224A
244A
283A
2002
3FFE
2002
ENDCHAR

STARTCHAR ABE5
ENCODING 44005
SWIDTH 960 0
DWIDTH 16 0
BBX 16 16 0 -4
BITMAP
0000
3FFE
2222
2222
241E
3902
2082
2FFA
2202
23F2
2212
2412
2472
2802
3FFE
2002
ENDCHAR

STARTCHAR ABE6
ENCODING 44006
SWIDTH 960 0
DWIDTH 16 0
BBX 16 16 0 -4
BITMAP
1000
1048
1048
1048
7DFE
1048
1048
1048
1048
1048
13FF
1C00
7048
0084
0102
0201
ENDCHAR

STARTCHAR ABE7
ENCODING 44007
SWIDTH 960 0
DWIDTH 16 0
BBX 16 16 0 -4
BITMAP
1020
1020
107C
1084
7D44
1028
1010
1028
10D0
103F
1041
1DA2
7014
0008
0030
01C0
ENDCHAR

STARTCHAR ABE8
ENCODING 44008
SWIDTH 960 0
DWIDTH 16 0
BBX 16 16 0 -4
BITMAP
1040
107E
1082
1084
7D44
1228
1010
1028
1044
1082
11FF
1E82
7082
0082
00FE
0082
ENDCHAR

STARTCHAR ABE9
ENCODING 44009
SWIDTH 960 0
DWIDTH 16 0
BBX 16 16 0 -4
BITMAP
1020
1040
11FE
1102
7D02
1102
11FE
1102
1102
1102
11FE
1D02
7102
0102
01FE
0102
ENDCHAR

STARTCHAR ABEA
ENCODING 44010
SWIDTH 960 0
DWIDTH 16 0
BBX 16 16 0 -4
BITMAP
0100
0210
0408
087C
1F84
1010
1414
2222
7E7E
0282
0080
3FFE
0080
0080
7FFF
0000
ENDCHAR

STARTCHAR ABEB
ENCODING 44011
SWIDTH 960 0
DWIDTH 16 0
BBX 16 16 0 -4
BITMAP
0824
1022
13FF
2020
5022
102C
1010
1069
1385
1083
0080
3FFE
0080
0080
7FFF
0000
ENDCHAR

STARTCHAR ABEC
ENCODING 44012
SWIDTH 960 0
DWIDTH 16 0
BBX 16 16 0 -4
BITMAP
0080
7CFE
0122
0224
0020
7C50
0088
0304
0C03
0080
0080
3FFE
0080
0080
7FFF
0000
ENDCHAR

STARTCHAR ABED
ENCODING 44013
SWIDTH 960 0
DWIDTH 16 0
BBX 16 16 0 -4
BITMAP
1FF8
1008
1FF8
1008
1FF8
1106
1098
1160
1618
1887
0080
3FFE
0080
0080
7FFF
0000
ENDCHAR

STARTCHAR ABEE
ENCODING 44014
SWIDTH 960 0
DWIDTH 16 0
BBX 16 16 0 -4
BITMAP
1020
1110
11FF
1201
7E0A
1008
1008
13FF
1008
1088
1048
1C28
7008
0008
0008
0038
ENDCHAR

STARTCHAR ABEF
ENCODING 44015
SWIDTH 960 0
DWIDTH 16 0
BBX 16 16 0 -4
BITMAP
1000
11FF
1101
1111
7D11
1111
117D
1111
1111
1129
1125
1D45
7181
0101
01FF
0101
ENDCHAR

STARTCHAR ABF0
ENCODING 44016
SWIDTH 960 0
DWIDTH 16 0
BBX 16 16 0 -4
BITMAP
1000
13FC
1044
1048
7C8F
1081
1101
1201
1026
1020
13FE
1C20
7124
0222
0421
0020
ENDCHAR

STARTCHAR ABF1
ENCODING 44017
SWIDTH 960 0
DWIDTH 16 0
BBX 16 16 0 -4
BITMAP
1020
1040
11FC
1104
7D04
1104
11FC
1100
1100
11FE
1102
1D02
7102
0102
01FE
0100
ENDCHAR

STARTCHAR ABF2
ENCODING 44018
SWIDTH 960 0
DWIDTH 16 0
BBX 16 16 0 -4
BITMAP
1010
1020
1040
11FF
7D01
1101
1101
117D
1145
1145
1145
1D7D
7145
0101
0101
0103
ENDCHAR

STARTCHAR ABF3
ENCODING 44019
SWIDTH 960 0
DWIDTH 16 0
BBX 16 16 0 -4
BITMAP
1090
1094
1112
1112
7A10
137F
1510
1511
1112
1112
110C
1D08
7115
0115
0123
0141
ENDCHAR

STARTCHAR ABF4
ENCODING 44020
SWIDTH 960 0
DWIDTH 16 0
BBX 16 16 0 -4
BITMAP
0000
7FFF
1020
1F20
213E
5120
0A20
0421
181F
6080
0080
3FFE
0080
0080
7FFF
0000
ENDCHAR

STARTCHAR ABF5
ENCODING 44021
SWIDTH 960 0
DWIDTH 16 0
BBX 16 16 0 -4
BITMAP
0420
0420
27BE
2420
2420
2421
27A1
781F
0080
0080
3FFE
0080
0080
0080
7FFF
0000
ENDCHAR

STARTCHAR ABF6
ENCODING 44022
SWIDTH 960 0
DWIDTH 16 0
BBX 16 16 0 -4
BITMAP
1008
1008
1F7E
2148
2148
5248
0A7F
0408
1808
6088
0080
3FFE
0080
0080
7FFF
0000
ENDCHAR

STARTCHAR ABF7
ENCODING 44023
SWIDTH 960 0
DWIDTH 16 0
BBX 16 16 0 -4
BITMAP
0080
0080
3FFE
0080
0080
0080
0FF8
0000
0808
0808
7F7F
0808
0808
0808
3E3E
0000
ENDCHAR

STARTCHAR ABF8
ENCODING 44024
SWIDTH 960 0
DWIDTH 16 0
BBX 16 16 0 -4
BITMAP
0800
0FF0
1410
2220
01C0
0638
1807
67F0
0080
1080
1FFC
2080
4FF8
0080
0080
3FFE
ENDCHAR

STARTCHAR ABF9
ENCODING 44025
SWIDTH 960 0
DWIDTH 16 0
BBX 16 16 0 -4
BITMAP
0100
0080
7FFF
0220
1228
1224
2422
48E0
1200
03F8
0408
0A10
3120
00C0
0738
3807
ENDCHAR

STARTCHAR ABFA
ENCODING 44026
SWIDTH 960 0
DWIDTH 16 0
BBX 16 16 0 -4
BITMAP
0800
0FF8
1408
2210
4120
01C0
0E38
7087
0888
0490
3FFE
0080
0498
1886
6081
0080
ENDCHAR

STARTCHAR ABFB
ENCODING 44027
SWIDTH 960 0
DWIDTH 16 0
BBX 16 16 0 -4
BITMAP
0420
0420
27BE
2420
2420
2421
27A1
781F
0100
0200
07FC
1804
6718
00E0
0700
7800
ENDCHAR

STARTCHAR ABFC
ENCODING 44028
SWIDTH 960 0
DWIDTH 16 0
BBX 16 16 0 -4
BITMAP
0080
0080
7FFF
0140
0630
188C
6043
1FFC
0100
0620
1840
058C
0E30
70C0
0718
3804
ENDCHAR

STARTCHAR ABFD
ENCODING 44029
SWIDTH 960 0
DWIDTH 16 0
BBX 16 16 0 -4
BITMAP
0100
0100
7FFF
0220
0490
190C
63F3
0C10
3320
00C0
0300
0FF8
7408
0408
0408
07F8
ENDCHAR

STARTCHAR ABFE
ENCODING 44030
SWIDTH 960 0
DWIDTH 16 0
BBX 16 16 0 -4
BITMAP
2020
2010
2410
25FF
7E20
2440
2451
2492
2594
4688
3488
0884
1484
229A
40E2
0081
ENDCHAR

STARTCHAR ACA1
ENCODING 44193
SWIDTH 960 0
DWIDTH 16 0
BBX 16 16 0 -4
BITMAP
2020
2010
25FF
7E10
2420
2442
2584
2468
2411
4462
3584
0808
1418
2224
40C2
0101
ENDCHAR

STARTCHAR ACA2
ENCODING 44194
SWIDTH 960 0
DWIDTH 16 0
BBX 16 16 0 -4
BITMAP
2000
21FF
2484
7E84
24FC
2484
2484
24FC
2484
4484
3484
0BFF
1404
2204
4004
0004
ENDCHAR

STARTCHAR ACA3
ENCODING 44195
SWIDTH 960 0
DWIDTH 16 0
BBX 16 16 0 -4
BITMAP
2000
20FF
2488
7E88
2488
24FF
2481
2481
2481
44FF
3488
0888
1488
2288
40FF
0080
ENDCHAR

STARTCHAR ACA4
ENCODING 44196
SWIDTH 960 0
DWIDTH 16 0
BBX 16 16 0 -4
BITMAP
2010
2010
2511
7E92
2454
2410
25FF
2448
2448
4448
3448
0848
1488
2289
4109
0207
ENDCHAR

STARTCHAR ACA5
ENCODING 44197
SWIDTH 960 0
DWIDTH 16 0
BBX 16 16 0 -4
BITMAP
2020
2020
2440
7E7F
2481
2501
2479
2449
2449
4479
3449
0849
1479
2249
4001
0006
ENDCHAR

STARTCHAR ACA6
ENCODING 44198
SWIDTH 960 0
DWIDTH 16 0
BBX 16 16 0 -4
BITMAP
0420
0420
27BE
2420
2421
27A1
781F
0200
0210
7FFF
0410
0410
0FA0
0070
018C
3E02
ENDCHAR

STARTCHAR ACA7
ENCODING 44199
SWIDTH 960 0
DWIDTH 16 0
BBX 16 16 0 -4
BITMAP
200A
2009
25FF
7F08
2508
2508
2509
25E9
252A
452A
352A
0924
1564
250C
4215
0423
ENDCHAR

STARTCHAR ACA8
ENCODING 44200
SWIDTH 960 0
DWIDTH 16 0
BBX 16 16 0 -4
BITMAP
0080
0888
0490
3FFE
0080
0498
1884
2282
0210
7FFF
0410
0410
0FA0
0070
018C
3E02
ENDCHAR

STARTCHAR ACA9
ENCODING 44201
SWIDTH 960 0
DWIDTH 16 0
BBX 16 16 0 -4
BITMAP
2020
2010
25FF
7F01
2501
241C
24F0
2410
2410
45FF
3410
0810
1410
2411
4011
000F
ENDCHAR

STARTCHAR ACAA
ENCODING 44202
SWIDTH 960 0
DWIDTH 16 0
BBX 16 16 0 -4
BITMAP
2000
2048
2448
7E48
25FE
2448
2448
2448
2448
4448
35FF
0800
1448
2484
4102
0201
ENDCHAR

STARTCHAR ACAB
ENCODING 44203
SWIDTH 960 0
DWIDTH 16 0
BBX 16 16 0 -4
BITMAP
2000
23DF
2484
7E84
2484
2484
2484
27DF
2484
4484
3484
0884
1504
2504
4204
0404
ENDCHAR

STARTCHAR ACAC
ENCODING 44204
SWIDTH 960 0
DWIDTH 16 0
BBX 16 16 0 -4
BITMAP
2020
2024
2442
7E8D
25F1
2400
24FE
2482
24B2
448E
3482
088E
14F2
2482
4102
020E
ENDCHAR

STARTCHAR ACAD
ENCODING 44205
SWIDTH 960 0
DWIDTH 16 0
BBX 16 16 0 -4
BITMAP
2020
2040
245F
7E84
2484
2584
2584
2684
24BF
4484
3484
0884
1484
2484
4084
009F
ENDCHAR

STARTCHAR ACAE
ENCODING 44206
SWIDTH 960 0
DWIDTH 16 0
BBX 16 16 0 -4
BITMAP
2000
2400
7EFE
2410
6410
1810
2410
45FF
2010
2410
7E10
2410
6410
1810
2410
4210
ENDCHAR

STARTCHAR ACAF
ENCODING 44207
SWIDTH 960 0
DWIDTH 16 0
BBX 16 16 0 -4
BITMAP
0100
0080
7FFF
0220
1228
1224
2422
4860
1000
07F0
0020
0040
7FFF
0080
0080
0380
ENDCHAR

STARTCHAR ACB0
ENCODING 44208
SWIDTH 960 0
DWIDTH 16 0
BBX 16 16 0 -4
BITMAP
0100
2080
3FFF
4001
4102
0080
3FFE
0408
0804
140A
2212
0120
00C0
0120
0618
3807
ENDCHAR

STARTCHAR ACB1
ENCODING 44209
SWIDTH 960 0
DWIDTH 16 0
BBX 16 16 0 -4
BITMAP
0100
2080
3FFF
4001
4082
1448
2412
23F2
0000
0000
1FF8
0408
0210
01E0
0618
3807
ENDCHAR

STARTCHAR ACB2
ENCODING 44210
SWIDTH 960 0
DWIDTH 16 0
BBX 16 16 0 -4
BITMAP
0100
2080
3FFF
4001
4FFA
0808
0808
0FF8
0808
0000
1FFC
1004
1004
1004
1FFC
1004
ENDCHAR

STARTCHAR ACB3
ENCODING 44211
SWIDTH 960 0
DWIDTH 16 0
BBX 16 16 0 -4
BITMAP
0100
2080
3FFF
4101
4102
03E0
0420
1A40
01A0
067E
3882
0344
0C28
0030
01C0
0E00
ENDCHAR

STARTCHAR ACB4
ENCODING 44212
SWIDTH 960 0
DWIDTH 16 0
BBX 16 16 0 -4
BITMAP
0080
0080
0890
0888
1084
2082
0380
0000
0808
0808
0808
2A2A
2A2A
4949
0808
3838
ENDCHAR

STARTCHAR ACB5
ENCODING 44213
SWIDTH 960 0
DWIDTH 16 0
BBX 16 16 0 -4
BITMAP
1040
1040
10FC
1104
7E08
11FF
1500
157E
1542
1542
154E
2540
2542
263E
4401
03FF
ENDCHAR

STARTCHAR ACB6
ENCODING 44214
SWIDTH 960 0
DWIDTH 16 0
BBX 16 16 0 -4
BITMAP
0000
3FFE
2002
3FFE
2040
2040
2FFE
2040
27FC
2444
2444
24EC
2150
424C
4C43
0040
ENDCHAR

STARTCHAR ACB7
ENCODING 44215
SWIDTH 960 0
DWIDTH 16 0
BBX 16 16 0 -4
BITMAP
0000
1FF8
1008
1008
1FF8
1020
1010
1008
17F4
1413
17F0
2410
27F0
2000
5FFC
0000
ENDCHAR

STARTCHAR ACB8
ENCODING 44216
SWIDTH 960 0
DWIDTH 16 0
BBX 16 16 0 -4
BITMAP
0000
3FFE
2002
2002
3FFE
2010
220C
2C02
37FC
2404
27FC
2404
27FC
4404
4804
101C
ENDCHAR

STARTCHAR ACB9
ENCODING 44217
SWIDTH 960 0
DWIDTH 16 0
BBX 16 16 0 -4
BITMAP
0000
1FFE
1002
1002
1FFE
1080
11F0
1210
1D20
10D0
131E
2C62
2194
2608
4070
0780
ENDCHAR

STARTCHAR ACBA
ENCODING 44218
SWIDTH 960 0
DWIDTH 16 0
BBX 16 16 0 -4
BITMAP
0082
1044
1028
55FF
5410
5410
5410
54FE
5410
5410
5410
7DFF
4410
0010
0010
0010
ENDCHAR

STARTCHAR ACBB
ENCODING 44219
SWIDTH 960 0
DWIDTH 16 0
BBX 16 16 0 -4
BITMAP
0080
2082
2082
3FFE
0080
0140
0630
180C
6FFB
0080
0080
0FF8
0080
0080
3FFE
0000
ENDCHAR

STARTCHAR ACBC
ENCODING 44220
SWIDTH 960 0
DWIDTH 16 0
BBX 16 16 0 -4
BITMAP
0080
2082
2082
3FFE
0080
0140
0630
188C
6083
0080
08FC
0880
0880
0880
7FFF
0000
ENDCHAR

STARTCHAR ACBD
ENCODING 44221
SWIDTH 960 0
DWIDTH 16 0
BBX 16 16 0 -4
BITMAP
0100
0080
7FFF
0220
1220
2224
4222
0422
1860
0080
0080
2082
2082
2082
3FFE
2002
ENDCHAR

STARTCHAR ACBE
ENCODING 44222
SWIDTH 960 0
DWIDTH 16 0
BBX 16 16 0 -4
BITMAP
0010
1010
1010
55FF
5410
5511
5492
5454
5410
55FF
5410
7C28
4428
0044
0082
0101
ENDCHAR

STARTCHAR ACBF
ENCODING 44223
SWIDTH 960 0
DWIDTH 16 0
BBX 16 16 0 -4
BITMAP
0010
10FE
1012
5412
55FF
5412
5412
54FE
5410
5410
54FE
7C10
4410
01FF
0010
0010
ENDCHAR

STARTCHAR ACC0
ENCODING 44224
SWIDTH 960 0
DWIDTH 16 0
BBX 16 16 0 -4
BITMAP
0000
13DF
1084
5484
5484
5484
5484
57DF
5484
5484
5484
7C84
4504
0104
0204
0404
ENDCHAR

STARTCHAR ACC1
ENCODING 44225
SWIDTH 960 0
DWIDTH 16 0
BBX 16 16 0 -4
BITMAP
0000
13F1
1081
5489
5489
54E9
5529
5529
5529
56A9
5449
7C49
4489
0081
0101
0203
ENDCHAR

STARTCHAR ACC2
ENCODING 44226
SWIDTH 960 0
DWIDTH 16 0
BBX 16 16 0 -4
BITMAP
0080
2082
2082
3FFE
0000
0000
3FFE
2002
2FFA
2002
27F2
2412
2412
27F2
2002
200E
ENDCHAR

STARTCHAR ACC3
ENCODING 44227
SWIDTH 960 0
DWIDTH 16 0
BBX 16 16 0 -4
BITMAP
0040
1040
10F8
5508
5610
55FE
5422
5422
57FF
5422
5422
7DFE
4422
0020
0020
0060
ENDCHAR

STARTCHAR ACC4
ENCODING 44228
SWIDTH 960 0
DWIDTH 16 0
BBX 16 16 0 -4
BITMAP
1084
0888
0490
1FFC
0100
0200
7FFF
0410
0808
17F4
2012
4011
07F0
0404
0404
03FC
ENDCHAR

STARTCHAR ACC5
ENCODING 44229
SWIDTH 960 0
DWIDTH 16 0
BBX 16 16 0 -4
BITMAP
0000
3F7E
2142
2142
3F7E
2040
2040
2040
1F3E
0000
0000
7FFF
0000
0430
180C
6002
ENDCHAR

STARTCHAR ACC6
ENCODING 44230
SWIDTH 960 0
DWIDTH 16 0
BBX 16 16 0 -4
BITMAP
1000
11FF
1010
7C20
54FE
5482
5482
5482
5482
54FE
5482
1082
1082
1082
10FE
1082
ENDCHAR

STARTCHAR ACC7
ENCODING 44231
SWIDTH 960 0
DWIDTH 16 0
BBX 16 16 0 -4
BITMAP
1040
1040
1080
7CFE
5502
5502
54F2
5492
5492
54F2
5492
1092
10F2
1092
1002
100C
ENDCHAR

STARTCHAR ACC8
ENCODING 44232
SWIDTH 960 0
DWIDTH 16 0
BBX 16 16 0 -4
BITMAP
0080
0040
3FFF
2000
2080
2040
2FFE
20A0
2122
2224
2618
2A10
2208
4264
4282
0301
ENDCHAR

STARTCHAR ACC9
ENCODING 44233
SWIDTH 960 0
DWIDTH 16 0
BBX 16 16 0 -4
BITMAP
0080
0040
3FFF
2000
2040
23F8
2048
2FFE
2048
23F8
2040
27FC
2040
2FFE
4040
4040
ENDCHAR

STARTCHAR ACCA
ENCODING 44234
SWIDTH 960 0
DWIDTH 16 0
BBX 16 16 0 -4
BITMAP
0080
0040
3FFF
2000
27F8
2408
2408
27F8
2408
2408
27FA
2444
2428
2490
4508
4606
ENDCHAR

STARTCHAR ACCB
ENCODING 44235
SWIDTH 960 0
DWIDTH 16 0
BBX 16 16 0 -4
BITMAP
0000
73FE
1050
1050
23FE
2252
7A52
0A52
0A92
0B0E
4A02
3202
13FE
2800
4600
01FF
ENDCHAR

STARTCHAR ACCC
ENCODING 44236
SWIDTH 960 0
DWIDTH 16 0
BBX 16 16 0 -4
BITMAP
0000
73FE
1202
1202
22FA
228A
7A8A
0A8A
0AFA
0A02
4A02
33FE
1202
2800
4600
01FF
ENDCHAR

STARTCHAR ACCD
ENCODING 44237
SWIDTH 960 0
DWIDTH 16 0
BBX 16 16 0 -4
BITMAP
0100
0080
7FFF
0220
1224
2222
4422
0860
0000
3FFC
0004
1FFC
2000
3FFE
0002
001C
ENDCHAR

STARTCHAR ACCE
ENCODING 44238
SWIDTH 960 0
DWIDTH 16 0
BBX 16 16 0 -4
BITMAP
0000
7E7E
0202
0202
3E3E
4040
7F7F
0101
0101
0606
0000
7FFF
0000
0430
180C
6002
ENDCHAR

STARTCHAR ACCF
ENCODING 44239
SWIDTH 960 0
DWIDTH 16 0
BBX 16 16 0 -4
BITMAP
0000
7DFF
0410
0420
3CFE
2082
2082
4082
7C82
44FE
0482
0482
0482
0482
04FE
3882
ENDCHAR

STARTCHAR ACD0
ENCODING 44240
SWIDTH 960 0
DWIDTH 16 0
BBX 16 16 0 -4
BITMAP
0100
0080
7FFF
0808
0410
2220
3FFF
2020
20C0
2708
2030
20C2
2704
2018
4060
4F80
ENDCHAR

STARTCHAR ACD1
ENCODING 44241
SWIDTH 960 0
DWIDTH 16 0
BBX 16 16 0 -4
BITMAP
0002
3B82
1104
1108
1110
1102
1102
7BC4
1108
1110
1121
1101
1102
2104
2108
4130
ENDCHAR

STARTCHAR ACD2
ENCODING 44242
SWIDTH 960 0
DWIDTH 16 0
BBX 16 16 0 -4
BITMAP
1001
13F1
2125
4125
0925
0925
17FD
2125
5125
1125
1125
1125
1125
1221
1221
1426
ENDCHAR

STARTCHAR ACD3
ENCODING 44243
SWIDTH 960 0
DWIDTH 16 0
BBX 16 16 0 -4
BITMAP
0810
0810
1010
21FF
4410
0410
0810
10FE
2800
4800
08FE
0882
0882
0882
08FE
0882
ENDCHAR

STARTCHAR ACD4
ENCODING 44244
SWIDTH 960 0
DWIDTH 16 0
BBX 16 16 0 -4
BITMAP
1014
1012
1012
5BFF
5410
5410
5010
13F0
1088
1088
1088
10E9
1385
1005
1003
1001
ENDCHAR

STARTCHAR ACD5
ENCODING 44245
SWIDTH 960 0
DWIDTH 16 0
BBX 16 16 0 -4
BITMAP
1000
1048
1048
5848
55FE
5448
5048
1048
1048
1048
13FF
1000
1048
1084
1102
1201
ENDCHAR

STARTCHAR ACD6
ENCODING 44246
SWIDTH 960 0
DWIDTH 16 0
BBX 16 16 0 -4
BITMAP
1000
11FF
1020
5840
5444
5482
511D
11E1
1010
1010
1010
10FE
1010
1010
1010
11FF
ENDCHAR

STARTCHAR ACD7
ENCODING 44247
SWIDTH 960 0
DWIDTH 16 0
BBX 16 16 0 -4
BITMAP
1040
107C
1084
5908
55FF
5500
5100
113E
1122
1122
1122
112E
1120
1221
1421
101F
ENDCHAR

STARTCHAR ACD8
ENCODING 44248
SWIDTH 960 0
DWIDTH 16 0
BBX 16 16 0 -4
BITMAP
0000
1FFC
1004
1FE4
1024
1024
1FE4
1004
1004
1FFC
0000
0480
2442
2449
2409
43F8
ENDCHAR

STARTCHAR ACD9
ENCODING 44249
SWIDTH 960 0
DWIDTH 16 0
BBX 16 16 0 -4
BITMAP
0080
0080
00FF
0080
0080
1FFC
1004
1004
1004
1FFC
0084
0440
2442
2409
4409
43F8
ENDCHAR

STARTCHAR ACDA
ENCODING 44250
SWIDTH 960 0
DWIDTH 16 0
BBX 16 16 0 -4
BITMAP
1080
1080
3FFE
4080
0080
7FFF
0140
0630
180C
6083
0440
0422
2401
2409
4409
43F8
ENDCHAR

STARTCHAR ACDB
ENCODING 44251
SWIDTH 960 0
DWIDTH 16 0
BBX 16 16 0 -4
BITMAP
0800
0800
0FFC
1124
1524
2244
0344
0484
0944
0218
0080
0444
2422
2409
4409
43F8
ENDCHAR

STARTCHAR ACDC
ENCODING 44252
SWIDTH 960 0
DWIDTH 16 0
BBX 16 16 0 -4
BITMAP
1020
1010
11FF
5804
5484
5449
5129
1111
1129
1145
1185
1101
1101
11FF
1101
1000
ENDCHAR

STARTCHAR ACDD
ENCODING 44253
SWIDTH 960 0
DWIDTH 16 0
BBX 16 16 0 -4
BITMAP
1000
13FE
1000
5800
55FC
5504
5104
11FC
1104
1104
1104
11FC
1000
1000
17FF
1000
ENDCHAR

STARTCHAR ACDE
ENCODING 44254
SWIDTH 960 0
DWIDTH 16 0
BBX 16 16 0 -4
BITMAP
1010
1010
1010
58FE
5410
5410
5010
11FF
1010
1010
1010
10FE
1010
1010
1010
11FF
ENDCHAR

STARTCHAR ACDF
ENCODING 44255
SWIDTH 960 0
DWIDTH 16 0
BBX 16 16 0 -4
BITMAP
1020
1020
1020
5BFF
5440
5448
5088
1188
1288
10BE
1088
1088
1088
1088
10FF
1080
ENDCHAR

STARTCHAR ACE0
ENCODING 44256
SWIDTH 960 0
DWIDTH 16 0
BBX 16 16 0 -4
BITMAP
1020
1020
11FE
5822
5442
5482
510C
1000
1208
17DF
1249
1249
1249
1249
1451
1596
ENDCHAR

STARTCHAR ACE1
ENCODING 44257
SWIDTH 960 0
DWIDTH 16 0
BBX 16 16 0 -4
BITMAP
1082
1064
1018
5866
5591
5410
51FF
1020
1020
1048
1050
1094
1122
124D
1471
1000
ENDCHAR

STARTCHAR ACE2
ENCODING 44258
SWIDTH 960 0
DWIDTH 16 0
BBX 16 16 0 -4
BITMAP
1080
1086
1138
5908
5708
5308
5508
157F
1108
1108
1108
1108
1108
1108
113E
1100
ENDCHAR

STARTCHAR ACE3
ENCODING 44259
SWIDTH 960 0
DWIDTH 16 0
BBX 16 16 0 -4
BITMAP
0810
0814
0812
0F90
087F
0810
0810
0812
7F12
4112
4114
4118
4111
4129
7F45
4082
ENDCHAR

STARTCHAR ACE4
ENCODING 44260
SWIDTH 960 0
DWIDTH 16 0
BBX 16 16 0 -4
BITMAP
003E
1FC0
1000
1FFE
1002
1002
1FFE
1000
13FE
1222
1222
13FE
1222
2222
23FE
4202
ENDCHAR

STARTCHAR ACE5
ENCODING 44261
SWIDTH 960 0
DWIDTH 16 0
BBX 16 16 0 -4
BITMAP
1020
1020
11FD
7C22
1024
1028
13FF
1C20
7040
1080
1180
12FE
1480
1080
1080
307F
ENDCHAR

STARTCHAR ACE6
ENCODING 44262
SWIDTH 960 0
DWIDTH 16 0
BBX 16 16 0 -4
BITMAP
1010
1090
1090
7CFE
1090
1110
1010
1DFF
7010
1038
1054
1092
1111
1210
1010
3010
ENDCHAR

STARTCHAR ACE7
ENCODING 44263
SWIDTH 960 0
DWIDTH 16 0
BBX 16 16 0 -4
BITMAP
1010
1090
1090
7CFE
1110
1110
1210
1C10
73FF
1048
1048
1048
1089
1089
1109
3207
ENDCHAR

STARTCHAR ACE8
ENCODING 44264
SWIDTH 960 0
DWIDTH 16 0
BBX 16 16 0 -4
BITMAP
1040
107C
1084
7D08
11FF
1100
1100
1D3E
7122
1122
1122
112E
1120
1221
1221
341F
ENDCHAR

STARTCHAR ACE9
ENCODING 44265
SWIDTH 960 0
DWIDTH 16 0
BBX 16 16 0 -4
BITMAP
1080
1080
1100
7DFE
1202
1402
11F2
1D12
7112
11F2
1112
1112
11F2
1112
1002
301C
ENDCHAR

STARTCHAR ACEA
ENCODING 44266
SWIDTH 960 0
DWIDTH 16 0
BBX 16 16 0 -4
BITMAP
1000
1060
118F
7D01
1101
1101
1101
1D01
71EF
1101
1101
1101
1101
1101
11FF
3101
ENDCHAR

STARTCHAR ACEB
ENCODING 44267
SWIDTH 960 0
DWIDTH 16 0
BBX 16 16 0 -4
BITMAP
1010
1010
1010
7DFF
1010
1111
1092
1C54
7010
11FF
1010
1028
1028
1044
1082
3101
ENDCHAR

STARTCHAR ACEC
ENCODING 44268
SWIDTH 960 0
DWIDTH 16 0
BBX 16 16 0 -4
BITMAP
1020
1020
13FF
7C20
11FE
1022
1022
1DFE
7120
1220
13FF
1021
1051
108A
1104
3603
ENDCHAR

STARTCHAR ACED
ENCODING 44269
SWIDTH 960 0
DWIDTH 16 0
BBX 16 16 0 -4
BITMAP
1000
13FF
1048
7C48
1048
13FF
1249
1E49
7249
1289
1287
1301
1201
1201
13FF
3201
ENDCHAR

STARTCHAR ACEE
ENCODING 44270
SWIDTH 960 0
DWIDTH 16 0
BBX 16 16 0 -4
BITMAP
1020
1022
1222
7D24
10A4
1028
13FF
1C01
7001
1001
13FF
1001
1001
1001
13FF
3001
ENDCHAR

STARTCHAR ACEF
ENCODING 44271
SWIDTH 960 0
DWIDTH 16 0
BBX 16 16 0 -4
BITMAP
1010
1010
1111
7C92
1054
1010
13FF
1C48
7048
1048
1048
1048
1088
1089
1109
3207
ENDCHAR

STARTCHAR ACF0
ENCODING 44272
SWIDTH 960 0
DWIDTH 16 0
BBX 16 16 0 -4
BITMAP
1000
11FC
1044
7C48
105F
1081
1081
1D01
7216
1010
11FF
1010
1092
1111
1211
3010
ENDCHAR

STARTCHAR ACF1
ENCODING 44273
SWIDTH 960 0
DWIDTH 16 0
BBX 16 16 0 -4
BITMAP
1000
100E
11F0
7D00
1100
11FF
1100
1D00
7100
117E
1142
1142
1242
1242
147E
3042
ENDCHAR

STARTCHAR ACF2
ENCODING 44274
SWIDTH 960 0
DWIDTH 16 0
BBX 16 16 0 -4
BITMAP
1010
0810
0810
7EFF
0010
0410
2410
24FE
2442
1442
0824
1028
0E10
7028
00C4
0303
ENDCHAR

STARTCHAR ACF3
ENCODING 44275
SWIDTH 960 0
DWIDTH 16 0
BBX 16 16 0 -4
BITMAP
0040
3E40
0240
147F
0884
0484
7F44
0944
1A44
1828
2828
2810
4828
0844
0882
1B01
ENDCHAR

STARTCHAR ACF4
ENCODING 44276
SWIDTH 960 0
DWIDTH 16 0
BBX 16 16 0 -4
BITMAP
1040
1040
2040
7C7F
4484
4484
4444
7C44
4444
4428
4428
4410
7C28
4444
0082
0301
ENDCHAR

STARTCHAR ACF5
ENCODING 44277
SWIDTH 960 0
DWIDTH 16 0
BBX 16 16 0 -4
BITMAP
0000
7FFF
0080
3FFE
2082
2332
2C8A
2086
00F8
0080
1FFC
0408
0230
01C0
0630
380F
ENDCHAR

STARTCHAR ACF6
ENCODING 44278
SWIDTH 960 0
DWIDTH 16 0
BBX 16 16 0 -4
BITMAP
2020
2020
2020
3E3F
4242
4242
02A2
7A22
4A22
4A14
4A14
7A08
4214
0224
0442
1881
ENDCHAR

STARTCHAR ACF7
ENCODING 44279
SWIDTH 960 0
DWIDTH 16 0
BBX 16 16 0 -4
BITMAP
2080
1080
10FF
7D10
2210
2010
20FE
3C92
2492
2492
2492
2492
2492
4496
4410
4810
ENDCHAR

STARTCHAR ACF8
ENCODING 44280
SWIDTH 960 0
DWIDTH 16 0
BBX 16 16 0 -4
BITMAP
0020
0020
7A22
4924
48A8
4820
4BFE
7820
4820
4820
4BFF
4820
7820
4820
0020
0020
ENDCHAR

STARTCHAR ACF9
ENCODING 44281
SWIDTH 960 0
DWIDTH 16 0
BBX 16 16 0 -4
BITMAP
0010
0010
7C10
45FF
4410
4410
4410
7CFE
4410
4438
4454
4454
7C92
4111
0210
0010
ENDCHAR

STARTCHAR ACFA
ENCODING 44282
SWIDTH 960 0
DWIDTH 16 0
BBX 16 16 0 -4
BITMAP
0000
01FF
7C80
4480
4480
44FE
4482
7C82
4482
44FE
4482
4480
7C80
4080
01FF
0000
ENDCHAR

STARTCHAR ACFB
ENCODING 44283
SWIDTH 960 0
DWIDTH 16 0
BBX 16 16 0 -4
BITMAP
000E
01F0
7910
4910
4910
49FE
4910
7910
4910
4908
4928
4949
7985
4005
01FB
0001
ENDCHAR

STARTCHAR ACFC
ENCODING 44284
SWIDTH 960 0
DWIDTH 16 0
BBX 16 16 0 -4
BITMAP
0010
0010
7C28
4444
4482
4511
4420
7CC0
4404
4408
4430
44C2
7C04
4018
0060
0180
ENDCHAR

STARTCHAR ACFD
ENCODING 44285
SWIDTH 960 0
DWIDTH 16 0
BBX 16 16 0 -4
BITMAP
3FFC
2004
3FFC
2040
3FFC
2020
2612
380A
0006
1FF8
1008
1008
1FF8
1008
1008
1FF8
ENDCHAR

STARTCHAR ACFE
ENCODING 44286
SWIDTH 960 0
DWIDTH 16 0
BBX 16 16 0 -4
BITMAP
0080
0080
7FFF
1144
0A28
0410
180C
6003
0FF8
0808
0808
0FF8
0808
0808
0FF8
0808
ENDCHAR

STARTCHAR ADA1
ENCODING 44449
SWIDTH 960 0
DWIDTH 16 0
BBX 16 16 0 -4
BITMAP
0000
1FFC
1004
1FFC
1004
1FFC
0000
3FFE
0080
0880
08FC
0880
0880
0880
7FFF
0000
ENDCHAR

STARTCHAR ADA2
ENCODING 44450
SWIDTH 960 0
DWIDTH 16 0
BBX 16 16 0 -4
BITMAP
0000
1FFC
1004
1FFC
1004
1FFC
0000
0000
3E7E
0842
0842
0842
0F42
704C
0040
0040
ENDCHAR

STARTCHAR ADA3
ENCODING 44451
SWIDTH 960 0
DWIDTH 16 0
BBX 16 16 0 -4
BITMAP
0000
01FF
7810
4810
4810
49FF
4911
7911
4929
4925
4945
4981
7901
4101
0101
0107
ENDCHAR

STARTCHAR ADA4
ENCODING 44452
SWIDTH 960 0
DWIDTH 16 0
BBX 16 16 0 -4
BITMAP
0000
0FF8
0808
0808
0FF8
0808
0808
0FF8
0000
0000
1FFC
1224
1224
1224
7FFF
0000
ENDCHAR

STARTCHAR ADA5
ENCODING 44453
SWIDTH 960 0
DWIDTH 16 0
BBX 16 16 0 -4
BITMAP
0040
0040
787E
4882
4884
4944
4828
7810
4828
4844
48B2
4B09
7800
4030
0008
0004
ENDCHAR

STARTCHAR ADA6
ENCODING 44454
SWIDTH 960 0
DWIDTH 16 0
BBX 16 16 0 -4
BITMAP
1FFC
1004
1FFC
1004
1FFC
0200
07F8
0810
3620
01C0
0660
1818
61C7
0020
0380
0060
ENDCHAR

STARTCHAR ADA7
ENCODING 44455
SWIDTH 960 0
DWIDTH 16 0
BBX 16 16 0 -4
BITMAP
0010
3C10
2428
2444
2482
3D7D
2400
2400
24FE
3C02
2404
2448
2430
2410
4408
4C08
ENDCHAR

STARTCHAR ADA8
ENCODING 44456
SWIDTH 960 0
DWIDTH 16 0
BBX 16 16 0 -4
BITMAP
0810
0810
0810
7EFE
0810
0810
1810
1DFF
2A10
2838
4854
4892
0911
0A10
0810
0810
ENDCHAR

STARTCHAR ADA9
ENCODING 44457
SWIDTH 960 0
DWIDTH 16 0
BBX 16 16 0 -4
BITMAP
0810
0810
0810
7EFE
0810
0810
1810
1C10
2BFF
2820
4820
4844
0842
088D
09F1
0801
ENDCHAR

STARTCHAR ADAA
ENCODING 44458
SWIDTH 960 0
DWIDTH 16 0
BBX 16 16 0 -4
BITMAP
0810
0810
0810
7EFF
0820
0828
1848
1CFF
2B49
2849
4849
4849
0849
084B
0808
0808
ENDCHAR

STARTCHAR ADAB
ENCODING 44459
SWIDTH 960 0
DWIDTH 16 0
BBX 16 16 0 -4
BITMAP
0800
09FF
0821
7E21
0821
0841
1841
1C86
2B00
28FF
4881
4881
0881
0881
08FF
0881
ENDCHAR

STARTCHAR ADAC
ENCODING 44460
SWIDTH 960 0
DWIDTH 16 0
BBX 16 16 0 -4
BITMAP
0800
08FE
0882
7E82
0882
0882
18FE
1C80
2A80
28FF
4881
4881
0881
0881
08FF
0881
ENDCHAR

STARTCHAR ADAD
ENCODING 44461
SWIDTH 960 0
DWIDTH 16 0
BBX 16 16 0 -4
BITMAP
080E
08F0
0810
7E10
0810
09FF
1810
1C38
2A34
2854
4852
4892
0911
0810
0810
0810
ENDCHAR

STARTCHAR ADAE
ENCODING 44462
SWIDTH 960 0
DWIDTH 16 0
BBX 16 16 0 -4
BITMAP
0108
1108
1108
7FFF
1108
1108
11F8
1000
1FFE
0080
0080
7FFF
0080
0888
1084
2082
ENDCHAR

STARTCHAR ADAF
ENCODING 44463
SWIDTH 960 0
DWIDTH 16 0
BBX 16 16 0 -4
BITMAP
0080
0080
1FFC
0080
0490
0410
3FFE
0410
0410
0080
0080
7FFF
0080
0888
1084
2082
ENDCHAR

STARTCHAR ADB0
ENCODING 44464
SWIDTH 960 0
DWIDTH 16 0
BBX 16 16 0 -4
BITMAP
0810
0810
0810
7EFE
0810
0810
1854
1C44
2A44
29FF
4844
4844
0844
0884
0884
0904
ENDCHAR

STARTCHAR ADB1
ENCODING 44465
SWIDTH 960 0
DWIDTH 16 0
BBX 16 16 0 -4
BITMAP
0800
08FE
0802
7E44
0828
0810
19FF
1C11
2A32
2850
4850
4890
0910
0A10
0810
0830
ENDCHAR

STARTCHAR ADB2
ENCODING 44466
SWIDTH 960 0
DWIDTH 16 0
BBX 16 16 0 -4
BITMAP
0800
09FE
0810
7E10
0810
0810
1890
1C9E
2A90
2890
4890
4890
0890
0890
0BFF
0800
ENDCHAR

STARTCHAR ADB3
ENCODING 44467
SWIDTH 960 0
DWIDTH 16 0
BBX 16 16 0 -4
BITMAP
0808
0808
7F7F
0808
0808
2000
3FFF
4001
4082
0080
3FFE
0080
0888
1084
2082
0080
ENDCHAR

STARTCHAR ADB4
ENCODING 44468
SWIDTH 960 0
DWIDTH 16 0
BBX 16 16 0 -4
BITMAP
0080
0080
3FFE
0180
02E0
0498
0884
1082
6FF8
0808
0FF8
0808
0FF8
0808
7FFF
0000
ENDCHAR

STARTCHAR ADB5
ENCODING 44469
SWIDTH 960 0
DWIDTH 16 0
BBX 16 16 0 -4
BITMAP
0800
087E
0842
7E42
0842
087E
1810
1C10
2AFF
2811
4811
4821
0821
0841
0882
090C
ENDCHAR

STARTCHAR ADB6
ENCODING 44470
SWIDTH 960 0
DWIDTH 16 0
BBX 16 16 0 -4
BITMAP
0810
0820
0820
7E44
0842
089D
19E1
1C01
2A00
28FE
4882
4882
0882
0882
08FE
0882
ENDCHAR

STARTCHAR ADB7
ENCODING 44471
SWIDTH 960 0
DWIDTH 16 0
BBX 16 16 0 -4
BITMAP
1100
1100
110F
7DE9
1129
1129
3229
3B29
54A9
5049
1049
108B
1088
1108
1208
1408
ENDCHAR

STARTCHAR ADB8
ENCODING 44472
SWIDTH 960 0
DWIDTH 16 0
BBX 16 16 0 -4
BITMAP
1000
11DC
1154
7D54
1154
1154
3154
37FF
5954
5554
1154
1154
1154
1154
1154
124C
ENDCHAR

STARTCHAR ADB9
ENCODING 44473
SWIDTH 960 0
DWIDTH 16 0
BBX 16 16 0 -4
BITMAP
080E
08F0
0880
7E80
08FF
0880
18BE
1CA2
2AA2
28A2
48A2
48AE
08A0
0921
0921
0A1F
ENDCHAR

STARTCHAR ADBA
ENCODING 44474
SWIDTH 960 0
DWIDTH 16 0
BBX 16 16 0 -4
BITMAP
0810
0808
0848
7E48
0844
0884
1902
1C01
2A00
28FC
4884
4884
0884
0884
08FC
0884
ENDCHAR

STARTCHAR ADBB
ENCODING 44475
SWIDTH 960 0
DWIDTH 16 0
BBX 16 16 0 -4
BITMAP
0000
7FFF
0200
0400
0FFC
1804
2804
0804
0FFC
0080
0080
7FFF
0080
0888
1084
2082
ENDCHAR

STARTCHAR ADBC
ENCODING 44476
SWIDTH 960 0
DWIDTH 16 0
BBX 16 16 0 -4
BITMAP
0820
0820
4920
493F
4949
494A
7F48
0808
4908
4914
4914
4914
4922
7F22
4141
0081
ENDCHAR

STARTCHAR ADBD
ENCODING 44477
SWIDTH 960 0
DWIDTH 16 0
BBX 16 16 0 -4
BITMAP
0800
09FF
0880
2880
2880
2EFE
2882
2882
2882
28FE
2882
2880
2E80
7080
01FF
0000
ENDCHAR

STARTCHAR ADBE
ENCODING 44478
SWIDTH 960 0
DWIDTH 16 0
BBX 16 16 0 -4
BITMAP
0080
0080
10FE
1080
1080
7FFF
0000
0000
7FFF
0008
1F88
1088
1088
1F88
0008
0038
ENDCHAR

STARTCHAR ADBF
ENCODING 44479
SWIDTH 960 0
DWIDTH 16 0
BBX 16 16 0 -4
BITMAP
0020
7E10
1010
11FF
1C00
2402
2482
3482
2C82
4444
4844
0844
1028
1028
23FF
4000
ENDCHAR

STARTCHAR ADC0
ENCODING 44480
SWIDTH 960 0
DWIDTH 16 0
BBX 16 16 0 -4
BITMAP
0010
7E10
1010
1010
1DFF
2410
2410
3410
2C10
44FE
4882
0882
1082
1082
20FE
4082
ENDCHAR

STARTCHAR ADC1
ENCODING 44481
SWIDTH 960 0
DWIDTH 16 0
BBX 16 16 0 -4
BITMAP
0010
7E10
10FF
1091
1C91
2492
2490
34FE
2C82
44C2
48A4
0894
1118
2124
4242
0081
ENDCHAR

STARTCHAR ADC2
ENCODING 44482
SWIDTH 960 0
DWIDTH 16 0
BBX 16 16 0 -4
BITMAP
0C20
7020
1020
103F
1020
7C20
1020
11FE
1102
7D02
1102
1102
11FE
1001
1001
0FFF
ENDCHAR

STARTCHAR ADC3
ENCODING 44483
SWIDTH 960 0
DWIDTH 16 0
BBX 16 16 0 -4
BITMAP
2000
200C
2070
3E10
4210
4210
027E
7A10
4A10
4A10
4AFF
7A10
4210
0211
0411
180F
ENDCHAR

STARTCHAR ADC4
ENCODING 44484
SWIDTH 960 0
DWIDTH 16 0
BBX 16 16 0 -4
BITMAP
0040
2020
1020
07FE
4040
2080
00A2
1124
1328
1510
2110
2108
2108
4124
4142
0181
ENDCHAR

STARTCHAR ADC5
ENCODING 44485
SWIDTH 960 0
DWIDTH 16 0
BBX 16 16 0 -4
BITMAP
0020
2020
1222
0124
40A8
2020
07FF
1020
1128
1124
2224
2222
2422
4820
4020
0020
ENDCHAR

STARTCHAR ADC6
ENCODING 44486
SWIDTH 960 0
DWIDTH 16 0
BBX 16 16 0 -4
BITMAP
0000
23FC
1204
0204
43FC
2204
0204
13FC
1200
1242
2244
2228
2210
4248
4284
0303
ENDCHAR

STARTCHAR ADC7
ENCODING 44487
SWIDTH 960 0
DWIDTH 16 0
BBX 16 16 0 -4
BITMAP
0020
2020
1020
07FF
4020
2020
03FE
1008
1008
17FF
2008
2108
2088
4088
4008
0038
ENDCHAR

STARTCHAR ADC8
ENCODING 44488
SWIDTH 960 0
DWIDTH 16 0
BBX 16 16 0 -4
BITMAP
0000
23FE
1020
0020
43FE
2222
0222
13FE
1222
1222
27FF
2202
2202
4202
4202
020E
ENDCHAR

STARTCHAR ADC9
ENCODING 44489
SWIDTH 960 0
DWIDTH 16 0
BBX 16 16 0 -4
BITMAP
0020
2020
17FF
0020
4020
23FE
0222
1222
1222
126E
20B0
20A8
2124
4222
4421
0020
ENDCHAR

STARTCHAR ADCA
ENCODING 44490
SWIDTH 960 0
DWIDTH 16 0
BBX 16 16 0 -4
BITMAP
01FC
2008
1010
0020
4020
23A2
00B4
10A8
1128
1124
2224
2222
24E1
4000
43FE
0000
ENDCHAR

STARTCHAR ADCB
ENCODING 44491
SWIDTH 960 0
DWIDTH 16 0
BBX 16 16 0 -4
BITMAP
0020
2020
103C
01E0
4020
2020
01FC
1020
1020
13FE
2020
20A8
2124
4222
4421
0020
ENDCHAR

STARTCHAR ADCC
ENCODING 44492
SWIDTH 960 0
DWIDTH 16 0
BBX 16 16 0 -4
BITMAP
0088
2088
1108
0108
427F
2349
0549
1549
1149
117F
2149
2108
2108
4108
4108
0108
ENDCHAR

STARTCHAR ADCD
ENCODING 44493
SWIDTH 960 0
DWIDTH 16 0
BBX 16 16 0 -4
BITMAP
0010
2088
1084
0104
4202
25FD
0104
1164
1114
1104
211C
21E4
2104
4204
4204
041C
ENDCHAR

STARTCHAR ADCE
ENCODING 44494
SWIDTH 960 0
DWIDTH 16 0
BBX 16 16 0 -4
BITMAP
0080
0088
3ED0
02A0
0490
188C
6083
0380
0000
7FFF
0400
0800
1FFC
2804
4804
0FFC
ENDCHAR

STARTCHAR ADCF
ENCODING 44495
SWIDTH 960 0
DWIDTH 16 0
BBX 16 16 0 -4
BITMAP
0080
0088
3ED0
02A0
0290
0490
188C
6083
0380
0000
1FFC
1224
1224
1224
7FFF
0000
ENDCHAR

STARTCHAR ADD0
ENCODING 44496
SWIDTH 960 0
DWIDTH 16 0
BBX 16 16 0 -4
BITMAP
0040
2020
1010
03FF
0048
0048
414C
214A
014A
0249
1249
1488
2088
2108
4108
4238
ENDCHAR

STARTCHAR ADD1
ENCODING 44497
SWIDTH 960 0
DWIDTH 16 0
BBX 16 16 0 -4
BITMAP
0048
2044
1040
03FC
0040
4040
23FC
0040
0040
17FE
1040
2044
2028
4031
40CD
0703
ENDCHAR

STARTCHAR ADD2
ENCODING 44498
SWIDTH 960 0
DWIDTH 16 0
BBX 16 16 0 -4
BITMAP
0000
27DF
1104
0104
0104
0104
4104
27DF
0104
0104
1104
1104
2204
2204
4404
4804
ENDCHAR

STARTCHAR ADD3
ENCODING 44499
SWIDTH 960 0
DWIDTH 16 0
BBX 16 16 0 -4
BITMAP
0000
23FF
1020
0040
01FE
4102
2102
0102
0902
09FE
1102
1102
2102
2102
41FE
4102
ENDCHAR

STARTCHAR ADD4
ENCODING 44500
SWIDTH 960 0
DWIDTH 16 0
BBX 16 16 0 -4
BITMAP
0040
2044
1082
011D
03E1
4000
21FE
0102
0962
091A
1102
111E
21E2
2102
4202
440E
ENDCHAR

STARTCHAR ADD5
ENCODING 44501
SWIDTH 960 0
DWIDTH 16 0
BBX 16 16 0 -4
BITMAP
0040
2040
10F8
0108
0210
41FE
2022
0022
0BFF
0822
1022
11FE
2022
2020
4020
4060
ENDCHAR

STARTCHAR ADD6
ENCODING 44502
SWIDTH 960 0
DWIDTH 16 0
BBX 16 16 0 -4
BITMAP
0080
208E
1138
0108
4308
2308
0508
157F
1108
1108
2108
2108
2108
4108
413E
0100
ENDCHAR

STARTCHAR ADD7
ENCODING 44503
SWIDTH 960 0
DWIDTH 16 0
BBX 16 16 0 -4
BITMAP
0040
2020
1050
0088
0104
4202
25FD
0020
0820
0820
11FC
1020
2020
2020
47FF
4000
ENDCHAR

STARTCHAR ADD8
ENCODING 44504
SWIDTH 960 0
DWIDTH 16 0
BBX 16 16 0 -4
BITMAP
1090
1090
1090
17FE
5892
5092
53FE
5292
1490
17FF
1091
2891
2511
2516
4210
0410
ENDCHAR

STARTCHAR ADD9
ENCODING 44505
SWIDTH 960 0
DWIDTH 16 0
BBX 16 16 0 -4
BITMAP
1010
1010
1010
15FF
5410
5810
5010
50FE
1010
1030
1058
2854
2492
2511
4010
0010
ENDCHAR

STARTCHAR ADDA
ENCODING 44506
SWIDTH 960 0
DWIDTH 16 0
BBX 16 16 0 -4
BITMAP
1000
13FF
1002
1402
5402
59F2
5112
5112
1112
1112
11F2
2912
2402
2402
4002
000E
ENDCHAR

STARTCHAR ADDB
ENCODING 44507
SWIDTH 960 0
DWIDTH 16 0
BBX 16 16 0 -4
BITMAP
1084
1084
1084
1484
57FF
5884
5084
5084
1084
10FC
1084
2884
2484
2484
40FC
0084
ENDCHAR

STARTCHAR ADDC
ENCODING 44508
SWIDTH 960 0
DWIDTH 16 0
BBX 16 16 0 -4
BITMAP
1010
1014
1012
15FF
5410
5810
5054
5054
1054
1054
1054
2854
2494
2493
4110
0010
ENDCHAR

STARTCHAR ADDD
ENCODING 44509
SWIDTH 960 0
DWIDTH 16 0
BBX 16 16 0 -4
BITMAP
1000
13FF
1020
1420
5420
5840
5040
50FE
1082
1182
1282
2882
2482
2482
40FE
0082
ENDCHAR

STARTCHAR ADDE
ENCODING 44510
SWIDTH 960 0
DWIDTH 16 0
BBX 16 16 0 -4
BITMAP
1000
11FF
1111
1511
5511
59FF
5111
5111
1111
11FF
1111
2810
2410
2410
4010
0010
ENDCHAR

STARTCHAR ADDF
ENCODING 44511
SWIDTH 960 0
DWIDTH 16 0
BBX 16 16 0 -4
BITMAP
1010
1010
1092
1492
5492
5892
5092
50FE
1010
1111
1111
2911
2511
2511
43FF
0101
ENDCHAR

STARTCHAR ADE0
ENCODING 44512
SWIDTH 960 0
DWIDTH 16 0
BBX 16 16 0 -4
BITMAP
1060
118F
1109
1529
5529
5929
5129
5129
1129
1169
11A9
282B
2448
2448
4088
0108
ENDCHAR

STARTCHAR ADE1
ENCODING 44513
SWIDTH 960 0
DWIDTH 16 0
BBX 16 16 0 -4
BITMAP
0000
7FFF
0080
3FFE
2082
2322
2C12
2006
0080
1084
0888
0490
0140
0220
0C18
3007
ENDCHAR

STARTCHAR ADE2
ENCODING 44514
SWIDTH 960 0
DWIDTH 16 0
BBX 16 16 0 -4
BITMAP
1020
1010
11FF
1501
5501
5840
5040
5040
104E
1070
1040
2840
2440
2441
4041
003F
ENDCHAR

STARTCHAR ADE3
ENCODING 44515
SWIDTH 960 0
DWIDTH 16 0
BBX 16 16 0 -4
BITMAP
1020
1020
1020
143F
5420
5820
5020
5020
11FE
1102
1102
2902
2502
2502
41FE
0102
ENDCHAR

STARTCHAR ADE4
ENCODING 44516
SWIDTH 960 0
DWIDTH 16 0
BBX 16 16 0 -4
BITMAP
1020
1040
1040
1484
5482
591D
53E1
5001
1000
11FE
1102
2902
2502
2502
41FE
0102
ENDCHAR

STARTCHAR ADE5
ENCODING 44517
SWIDTH 960 0
DWIDTH 16 0
BBX 16 16 0 -4
BITMAP
1080
1080
10FF
1500
5610
5890
509E
50F2
1392
1092
1094
2890
2491
2481
4081
007F
ENDCHAR

STARTCHAR ADE6
ENCODING 44518
SWIDTH 960 0
DWIDTH 16 0
BBX 16 16 0 -4
BITMAP
1008
1008
1088
1488
553F
5909
5229
5149
1149
1089
1109
2A51
27D1
2421
4042
008C
ENDCHAR

STARTCHAR ADE7
ENCODING 44519
SWIDTH 960 0
DWIDTH 16 0
BBX 16 16 0 -4
BITMAP
0080
0080
7FFF
1144
0A28
0410
180C
6083
0080
1084
0888
0950
0220
0410
080C
3003
ENDCHAR

STARTCHAR ADE8
ENCODING 44520
SWIDTH 960 0
DWIDTH 16 0
BBX 16 16 0 -4
BITMAP
0080
0080
00FE
0080
0080
0080
1FFC
1004
1004
1004
1FFC
0000
0000
2444
2222
4112
ENDCHAR

ENDFONT
